<svg width="30" height="30" viewBox="0 0 30 30" fill="none" xmlns="http://www.w3.org/2000/svg">
<path fill-rule="evenodd" clip-rule="evenodd" d="M7.5 4.5C7.5 2.01472 9.51472 0 12 0H18C20.4853 0 22.5 2.01472 22.5 4.5V7.5H25.5C27.9853 7.5 30 9.51472 30 12V18C30 20.4853 27.9853 22.5 25.5 22.5H22.5V25.5C22.5 27.9853 20.4853 30 18 30H12C9.51472 30 7.5 27.9853 7.5 25.5V22.5H4.5C2.01472 22.5 3.57628e-07 20.4853 2.68221e-07 18L0 12C-1.78814e-07 9.51472 2.01472 7.5 4.5 7.5H7.5V4.5ZM12 3C11.1716 3 10.5 3.67157 10.5 4.5V9C10.5 9.82843 9.82843 10.5 9 10.5H4.5C3.67157 10.5 3 11.1716 3 12L3 18C3 18.8284 3.67157 19.5 4.5 19.5H9C9.82843 19.5 10.5 20.1716 10.5 21V25.5C10.5 26.3284 11.1716 27 12 27H18C18.8284 27 19.5 26.3284 19.5 25.5V21C19.5 20.1716 20.1716 19.5 21 19.5H25.5C26.3284 19.5 27 18.8284 27 18V12C27 11.1716 26.3284 10.5 25.5 10.5H21C20.1716 10.5 19.5 9.82843 19.5 9V4.5C19.5 3.67157 18.8284 3 18 3H12Z" fill="black"/>
</svg>
