<svg width="26" height="26" viewBox="0 0 26 26" fill="none" xmlns="http://www.w3.org/2000/svg">
<path fill-rule="evenodd" clip-rule="evenodd" d="M12.5413 0C13.2339 0 13.7954 0.561493 13.7954 1.25413V3.76239C13.7954 4.45503 13.2339 5.01652 12.5413 5.01652C11.8487 5.01652 11.2872 4.45503 11.2872 3.76239V1.25413C11.2872 0.561493 11.8487 0 12.5413 0ZM21.4093 3.67326C21.8991 4.16303 21.8991 4.9571 21.4093 5.44687L19.6357 7.22048C19.146 7.71025 18.3519 7.71025 17.8621 7.22048C17.3724 6.73071 17.3724 5.93664 17.8621 5.44687L19.6357 3.67326C20.1255 3.18349 20.9196 3.18349 21.4093 3.67326ZM3.67326 3.67326C4.16303 3.18349 4.9571 3.18349 5.44687 3.67326L7.22048 5.44687C7.71025 5.93664 7.71025 6.73071 7.22048 7.22048C6.73071 7.71025 5.93664 7.71025 5.44687 7.22048L3.67326 5.44687C3.18349 4.9571 3.18349 4.16303 3.67326 3.67326ZM12.5413 9.40598C10.8097 9.40598 9.40598 10.8097 9.40598 12.5413C9.40598 14.2729 10.8097 15.6766 12.5413 15.6766C14.2729 15.6766 15.6766 14.2729 15.6766 12.5413C15.6766 10.8097 14.2729 9.40598 12.5413 9.40598ZM6.89772 12.5413C6.89772 9.42444 9.42444 6.89772 12.5413 6.89772C15.6582 6.89772 18.1849 9.42444 18.1849 12.5413C18.1849 15.6582 15.6582 18.1849 12.5413 18.1849C9.42444 18.1849 6.89772 15.6582 6.89772 12.5413ZM0 12.5413C0 11.8487 0.561493 11.2872 1.25413 11.2872H3.76239C4.45503 11.2872 5.01652 11.8487 5.01652 12.5413C5.01652 13.2339 4.45503 13.7954 3.76239 13.7954H1.25413C0.561493 13.7954 0 13.2339 0 12.5413ZM20.0661 12.5413C20.0661 11.8487 20.6276 11.2872 21.3202 11.2872H23.8285C24.5211 11.2872 25.0826 11.8487 25.0826 12.5413C25.0826 13.2339 24.5211 13.7954 23.8285 13.7954H21.3202C20.6276 13.7954 20.0661 13.2339 20.0661 12.5413ZM7.22048 17.8621C7.71025 18.3519 7.71025 19.146 7.22048 19.6357L5.44687 21.4093C4.9571 21.8991 4.16303 21.8991 3.67326 21.4093C3.18349 20.9196 3.18349 20.1255 3.67326 19.6357L5.44687 17.8621C5.93664 17.3724 6.73071 17.3724 7.22048 17.8621ZM17.8621 17.8621C18.3519 17.3724 19.146 17.3724 19.6357 17.8621L21.4093 19.6357C21.8991 20.1255 21.8991 20.9196 21.4093 21.4093C20.9196 21.8991 20.1255 21.8991 19.6357 21.4093L17.8621 19.6357C17.3724 19.146 17.3724 18.3519 17.8621 17.8621ZM12.5413 20.0661C13.2339 20.0661 13.7954 20.6276 13.7954 21.3202V23.8285C13.7954 24.5211 13.2339 25.0826 12.5413 25.0826C11.8487 25.0826 11.2872 24.5211 11.2872 23.8285V21.3202C11.2872 20.6276 11.8487 20.0661 12.5413 20.0661Z" fill="black"/>
</svg>
