<svg width="133" height="131" viewBox="0 0 133 131" fill="none" xmlns="http://www.w3.org/2000/svg">
<rect x="0.5" y="0.5" width="132" height="130" stroke="black"/>
<path d="M55.75 50C43.25 60 42 73.75 52 91.25M78.25 80C90.75 70 92 56.5192 82 39.0192M67 35C59.0435 35 51.4129 38.1607 45.7868 43.7868C40.1607 49.4129 37 57.0435 37 65C37 72.9565 40.1607 80.5871 45.7868 86.2132C51.4129 91.8393 59.0435 95 67 95C74.9565 95 82.5871 91.8393 88.2132 86.2132C93.8393 80.5871 97 72.9565 97 65C97 57.0435 93.8393 49.4129 88.2132 43.7868C82.5871 38.1607 74.9565 35 67 35ZM67 46.25C62.0272 46.25 57.2581 48.2254 53.7417 51.7417C50.2254 55.2581 48.25 60.0272 48.25 65C48.25 69.9728 50.2254 74.7419 53.7417 78.2583C57.2581 81.7746 62.0272 83.75 67 83.75C71.9728 83.75 76.7419 81.7746 80.2583 78.2583C83.7746 74.7419 85.75 69.9728 85.75 65C85.75 60.0272 83.7746 55.2581 80.2583 51.7417C76.7419 48.2254 71.9728 46.25 67 46.25Z" stroke="black" stroke-linejoin="round"/>
</svg>
