<svg width="133" height="131" viewBox="0 0 133 131" fill="none" xmlns="http://www.w3.org/2000/svg">
<rect x="0.5" y="0.5" width="132" height="130" stroke="black"/>
<path d="M54 45V75M54 45H69C71.6522 45 74.1957 46.0536 76.0711 47.9289C77.9464 49.8043 79 52.3478 79 55C79 57.6522 77.9464 60.1957 76.0711 62.0711C74.1957 63.9464 71.6522 65 69 65H54V45ZM54 75C51.3478 75 48.8043 76.0536 46.9289 77.9289C45.0536 79.8043 44 82.3478 44 85M54 75H74C77.9782 75 81.7936 72.8929 84.6066 69.1421C87.4196 65.3914 89 60.3043 89 55C89 49.6957 87.4196 44.6086 84.6066 40.8579C81.7936 37.1071 77.9782 35 74 35H44V85M44 85C44 87.6522 45.0536 90.1957 46.9289 92.0711C48.8043 93.9464 51.3478 95 54 95V80" stroke="black" stroke-linecap="square" stroke-linejoin="round"/>
</svg>
