<svg width="133" height="131" viewBox="0 0 133 131" fill="none" xmlns="http://www.w3.org/2000/svg">
<rect x="0.5" y="0.5" width="132" height="130" stroke="black"/>
<path d="M46.2308 65.1818C60.0769 46.6364 73.9231 46.6364 87.7692 65.1818M46.2308 65.1818C60.0769 83.7273 73.9231 83.7273 87.7692 65.1818M46.2308 65.1818L41.6154 60.5455C58.5385 42 74.6923 42 90.0769 60.5455L97 69.8182M87.7692 65.1818L92.3846 69.8182C75.4615 88.3636 59.3077 88.3636 43.9231 69.8182L37 60.5455M37 60.5455V69.8182C57 94.5455 77 94.5455 97 69.8182M37 60.5455C57 35.8182 77 35.8182 97 60.5455V69.8182" stroke="black" stroke-linecap="round" stroke-linejoin="round"/>
</svg>
