<svg width="133" height="131" viewBox="0 0 133 131" fill="none" xmlns="http://www.w3.org/2000/svg">
<rect x="0.5" y="0.5" width="132" height="130" stroke="black"/>
<path d="M107 81.6667L107 48.3333L100.333 45M107 81.6667L100.333 85L73.6667 71.6667M107 81.6667L80.3333 68.3333M100.333 45L100.333 71.6667L87 65L93.6667 61.6667L67 75L40.3333 61.6667L47 65L33.6667 71.6667L33.6667 45M100.333 45L67 61.6667L33.6667 45M93.6667 68.3333L93.6667 55L67 68.3333L40.3333 55L40.3333 68.3333M27 81.6667L27 48.3333L33.6667 45M27 81.6667L33.6667 85L60.3333 71.6667M27 81.6667L53.6667 68.3333" stroke="black" stroke-linejoin="round"/>
</svg>
