<svg width="133" height="131" viewBox="0 0 133 131" fill="none" xmlns="http://www.w3.org/2000/svg">
<rect x="0.5" y="0.5" width="132" height="130" stroke="black"/>
<path d="M83.6667 32H50.3333L47 38.6M83.6667 32L87 38.6L73.6667 65M83.6667 32L70.3333 58.4M47 38.6H73.6667L67 51.8L63.6667 45.2M47 38.6L63.6667 71.6L50.3333 98M47 38.6L70.3333 84.8H63.6667H77L57 45.2M63.6667 45.2L77 71.6M63.6667 45.2L87 91.4M70.3333 45.2H57M57 45.2L70.3333 71.6M87 91.4L83.6667 98H50.3333M87 91.4H60.3333L67 78.2M50.3333 98L47 91.4L60.3333 65" stroke="black" stroke-linecap="round" stroke-linejoin="round"/>
</svg>
