<svg width="145" height="145" viewBox="0 0 145 145" fill="none" xmlns="http://www.w3.org/2000/svg">
<path fill-rule="evenodd" clip-rule="evenodd" d="M93.2803 16.729C93.86 16.3085 93.1678 14.3653 91.7343 12.3887C90.3007 10.4121 88.6686 9.1506 88.0889 9.57106C88.0592 9.5926 88.0328 9.61814 88.0098 9.64747C79.6993 13.3506 75.0195 21.007 72.5606 28.3874C44.3474 28.6362 21.5742 46.666 21.5742 75.1867C21.5742 103.907 44.6667 135.509 73.1527 135.509C101.639 135.509 124.731 103.907 124.731 75.1867C124.731 48.2787 104.461 30.7087 78.4754 28.5988C82.3611 22.3595 88.6647 18.4434 92.9235 16.8053C93.0662 16.8208 93.1869 16.7967 93.2803 16.729Z" fill="#850000"/>
<path fill-rule="evenodd" clip-rule="evenodd" d="M84.039 29.3007C82.2178 28.9868 80.3609 28.752 78.4739 28.5988C79.5373 26.8913 80.7819 25.3577 82.116 23.9972C85.6568 20.3866 89.8288 17.9951 92.922 16.8053C93.0647 16.8208 93.1854 16.7967 93.2788 16.729C93.6068 16.4911 93.5277 15.7657 93.1374 14.8226C92.8379 14.0988 92.3553 13.2469 91.7328 12.3887M92.42 11.8903L91.7328 12.3887ZM91.7328 12.3887C91.6631 12.2926 91.5929 12.1982 91.5224 12.1055C91.5075 12.086 91.4926 12.0665 91.4777 12.0471C90.1107 10.2693 88.633 9.17535 88.0874 9.57104C88.0577 9.59258 88.0314 9.61812 88.0083 9.64745C79.6978 13.3505 75.018 21.007 72.5591 28.3874C44.3459 28.6362 21.5728 46.666 21.5728 75.1867C21.5728 103.907 44.6652 135.509 73.1512 135.509C101.637 135.509 124.73 103.907 124.73 75.1867C124.73 50.2327 107.296 33.3097 84.039 29.3007M88.3206 25.1076C111.842 30.5079 129.689 48.64 129.689 75.1867C129.689 90.7935 123.453 106.958 113.472 119.245C103.495 131.528 89.304 140.469 73.1512 140.469C56.9985 140.469 42.8077 131.528 32.8303 119.245C22.8494 106.958 16.6133 90.7935 16.6133 75.1867C16.6133 44.5394 40.328 25.2075 69.0793 23.5424C71.9992 16.5362 77.0464 9.30168 85.4793 5.35061C87.5178 4.06422 89.5858 4.61124 90.34 4.87548C91.3021 5.21259 92.0857 5.74176 92.6229 6.15703C93.7512 7.02912 94.8339 8.21714 95.7476 9.47697C96.6613 10.7368 97.4542 12.1349 97.9327 13.4783C98.1606 14.1179 98.4202 15.0271 98.4418 16.0464C98.4595 16.885 98.3238 19.1966 96.1905 20.7437C95.5219 21.2287 94.8308 21.5017 94.1855 21.6419C92.4433 22.3712 90.3534 23.5339 88.3206 25.1076Z" fill="#850000"/>
<path d="M124.731 75.1867C124.731 103.907 101.639 135.509 73.1527 135.509C44.6667 135.509 21.5742 103.907 21.5742 75.1867C21.5742 46.4667 44.6667 28.3848 73.1527 28.3848C101.639 28.3848 124.731 46.4667 124.731 75.1867Z" fill="url(#paint0_radial_1769_3923)"/>
<mask id="mask0_1769_3923" style="mask-type:alpha" maskUnits="userSpaceOnUse" x="21" y="28" width="104" height="108">
<path d="M124.731 75.1867C124.731 103.907 101.639 135.509 73.1527 135.509C44.6667 135.509 21.5742 103.907 21.5742 75.1867C21.5742 46.4667 44.6667 28.3848 73.1527 28.3848C101.639 28.3848 124.731 46.4667 124.731 75.1867Z" fill="url(#paint1_radial_1769_3923)"/>
</mask>
<g mask="url(#mask0_1769_3923)">
<path d="M60.2589 38.7649C53.1172 35.5908 42.0741 37.4424 37.4453 38.7649C58.0767 22.1011 89.685 29.1766 102.91 34.7973C96.9589 34.7973 88.0319 38.7649 82.0805 41.7405C76.1292 44.7162 69.1859 42.7325 60.2589 38.7649Z" fill="url(#paint2_linear_1769_3923)"/>
<path d="M52.322 108.996C44.3868 105.822 35.1291 114.286 31.4922 118.915C33.476 128.834 61.249 141.729 80.095 140.737C95.1718 139.943 113.489 116.601 120.763 105.029C108.86 99.0772 89.022 115.939 80.095 119.907C71.1679 123.875 62.2409 112.964 52.322 108.996Z" fill="url(#paint3_linear_1769_3923)"/>
<g style="mix-blend-mode:multiply" opacity="0.4">
<path d="M36.4513 76.9876C36.4513 46.2389 56.9505 33.6749 66.2082 28.3848C31.4919 28.3848 2.72696 67.0686 19.5892 111.704C33.0789 147.412 75.4658 142.453 94.9731 135.509C54.3054 129.558 36.4513 99.8011 36.4513 76.9876Z" fill="#C4C4C4"/>
</g>
</g>
<ellipse cx="98.4777" cy="59.2261" rx="18.69" ry="13.7716" transform="rotate(42.7602 98.4777 59.2261)" fill="#FFF6A2" fill-opacity="0.4"/>
<path d="M88.0299 9.63867C73.7466 15.9868 70.1758 34.0062 70.1758 42.272C72.1596 43.2639 73.8127 43.2639 75.1352 43.2639C73.5482 28.1871 86.0461 19.4254 92.9893 16.7803L88.0299 9.63867Z" fill="url(#paint4_linear_1769_3923)"/>
<ellipse cx="1.29671" cy="4.42115" rx="1.29671" ry="4.42115" transform="matrix(0.809511 -0.587105 0.587106 0.80951 87.0391 10.334)" fill="#D98A39"/>
<defs>
<radialGradient id="paint0_radial_1769_3923" cx="0" cy="0" r="1" gradientUnits="userSpaceOnUse" gradientTransform="translate(81.0879 72.0281) rotate(107.266) scale(76.8638 74.017)">
<stop stop-color="#DB011A"/>
<stop offset="1" stop-color="#B30014"/>
</radialGradient>
<radialGradient id="paint1_radial_1769_3923" cx="0" cy="0" r="1" gradientUnits="userSpaceOnUse" gradientTransform="translate(81.0879 72.0281) rotate(107.266) scale(76.8638 74.017)">
<stop stop-color="#DB011A"/>
<stop offset="1" stop-color="#B30014"/>
</radialGradient>
<linearGradient id="paint2_linear_1769_3923" x1="70.1778" y1="28.3848" x2="70.1778" y2="43.1733" gradientUnits="userSpaceOnUse">
<stop offset="0.416188" stop-color="#A60013" stop-opacity="0"/>
<stop offset="1" stop-color="#A60013"/>
</linearGradient>
<linearGradient id="paint3_linear_1769_3923" x1="88.0301" y1="99.802" x2="76.1274" y2="140.791" gradientUnits="userSpaceOnUse">
<stop stop-color="#FFCA5E"/>
<stop offset="1" stop-color="#CC9700"/>
</linearGradient>
<linearGradient id="paint4_linear_1769_3923" x1="81.5826" y1="9.63867" x2="81.5826" y2="43.2639" gradientUnits="userSpaceOnUse">
<stop stop-color="#9A4F01"/>
<stop offset="1" stop-color="#6A3600"/>
</linearGradient>
</defs>
</svg>
