<svg width="145" height="145" viewBox="0 0 145 145" fill="none" xmlns="http://www.w3.org/2000/svg">
<circle cx="73.2552" cy="73.2552" r="65.4427" fill="#CE8700" stroke="#CE8700" stroke-width="2.5"/>
<circle cx="73.2552" cy="73.2552" r="64.1927" fill="#F8BE1A"/>
<path d="M121.134 73.256C121.134 99.6755 99.3533 121.135 72.4324 121.135C45.5116 121.135 23.7305 99.6755 23.7305 73.256C23.7305 46.8364 45.5116 25.377 72.4324 25.377C99.3533 25.377 121.134 46.8364 121.134 73.256Z" fill="#FFDF85" stroke="#DAAB07" stroke-width="3"/>
<path d="M71.4597 34.3025C71.8947 33.5684 72.9736 33.5684 73.4086 34.3025L85.6729 54.9983C85.8322 55.2672 86.0992 55.4579 86.4086 55.5238L110.224 60.5927C111.069 60.7724 111.402 61.781 110.827 62.4144L94.5906 80.2741C94.3797 80.5061 94.2777 80.8146 94.3096 81.1242L96.7642 104.953C96.8513 105.798 95.9784 106.421 95.1875 106.079L72.8889 96.4207C72.5991 96.2953 72.2691 96.2953 71.9794 96.4207L49.6807 106.079C48.8898 106.421 48.0169 105.798 48.104 104.953L50.5587 81.1242C50.5906 80.8146 50.4886 80.5061 50.2776 80.2741L34.0416 62.4144C33.4657 61.781 33.7992 60.7724 34.6439 60.5927L58.4596 55.5238C58.769 55.4579 59.036 55.2672 59.1954 54.9983L71.4597 34.3025Z" fill="#E79800"/>
<mask id="mask0_1768_3783" style="mask-type:alpha" maskUnits="userSpaceOnUse" x="9" y="9" width="129" height="129">
<path d="M137.448 73.2552C137.448 108.708 108.708 137.448 73.2552 137.448C37.8025 137.448 9.0625 108.708 9.0625 73.2552C9.0625 37.8025 37.8025 9.0625 73.2552 9.0625C108.708 9.0625 137.448 37.8025 137.448 73.2552Z" fill="#CE8700"/>
</mask>
<g mask="url(#mask0_1768_3783)">
<g opacity="0.2">
<g style="mix-blend-mode:screen">
<rect width="159.626" height="36.0872" transform="matrix(0.912469 -0.409145 0.300017 0.953934 -7.37109 69.8008)" fill="#FFF272"/>
</g>
<g style="mix-blend-mode:screen">
<rect width="159.626" height="17.1728" transform="matrix(0.912469 -0.409145 0.300017 0.953934 2.42188 118.572)" fill="#FFF272"/>
</g>
</g>
</g>
</svg>
