<svg width="145" height="146" viewBox="0 0 145 146" fill="none" xmlns="http://www.w3.org/2000/svg">
<path fill-rule="evenodd" clip-rule="evenodd" d="M104.041 26.7465C93.2377 28.5128 87.0737 32.1904 82.3559 36.7856C81.831 35.8867 80.8605 35.2833 79.75 35.2833H62.5312C61.4207 35.2833 60.4502 35.8867 59.9253 36.7856C55.329 32.3088 49.36 28.7028 39.0652 26.8867C38.5619 24.3359 38.3608 21.5301 38.5585 18.4551C38.1064 18.1847 36.7953 17.9684 35.1678 19.2662C33.4087 20.669 32.6636 24.4974 32.4941 26.0323C32.1418 26.0009 31.7854 25.9711 31.4247 25.9431C16.6779 24.7958 19.0964 34.9605 21.2578 44.0445C21.727 46.0163 22.184 47.9373 22.4508 49.6805C22.7538 51.6604 22.4024 54.0908 22.0304 56.6636C21.6242 59.4737 21.1934 62.4535 21.5637 65.2016C17.9837 70.9613 15.6015 77.7043 14.6235 85.3596C13.0526 97.6547 11.9622 110.845 21.6922 118.732C31.9859 127.076 55.9035 129.271 71.9589 129.271C88.0143 129.271 112.717 127.076 123.011 118.732C132.741 110.845 131.651 96.7765 130.08 85.3596C128.912 76.8757 125.709 69.3025 120.859 62.9331C120.857 60.857 120.547 58.7152 120.251 56.6638L120.251 56.6637C119.879 54.0909 119.527 51.6604 119.83 49.6805C120.097 47.9373 120.554 46.0163 121.023 44.0445C123.185 34.9605 125.603 24.7958 110.857 25.9431L110.578 25.9652C110.394 24.3885 109.646 20.6489 107.912 19.2662C106.284 17.9684 104.973 18.1847 104.521 18.4551C104.715 21.4738 104.525 24.2331 104.041 26.7465Z" fill="#FFEBEC"/>
<path fill-rule="evenodd" clip-rule="evenodd" d="M120.253 56.6633C120.549 58.7146 120.859 60.8565 120.86 62.9326C125.711 69.302 128.914 76.8752 130.082 85.3591C131.652 96.776 132.743 110.844 123.013 118.732C112.719 127.076 88.0162 129.27 71.9608 129.27C55.9054 129.27 31.9878 127.076 21.6941 118.732C11.9641 110.844 13.0545 97.6542 14.6254 85.3591C15.6034 77.7037 17.9856 70.9607 21.5657 65.201C21.1953 62.453 21.6261 59.4731 22.0323 56.6631C22.4043 54.0903 22.7557 51.6599 22.4527 49.68C22.186 47.9367 21.7289 46.0158 21.2597 44.044C19.0983 34.96 16.6798 24.7953 31.4266 25.9426C31.7873 25.9706 32.1437 26.0004 32.496 26.0318C32.6504 24.6334 33.2826 21.3314 34.724 19.6943C34.8647 19.5345 35.0132 19.3905 35.1697 19.2657C35.8114 18.754 36.404 18.4777 36.9141 18.3472C37.6976 18.1469 38.2866 18.2908 38.5604 18.4546C38.3627 21.5295 38.5638 24.3353 39.0672 26.8862C47.3527 28.3478 52.8362 30.9689 57.0573 34.2702C58.0808 35.0708 59.0302 35.9113 59.9272 36.785C60.1714 36.3669 60.512 36.0127 60.9183 35.7534C61.3854 35.4554 61.9393 35.2828 62.5332 35.2828H79.7519C80.3458 35.2828 80.8997 35.4554 81.3667 35.7534C81.773 36.0127 82.1137 36.3669 82.3578 36.785C83.2549 35.9113 84.2042 35.0708 85.2278 34.2702C89.5875 30.8605 95.2939 28.1764 104.043 26.7459C104.527 24.2326 104.717 21.4733 104.523 18.4546C104.797 18.2908 105.386 18.1469 106.169 18.3472C106.679 18.4777 107.272 18.754 107.914 19.2657C108.07 19.3905 108.218 19.5345 108.359 19.6943C109.778 21.3057 110.413 24.5303 110.58 25.9647L110.858 25.9426C125.605 24.7953 123.187 34.9599 121.025 44.044C120.556 46.0158 120.099 47.9367 119.832 49.68C119.529 51.6599 119.881 54.0903 120.253 56.6633ZM123.988 56.103C123.589 53.346 123.366 51.5524 123.564 50.2589L120.197 49.7365L123.564 50.2589C123.803 48.7005 124.219 46.9408 124.697 44.9298L121.025 44.044L124.697 44.9298L124.719 44.8385C125.245 42.6296 125.838 40.1374 126.164 37.7367C126.49 35.3329 126.608 32.6454 125.922 30.1449C125.19 27.4741 123.554 25.0982 120.691 23.6242C118.715 22.6067 116.348 22.1198 113.63 22.0582C113.564 21.8247 113.492 21.589 113.415 21.353C112.946 19.9205 112.044 17.7094 110.258 16.2851C107.693 14.2398 104.685 13.9356 102.594 15.1856C101.374 15.9157 100.663 17.2736 100.755 18.7003C100.864 20.4065 100.836 22.0041 100.695 23.4989C92.348 25.2224 86.6286 28.1737 82.1172 31.9069C81.381 31.6316 80.5842 31.4807 79.7519 31.4807H62.5332C61.7009 31.4807 60.904 31.6316 60.1679 31.9069C55.8088 28.2998 50.3166 25.4182 42.4048 23.6728C42.2494 22.1281 42.2146 20.4727 42.3286 18.7003C42.4203 17.2736 41.7095 15.9157 40.4887 15.1856C38.3986 13.9356 35.3903 14.2398 32.8254 16.2851C31.017 17.7271 30.112 19.9788 29.6455 21.4243C29.5777 21.6343 29.5141 21.8441 29.4546 22.0522C26.3996 22.0304 23.7615 22.5081 21.5937 23.6242C18.7308 25.0982 17.0948 27.4741 16.3626 30.1449C15.6772 32.6454 15.7952 35.3329 16.1214 37.7368C16.4472 40.1375 17.0403 42.6297 17.5659 44.8385L17.5876 44.9298C18.0661 46.9408 18.4822 48.7005 18.7207 50.2589C18.9189 51.5543 18.6953 53.3513 18.2957 56.1154C18.2852 56.1878 18.2746 56.2608 18.264 56.3343C17.9332 58.6183 17.5205 61.4676 17.689 64.3044C14.1782 70.3055 11.8609 77.1977 10.8802 84.8739C10.0977 90.9988 9.35975 97.8204 10.177 104.186C11.0098 110.672 13.493 116.965 19.3262 121.693C25.2728 126.513 34.6569 129.269 44.0323 130.878C53.5744 132.516 63.7908 133.072 71.9608 133.072C80.13 133.072 90.5376 132.516 100.269 130.88C109.818 129.275 119.42 126.525 125.381 121.693C131.25 116.935 133.707 110.389 134.531 103.848C135.346 97.3771 134.611 90.5715 133.822 84.8373C132.626 76.1454 129.436 68.3053 124.603 61.6241C124.51 59.7135 124.239 57.8413 124.006 56.23L123.989 56.1156C123.989 56.1114 123.988 56.1072 123.988 56.103Z" fill="#9E0C00"/>
<path d="M25.4434 72.0216C31.426 76.4898 52.8636 64.5745 62.8346 58.0584V39.9063C56.852 32.9247 49.3738 27.3394 31.426 25.9431C13.4782 24.5468 20.9565 39.9063 22.4521 49.6805C23.398 55.8623 17.9651 66.4363 25.4434 72.0216Z" fill="#FF80AD"/>
<path d="M52.0941 55.115C45.9679 58.9321 33.4303 65.332 32.2892 60.3949C30.8629 54.2235 61.2835 49.3894 52.0941 55.115Z" fill="#FF9DC1"/>
<path d="M52.2228 47.3687C45.0262 46.0227 31.3454 42.2619 34.1947 37.9868C37.7563 32.643 63.0177 49.3877 52.2228 47.3687Z" fill="#FF9DC1"/>
<path d="M116.842 72.0216C110.859 76.4898 89.4215 64.5745 79.4505 58.0584V39.9063C85.4331 32.9247 92.9114 27.3394 110.859 25.9431C128.807 24.5468 121.329 39.9063 119.833 49.6805C118.887 55.8623 124.32 66.4363 116.842 72.0216Z" fill="#FF80AD"/>
<path d="M90.191 55.115C96.3172 58.9321 108.855 65.332 109.996 60.3949C111.422 54.2235 81.0017 49.3894 90.191 55.115Z" fill="#FF9DC1"/>
<path d="M90.0624 47.3687C97.259 46.0227 110.94 42.2619 108.09 37.9868C104.529 32.643 79.2675 49.3877 90.0624 47.3687Z" fill="#FF9DC1"/>
<rect width="23.2604" height="25.1444" rx="2" transform="matrix(1 0 0 -1 59.5117 60.4277)" fill="#FF9DC1"/>
<path d="M130.08 85.3604C131.651 96.7774 132.741 110.846 123.011 118.733C112.717 127.077 88.0143 129.272 71.9589 129.272C55.9035 129.272 31.9859 127.077 21.6922 118.733C11.9622 110.846 13.0526 97.6556 14.6235 85.3604C18.214 57.2573 40.7272 41.4492 71.9589 41.4492C103.191 41.4492 126.455 59.0137 130.08 85.3604Z" fill="#D4331A"/>
<mask id="mask0_1768_3679" style="mask-type:alpha" maskUnits="userSpaceOnUse" x="13" y="41" width="119" height="89">
<path d="M130.08 85.3604C131.651 96.7774 132.741 110.846 123.011 118.733C112.717 127.077 88.0143 129.272 71.9589 129.272C55.9035 129.272 31.9859 127.077 21.6922 118.733C11.9622 110.846 13.0526 97.6556 14.6235 85.3604C18.214 57.2573 40.7272 41.4492 71.9589 41.4492C103.191 41.4492 126.455 59.0137 130.08 85.3604Z" fill="#5B4028"/>
</mask>
<g mask="url(#mask0_1768_3679)">
<path d="M127.165 90.63C128.656 102.047 129.691 116.115 120.457 124.002C110.687 132.346 87.2427 134.541 72.0052 134.541C56.7677 134.541 34.0685 132.346 24.2992 124.002C15.0648 116.115 16.0997 102.925 17.5905 90.63C20.9982 62.5268 42.3645 46.7188 72.0052 46.7188C101.646 46.7188 123.725 64.2832 127.165 90.63Z" fill="#FFEBEC"/>
<ellipse cx="9.90034" cy="10.7059" rx="9.90034" ry="10.7059" transform="matrix(0.927692 -0.373346 0.775465 0.631391 16.6133 96.8965)" fill="#FFA193"/>
<ellipse cx="9.90034" cy="10.7059" rx="9.90034" ry="10.7059" transform="matrix(-0.927692 -0.373346 -0.775465 0.631391 126.875 96.8965)" fill="#FFA193"/>
</g>
<ellipse cx="6.34109" cy="8.53764" rx="6.34109" ry="8.53764" transform="matrix(0.965404 0.260758 -0.255339 0.966852 39.0977 71.4785)" fill="#3F260F"/>
<ellipse cx="6.34109" cy="8.53764" rx="6.34109" ry="8.53764" transform="matrix(-0.965404 0.260758 0.255339 0.966852 105.656 71.4785)" fill="#3F260F"/>
<path fill-rule="evenodd" clip-rule="evenodd" d="M71.5389 45.2227C62.093 45.2224 50.7291 45.1874 46.6956 41.167C41.8925 36.3795 37.8796 28.9999 38.5578 18.4551C38.1057 18.1847 36.7946 17.9684 35.167 19.2662C33.1326 20.8885 32.4544 25.7553 32.4544 26.5665C32.4544 26.8213 32.1196 26.916 31.6394 27.0519C30.5914 27.3484 28.8506 27.8408 28.3855 30.6222C27.843 33.8667 28.1595 35.2186 28.3855 35.489C27.2553 34.9482 24.7235 34.5156 23.6385 37.1113C22.2822 40.3558 26.3511 46.845 35.167 58.2009C41.2704 58.2009 52.5276 69.6061 62.293 84.5311H71.2907H71.7871H80.7848C90.5502 69.6061 101.808 58.2009 107.911 58.2009C116.727 46.845 120.796 40.3558 119.439 37.1113C118.354 34.5156 115.823 34.9482 114.692 35.489C114.918 35.2186 115.235 33.8667 114.692 30.6222C114.227 27.8408 112.486 27.3484 111.438 27.0519C110.958 26.916 110.623 26.8213 110.623 26.5665C110.623 25.7553 109.945 20.8885 107.911 19.2662C106.283 17.9684 104.972 18.1847 104.52 18.4551C105.198 28.9999 101.185 36.3795 96.3823 41.167C92.3488 45.1874 80.9848 45.2224 71.5389 45.2227Z" fill="url(#paint0_linear_1768_3679)"/>
<ellipse cx="65.2086" cy="70.9737" rx="2.68519" ry="3.01278" fill="#FFEBEC"/>
<ellipse cx="3.47961" cy="3.40868" rx="3.47961" ry="3.40868" transform="matrix(-0.314049 0.949407 -0.923158 -0.384421 61.6055 61.543)" fill="#FFEBEC"/>
<ellipse cx="3.6706" cy="3.72546" rx="3.6706" ry="3.72546" transform="matrix(-0.40274 0.915314 -0.874767 -0.484544 53.0352 54.3477)" fill="#FFEBEC"/>
<ellipse cx="4.38127" cy="4.60991" rx="4.38127" ry="4.60991" transform="matrix(-0.549645 0.835398 -0.770134 -0.637882 44.6992 46.3965)" fill="#FFEBEC"/>
<ellipse cx="2.68518" cy="3.01278" rx="2.68518" ry="3.01278" transform="matrix(-1 0 0 1 82.6641 68.291)" fill="#FFEBEC"/>
<ellipse cx="3.47962" cy="3.40867" rx="3.47962" ry="3.40867" transform="matrix(0.314049 0.949407 0.923158 -0.384422 83.582 61.873)" fill="#FFEBEC"/>
<ellipse cx="3.6706" cy="3.72546" rx="3.6706" ry="3.72546" transform="matrix(0.40274 0.915314 0.874767 -0.484544 92.1523 54.6777)" fill="#FFEBEC"/>
<ellipse cx="4.38127" cy="4.60991" rx="4.38127" ry="4.60991" transform="matrix(0.549644 0.835399 0.770134 -0.637882 100.488 46.7266)" fill="#FFEBEC"/>
<path d="M92.8867 101.101C92.8867 112.998 83.7575 120.985 72.4961 120.985C61.2347 120.985 52.1055 112.998 52.1055 101.101C52.1055 89.2038 61.2347 77.9023 72.4961 77.9023C83.7575 77.9023 92.8867 89.2038 92.8867 101.101Z" fill="url(#paint1_linear_1768_3679)"/>
<path d="M90.3454 99.2099C76.0942 105.181 62.3487 102.577 54.673 99.4734C53.8317 99.1332 53.0675 100.355 53.686 101.089C68.5486 118.728 83.6239 109.632 91.2431 100.638C91.8432 99.9301 91.156 98.8703 90.3454 99.2099Z" fill="#583A15"/>
<mask id="mask1_1768_3679" style="mask-type:alpha" maskUnits="userSpaceOnUse" x="53" y="98" width="40" height="14">
<path d="M92.2633 98.3694C76.629 105.747 61.2783 102.426 53.7563 99.0789C53.2672 98.8613 52.7756 99.4699 53.1093 99.8883C69.2885 120.172 85.5897 108.774 92.8856 99.088C93.1974 98.6742 92.7318 98.1483 92.2633 98.3694Z" fill="#583A15"/>
</mask>
<g mask="url(#mask1_1768_3679)">
<ellipse cx="10.7804" cy="8.78177" rx="10.7804" ry="8.78177" transform="matrix(0.999907 -0.0136734 0.0113612 0.999936 61.5938 90.375)" fill="#9A4F01"/>
</g>
<ellipse cx="1.17313" cy="3.06402" rx="1.17313" ry="3.06402" transform="matrix(0.630255 -0.776388 0.664749 0.747067 76.7578 83.0391)" fill="#DAAB07"/>
<ellipse cx="1.17314" cy="3.06402" rx="1.17314" ry="3.06402" transform="matrix(-0.630256 -0.776388 -0.66475 0.747066 68.2266 83.0391)" fill="#DAAB07"/>
<defs>
<linearGradient id="paint0_linear_1768_3679" x1="71.5389" y1="18.25" x2="71.5389" y2="84.5311" gradientUnits="userSpaceOnUse">
<stop offset="0.129713" stop-color="#D4331A"/>
<stop offset="1" stop-color="#AD0000"/>
</linearGradient>
<linearGradient id="paint1_linear_1768_3679" x1="72.4961" y1="77.9023" x2="72.4961" y2="120.985" gradientUnits="userSpaceOnUse">
<stop stop-color="#F9E045"/>
<stop offset="1" stop-color="#DCBD00"/>
</linearGradient>
</defs>
</svg>
