<svg width="145" height="146" viewBox="0 0 145 146" fill="none" xmlns="http://www.w3.org/2000/svg">
<path fill-rule="evenodd" clip-rule="evenodd" d="M72.6664 14.3715C71.2062 12.8204 69.0318 11.4814 65.8638 10.715C54.5856 7.98656 44.8915 13.0106 45.6924 16.4574C45.9617 17.6164 49.3922 18.4293 53.8257 19.0958C51.4507 19.7328 48.9546 20.6938 46.4967 22.0465C43.6419 23.6177 41.912 25.3485 40.9347 27.0337C39.0311 26.2812 36.509 25.9269 33.2164 26.3459C21.4945 27.8374 13.794 34.9368 15.6748 37.399C16.6766 38.7104 25.0252 36.7721 32.7279 34.9839L32.8888 34.9465C30.9755 37.7141 30.2267 40.899 30.5257 44.2705C16.4794 53.0761 7.55078 66.2834 7.55078 81.0476C7.55078 103.811 28.7753 122.873 57.2569 127.808C53.6456 131.946 48.8102 133.472 46.8217 132.971C52.2555 137.016 64.5186 141.64 72.4987 130.125C80.4789 141.64 92.742 137.015 98.1758 132.971C96.1619 133.478 91.2279 131.907 87.6029 127.649C87.591 127.635 87.579 127.621 87.5671 127.607C115.484 122.372 136.156 103.512 136.156 81.0476C136.156 69.1769 130.384 58.3126 120.821 49.9333L120.842 49.8666C122.924 43.3507 120.377 36.3838 114.387 31.9987C121.371 32.9143 128.809 33.8667 129.552 32.5768C130.971 30.1141 123.318 24.2568 112.669 23.984C109.678 23.9073 107.459 24.475 105.836 25.3536C104.781 23.8827 103.047 22.4409 100.324 21.2537C98.0858 20.2778 95.8545 19.6365 93.7481 19.262C96.9757 18.7585 99.2837 18.1097 99.5396 17.18C100.482 13.7565 91.0001 8.47514 79.6158 10.8994C76.418 11.5804 74.1895 12.8604 72.6664 14.3715Z" fill="#E9E2DC"/>
<path fill-rule="evenodd" clip-rule="evenodd" d="M45.695 16.4588C44.8941 13.0119 54.5882 7.98787 65.8664 10.7163C68.8392 11.4355 70.9371 12.6589 72.3908 14.0885C72.4863 14.1824 72.579 14.2772 72.669 14.3728C72.7642 14.2783 72.8622 14.1847 72.9631 14.0921C74.4746 12.704 76.6205 11.5391 79.6184 10.9007C90.6823 8.5447 99.9493 13.4666 99.5972 16.888C99.587 16.9871 99.5688 17.0849 99.5422 17.1813C99.2863 18.1111 96.9783 18.7598 93.7507 19.2633C95.8571 19.6379 98.0884 20.2791 100.327 21.255C100.387 21.2811 100.446 21.3073 100.505 21.3336C103.126 22.5056 104.807 23.9164 105.839 25.3549C107.462 24.4763 109.68 23.9086 112.672 23.9853C123.321 24.2582 130.973 30.1154 129.554 32.5781C129.038 33.4741 125.292 33.2882 120.712 32.7843C118.698 32.5627 116.522 32.2796 114.389 32C116.122 33.2682 117.566 34.7523 118.694 36.379C121.466 40.3771 122.325 45.2365 120.845 49.868L120.823 49.9347C130.386 58.3139 136.158 69.1782 136.158 81.0489C136.158 102.321 117.624 120.361 91.9527 126.661C90.5484 127.005 89.1227 127.315 87.6774 127.588C87.6415 127.595 87.6056 127.601 87.5697 127.608L87.6055 127.65C88.689 128.923 89.8893 129.955 91.0937 130.764C91.6738 131.154 92.2548 131.492 92.8242 131.779C95.0278 132.892 97.0563 133.255 98.1784 132.973C96.7797 134.014 94.9285 135.093 92.8143 135.926C87.5365 138.005 80.6198 138.546 75.0127 133.113C74.1402 132.268 73.2993 131.278 72.5013 130.126C71.7033 131.278 70.8625 132.268 69.9899 133.113C64.3829 138.546 57.4663 138.005 52.1884 135.926C50.0742 135.093 48.223 134.014 46.8243 132.973C47.9463 133.255 49.9749 132.892 52.1785 131.779C52.6429 131.545 53.1151 131.277 53.5882 130.975C54.8485 130.169 56.1154 129.121 57.2595 127.81C55.7391 127.546 54.2394 127.243 52.7626 126.9C26.5725 120.829 7.55339 102.597 7.55339 81.0489C7.55339 66.2848 16.482 53.0774 30.5283 44.2718C30.3765 42.5597 30.4948 40.8957 30.8987 39.31C31.2723 37.8431 31.8903 36.4432 32.7647 35.1343C32.8063 35.0719 32.8485 35.0098 32.8914 34.9479L32.7305 34.9852C31.1579 35.3503 29.5584 35.7216 27.9999 36.0703C21.9251 37.4294 16.4747 38.444 15.6774 37.4003C13.7966 34.9381 21.4971 27.8387 33.219 26.3472C36.5117 25.9282 39.0337 26.2825 40.9373 27.035C41.9146 25.3498 43.6445 23.619 46.4993 22.0478C46.7505 21.9096 47.0021 21.7755 47.2539 21.6453C49.4661 20.5021 51.696 19.6691 53.8283 19.0971C50.9204 18.6599 48.444 18.1598 47.008 17.5404C46.2547 17.2154 45.7877 16.8576 45.695 16.4588ZM43.2615 19.5577C42.7434 19.0288 42.2447 18.2997 42.0182 17.3249L45.6128 16.4781L42.0182 17.3249C41.3524 14.4591 43.0246 12.1853 44.3476 10.9431C45.806 9.57365 47.7937 8.47974 49.9782 7.69223C54.3911 6.10139 60.3828 5.47943 66.7486 7.01944C69.0962 7.58737 71.087 8.44657 72.7449 9.53307C74.4417 8.49234 76.4647 7.68614 78.8371 7.18094C85.2557 5.81411 91.2209 6.59399 95.5764 8.30649C97.7313 9.1538 99.683 10.305 101.095 11.7234C102.384 13.0185 103.963 15.355 103.181 18.1968C103.164 18.259 103.146 18.32 103.127 18.3799C104.568 19.1177 105.805 19.9529 106.845 20.8715C108.578 20.3704 110.55 20.1276 112.768 20.1844C118.724 20.337 123.923 22.0454 127.545 24.1786C129.329 25.2292 130.927 26.4987 132.011 27.9232C132.917 29.1151 134.394 31.7558 132.821 34.486L129.794 32.718L132.821 34.486C132.021 35.8737 130.72 36.3857 130.158 36.5722C129.47 36.8003 128.762 36.8989 128.173 36.9492C126.971 37.0518 125.525 37.0089 124.059 36.9096C123.827 36.8939 123.59 36.8765 123.349 36.8575C125.134 40.487 125.783 44.5644 125.036 48.6489C134.231 57.3865 139.934 68.6223 139.934 81.0489C139.934 103.522 121.566 121.8 96.9559 129.228C97.077 129.247 97.1662 129.256 97.2226 129.261C97.3031 129.269 97.3171 129.271 97.2626 129.284C99.0111 128.844 100.825 129.71 101.594 131.351C102.362 132.992 101.872 134.952 100.423 136.03C97.2825 138.367 92.1543 140.916 86.4703 141.182C81.7341 141.404 76.7503 140.017 72.5013 135.956C68.2523 140.017 63.2686 141.404 58.5324 141.182C52.8484 140.916 47.7201 138.367 44.5798 136.03C43.1305 134.952 42.6402 132.992 43.4091 131.351C44.0094 130.069 45.2466 129.261 46.5924 129.177C22.0535 121.712 3.77734 103.471 3.77734 81.0489C3.77734 65.3079 12.8975 51.5345 26.6987 42.2361C26.7207 41.5548 26.7794 40.8783 26.8756 40.2086C25.2686 40.5536 23.7229 40.8637 22.3247 41.1033C20.6872 41.3839 19.094 41.5967 17.772 41.6286C17.1225 41.6443 16.3673 41.6224 15.6339 41.4731C15.0479 41.3539 13.6655 41.0028 12.6843 39.7183C10.6911 37.1091 11.9254 34.201 12.7716 32.8335C13.7672 31.2247 15.3424 29.7175 17.1526 28.4158C20.83 25.7712 26.2801 23.3978 32.7456 22.5751C35.2548 22.2558 37.4946 22.312 39.4761 22.6842C40.4981 21.5678 41.7554 20.521 43.2615 19.5577Z" fill="#963C05"/>
<path d="M79.6155 10.899C70.5081 12.8384 69.2637 19.6366 69.7799 22.7933C69.833 20.217 98.597 20.603 99.5394 17.1795C100.482 13.7561 90.9999 8.47469 79.6155 10.899Z" fill="#004F29"/>
<path d="M65.8636 10.7144C74.8862 12.8971 75.8499 19.725 75.204 22.8661C75.2571 20.2897 46.493 19.9036 45.6921 16.4568C44.8913 13.01 54.5854 7.98591 65.8636 10.7144Z" fill="#046034"/>
<path d="M96.5529 35.9191C96.0784 45.5694 86.1584 52.9172 74.3959 52.3309C62.6335 51.7445 53.4828 43.4461 53.9572 33.7957C54.319 26.4388 58.3254 20.7222 66.2975 18.5367C67.4858 18.211 70.5221 18.5638 71.7935 18.4166C73.181 18.256 75.8725 17.3719 77.3313 17.4446C89.0937 18.031 97.0274 26.2688 96.5529 35.9191Z" fill="url(#paint0_radial_1769_3830)"/>
<path d="M70.7681 16.9365C73.4708 18.5079 74.7185 17.8965 75.0045 17.3944C79.621 13.8957 87.3878 14.7351 87.0078 18.6919C86.6278 22.6486 80.2193 29.9514 73.8646 29.2645C67.5099 28.5776 59.971 25.364 60.275 22.1987C60.579 19.0333 67.3897 14.9722 70.7681 16.9365Z" fill="#03361E"/>
<path d="M46.4956 22.0462C38.3649 26.5209 39.3595 32.2898 40.8732 34.6149C40.0939 32.5639 67.8713 23.5715 67.674 20.5643C67.4767 17.5572 56.6589 16.4527 46.4956 22.0462Z" fill="#277650"/>
<path d="M33.2148 26.3457C42.5923 25.1525 45.7194 30.231 46.1107 32.9194C45.3314 30.8684 17.5539 39.8609 15.6731 37.3987C13.7923 34.9366 21.4928 27.8372 33.2148 26.3457Z" fill="#308C60"/>
<path d="M69.0185 37.3102C71.2295 45.9157 64.519 55.1068 54.0301 57.839C43.5411 60.5713 33.2458 55.8101 31.0347 47.2047C29.3491 40.6443 31.3107 34.5181 37.7165 30.3982C38.6713 29.7841 41.4336 29.2557 42.51 28.7755C43.6848 28.2514 45.8076 26.732 47.1084 26.3931C57.5973 23.6609 66.8074 28.7047 69.0185 37.3102Z" fill="url(#paint1_radial_1769_3830)"/>
<path d="M39.9363 27.0697C43.0411 27.2995 44.0436 26.7446 44.1567 26.4385C47.4673 23.7743 55.2047 22.6172 56.1146 24.6502C57.0245 26.6833 53.217 31.5909 46.8864 32.5376C40.5557 33.4843 32.2724 33.4217 31.5445 31.7952C30.8166 30.1688 36.0553 26.7824 39.9363 27.0697Z" fill="#066135"/>
<path d="M112.667 23.9847C104.148 23.7664 101.894 28.7748 101.832 31.3063C102.31 29.3295 128.131 35.0403 129.55 32.5776C130.969 30.1149 123.316 24.2576 112.667 23.9847Z" fill="#277650"/>
<path d="M100.321 21.2537C108.077 24.635 107.806 30.0818 106.701 32.3825C107.178 30.4057 81.357 24.6949 81.2109 21.8861C81.0649 19.0773 90.6265 17.0272 100.321 21.2537Z" fill="#308C60"/>
<path d="M120.84 49.8674C118.137 58.3291 107.584 62.4802 97.2703 59.1391C86.9567 55.7981 80.7876 46.2301 83.4913 37.7685C85.5524 31.3177 90.4644 27.1983 98.0653 27.1676C99.1983 27.1631 101.813 28.2045 102.977 28.3785C104.248 28.5685 106.849 28.4281 108.128 28.8424C118.442 32.1835 123.544 41.4058 120.84 49.8674Z" fill="url(#paint2_radial_1769_3830)"/>
<path d="M103.697 25.1353C105.867 26.2128 107.092 26.0646 107.433 25.8558C112.171 24.7101 119.02 26.0309 118.019 27.8971C117.017 29.7632 110.032 32.5348 104.428 31.4541C98.8238 30.3734 92.5752 27.933 93.3765 26.4401C94.1779 24.9472 100.984 23.7885 103.697 25.1353Z" fill="#066135"/>
<ellipse cx="71.8532" cy="81.0478" rx="64.3024" ry="48.0029" fill="#E09D40"/>
<ellipse cx="71.0512" cy="83.37" rx="61.8911" ry="44.1317" fill="url(#paint3_linear_1769_3830)"/>
<path d="M23.4393 51.7681C24.4591 47.7132 38.31 52.1905 45.108 54.9361L29.1752 74.5772C26.8384 68.6638 22.4196 55.8231 23.4393 51.7681Z" fill="#DC7131"/>
<mask id="mask0_1769_3830" style="mask-type:alpha" maskUnits="userSpaceOnUse" x="23" y="50" width="23" height="25">
<path d="M23.4393 51.7681C24.4591 47.7132 38.31 52.1905 45.108 54.9361L29.1752 74.5772C26.8384 68.6638 22.4196 55.8231 23.4393 51.7681Z" fill="#DC7131"/>
</mask>
<g mask="url(#mask0_1769_3830)">
<path d="M26.6257 54.9366C26.9506 53.5534 42.7447 57.9679 49.9139 60.3642L31.7134 71.9163C29.5153 67.8205 25.3511 60.3643 26.6257 54.9366Z" fill="#FFCC52"/>
<g style="mix-blend-mode:multiply" opacity="0.3">
<path d="M24.7148 72.2373C27.0262 64.0494 40.1237 55.1792 46.3835 51.7676L31.2154 78.3782L24.7148 72.2373Z" fill="#9A5A29"/>
</g>
</g>
<path d="M122.544 53.0144C121.913 48.8819 107.699 52.0408 100.671 54.1368L114.67 75.1841C117.557 69.5161 123.174 57.1469 122.544 53.0144Z" fill="#DC7131"/>
<mask id="mask1_1769_3830" style="mask-type:alpha" maskUnits="userSpaceOnUse" x="100" y="50" width="23" height="26">
<path d="M122.544 53.0144C121.913 48.8819 107.699 52.0408 100.671 54.1368L114.67 75.1841C117.557 69.5161 123.174 57.1469 122.544 53.0144Z" fill="#DC7131"/>
</mask>
<g mask="url(#mask1_1769_3830)">
<path d="M119.071 55.8701C118.879 54.4626 102.736 57.3768 95.3718 59.0903L112.396 72.2972C114.972 68.4257 119.825 61.3931 119.071 55.8701Z" fill="#FFCC52"/>
<g style="mix-blend-mode:multiply" opacity="0.3">
<path d="M119.332 73.273C117.807 64.9049 105.61 54.8464 99.7013 50.8632L112.278 78.7772L119.332 73.273Z" fill="#9A5A29"/>
</g>
</g>
<path d="M57.3971 127.648C61.0221 123.39 67.4666 124.86 70.2357 125.367L74.0117 127.648C66.1576 142.248 52.6142 137.28 46.8242 132.971C48.8381 133.478 53.7721 131.907 57.3971 127.648Z" fill="#E9E2DC"/>
<path d="M87.6068 127.648C83.9818 123.39 77.5373 124.86 74.7682 125.367L70.9922 127.648C78.8464 142.248 92.3898 137.28 98.1797 132.971C96.1658 133.478 91.2318 131.907 87.6068 127.648Z" fill="#E9E2DC"/>
<path d="M119.985 68.1571C113.272 40.1293 84.1843 35.8172 51.8262 43.0038L115.854 114.152C120.444 111.277 127.252 98.5028 119.985 68.1571Z" fill="#E2DED9"/>
<path d="M24.976 68.1568C34.5086 35.817 72.4804 37.2543 94.5115 42.2849L27.7299 114.151C23.1401 111.277 16.1636 98.0532 24.976 68.1568Z" fill="#EEEBE8"/>
<path d="M35.4945 62.5417C45.7126 49.2004 64.9696 46.5824 73.3209 46.941C96.9009 46.941 105.436 56.3486 109.115 62.0116C123.656 84.3905 121.463 103.426 118.516 109.882C115.241 116.875 101.661 128.71 73.3209 128.71C38.442 128.71 27.1433 117.413 24.1957 109.882C21.2482 102.35 22.722 79.2182 35.4945 62.5417Z" fill="url(#paint4_linear_1769_3830)"/>
<mask id="mask2_1769_3830" style="mask-type:alpha" maskUnits="userSpaceOnUse" x="22" y="46" width="99" height="83">
<path d="M35.4945 62.5417C45.7126 49.2004 64.9696 46.5824 73.3209 46.941C96.9009 46.941 105.436 56.3486 109.115 62.0116C123.656 84.3905 121.463 103.426 118.516 109.882C115.241 116.875 101.661 128.71 73.3209 128.71C38.442 128.71 27.1433 117.413 24.1957 109.882C21.2482 102.35 22.722 79.2182 35.4945 62.5417Z" fill="url(#paint5_linear_1769_3830)"/>
</mask>
<g mask="url(#mask2_1769_3830)">
<rect x="62.8398" y="42.75" width="16.5233" height="33.2745" rx="3" fill="url(#paint6_linear_1769_3830)"/>
<path d="M82.1172 45.75C82.1172 44.0931 83.4603 42.75 85.1172 42.75H89.7168C91.2028 42.75 92.4649 43.8379 92.684 45.3076L96.7503 72.5821C97.0206 74.3951 95.6161 76.0245 93.7831 76.0245H85.1172C83.4603 76.0245 82.1172 74.6813 82.1172 73.0245V45.75Z" fill="url(#paint7_linear_1769_3830)"/>
<path d="M49.5209 45.3076C49.74 43.8379 51.0021 42.75 52.4881 42.75H57.0877C58.7446 42.75 60.0877 44.0931 60.0877 45.75V73.0245C60.0877 74.6813 58.7446 76.0245 57.0877 76.0245H48.4218C46.5888 76.0245 45.1843 74.3951 45.4546 72.5821L49.5209 45.3076Z" fill="url(#paint8_linear_1769_3830)"/>
<ellipse cx="25.9905" cy="109.703" rx="19.1194" ry="19.0076" fill="#EB553E"/>
<ellipse cx="117.764" cy="109.703" rx="19.1194" ry="19.0076" fill="#EB553E"/>
</g>
<path opacity="0.6" d="M57.3359 93.3538C62.7305 89.3362 76.3415 83.7116 87.6286 93.3538C83.2023 87.0763 70.9469 78.288 57.3359 93.3538Z" fill="url(#paint9_linear_1769_3830)"/>
<rect width="9.33993" height="17.8503" rx="4" transform="matrix(0.996193 -0.0871794 0.0605951 0.998162 86.8789 82.3848)" fill="#341F0C"/>
<rect width="9.33993" height="17.8503" rx="4" transform="matrix(-0.996193 -0.0871794 -0.0605951 0.998162 58.082 82.3848)" fill="#341F0C"/>
<path d="M56.3846 93.7388C60.9153 88.0857 69.4539 86.9764 73.1569 87.1283C83.6123 87.1283 87.3966 91.1146 89.0281 93.5142C95.4757 102.997 94.5033 111.063 93.1964 113.798C91.7443 116.761 85.7227 121.776 73.1569 121.776C57.6915 121.776 52.6816 116.989 51.3747 113.798C50.0678 110.607 50.7213 100.805 56.3846 93.7388Z" fill="#FFCC52"/>
<path d="M62.5861 114.074C69.5318 114.074 70.6965 104.196 70.3749 97.8938C70.3228 96.8725 69.4462 96.0797 68.4632 96.3618C60.7717 98.5692 53.7047 114.074 62.5861 114.074Z" fill="#604401"/>
<path d="M82.535 114.074C75.5893 114.074 74.4246 104.196 74.7462 97.8938C74.7983 96.8725 75.6749 96.0797 76.6579 96.3618C84.3494 98.5692 91.4164 114.074 82.535 114.074Z" fill="#604401"/>
<path d="M82.7266 132.311C75.0003 132.311 77.9792 121.684 81.3092 114.38C81.8702 113.149 83.583 113.149 84.144 114.38C87.474 121.684 90.4528 132.311 82.7266 132.311Z" fill="url(#paint10_radial_1769_3830)"/>
<path d="M84.3133 126.262C84.3133 127.991 83.5158 127.703 81.9208 128.423C81.1233 128.663 79.8474 129.431 81.1233 130.583C82.7183 132.023 85.1107 131.303 85.9082 129.863C86.7057 128.423 86.7057 121.941 85.1107 121.941C83.5158 121.941 84.3133 124.102 84.3133 126.262Z" fill="white" fill-opacity="0.6"/>
<defs>
<radialGradient id="paint0_radial_1769_3830" cx="0" cy="0" r="1" gradientUnits="userSpaceOnUse" gradientTransform="translate(81.8503 24.7859) rotate(105.143) scale(28.5358 57.4118)">
<stop stop-color="#E9E9BA"/>
<stop offset="1" stop-color="#957E5A"/>
</radialGradient>
<radialGradient id="paint1_radial_1769_3830" cx="0" cy="0" r="1" gradientUnits="userSpaceOnUse" gradientTransform="translate(53.0758 31.5924) rotate(87.9178) scale(26.264 52.7922)">
<stop stop-color="#FFFFE0"/>
<stop offset="1" stop-color="#D0BA98"/>
</radialGradient>
<radialGradient id="paint2_radial_1769_3830" cx="0" cy="0" r="1" gradientUnits="userSpaceOnUse" gradientTransform="translate(110.408 36.4494) rotate(120.072) scale(26.2187 52.8834)">
<stop stop-color="#FFFFE0"/>
<stop offset="1" stop-color="#D0BA98"/>
</radialGradient>
<linearGradient id="paint3_linear_1769_3830" x1="71.0512" y1="39.2383" x2="71.0512" y2="127.502" gradientUnits="userSpaceOnUse">
<stop offset="0.442232" stop-color="#C68730"/>
<stop offset="1" stop-color="#A25E00"/>
</linearGradient>
<linearGradient id="paint4_linear_1769_3830" x1="72.3755" y1="46.9748" x2="71.7209" y2="128.709" gradientUnits="userSpaceOnUse">
<stop stop-color="#F69F44"/>
<stop offset="1" stop-color="#DA6E30"/>
</linearGradient>
<linearGradient id="paint5_linear_1769_3830" x1="72.3755" y1="46.9748" x2="71.7209" y2="128.709" gradientUnits="userSpaceOnUse">
<stop stop-color="#F69F44"/>
<stop offset="1" stop-color="#DA6E30"/>
</linearGradient>
<linearGradient id="paint6_linear_1769_3830" x1="71.1015" y1="42.75" x2="71.1015" y2="76.0245" gradientUnits="userSpaceOnUse">
<stop stop-color="#4E2219"/>
<stop offset="1" stop-color="#9A4F01"/>
</linearGradient>
<linearGradient id="paint7_linear_1769_3830" x1="89.6904" y1="42.75" x2="89.6904" y2="76.0245" gradientUnits="userSpaceOnUse">
<stop stop-color="#4E2219"/>
<stop offset="1" stop-color="#9A4F01"/>
</linearGradient>
<linearGradient id="paint8_linear_1769_3830" x1="52.5146" y1="42.75" x2="52.5146" y2="76.0245" gradientUnits="userSpaceOnUse">
<stop stop-color="#4E2219"/>
<stop offset="1" stop-color="#9A4F01"/>
</linearGradient>
<linearGradient id="paint9_linear_1769_3830" x1="72.4823" y1="85.0352" x2="72.4823" y2="93.3538" gradientUnits="userSpaceOnUse">
<stop stop-color="#DCD8D4"/>
<stop offset="0.0001" stop-color="#DE6801"/>
<stop offset="0.791211" stop-color="#DE6801" stop-opacity="0"/>
</linearGradient>
<radialGradient id="paint10_radial_1769_3830" cx="0" cy="0" r="1" gradientUnits="userSpaceOnUse" gradientTransform="translate(83.7016 126.026) rotate(98.8188) scale(6.3597 11.1402)">
<stop stop-color="#D0EBFF"/>
<stop offset="1" stop-color="#93CCF5"/>
</radialGradient>
</defs>
</svg>
