<svg width="145" height="146" viewBox="0 0 145 146" fill="none" xmlns="http://www.w3.org/2000/svg">
<path fill-rule="evenodd" clip-rule="evenodd" d="M75.0618 7.06031C75.9795 6.73435 76.9867 6.7777 77.8734 7.1813L125.242 28.7422C126.204 29.1798 126.94 30.0027 127.272 31.0113L139.522 68.2528C139.801 69.1007 139.775 70.0205 139.447 70.8508L133.947 84.8051L131.946 114.008C131.894 114.769 131.615 115.497 131.147 116.097L117.671 133.346C117.226 133.916 116.627 134.346 115.947 134.585L99.2044 140.465C98.8046 140.605 98.3842 140.677 97.9607 140.677H42.0163C41.2857 140.677 40.5708 140.464 39.9583 140.063L31.2402 134.356L9.07156 124.683C7.54661 124.018 6.63306 122.426 6.82131 120.764L8.82835 103.038L6.80146 61.0083C6.76071 60.1635 7.00092 59.3291 7.48408 58.6371L32.3937 22.9637C32.8453 22.3169 33.4859 21.8279 34.2264 21.5649L75.0618 7.06031ZM12.6148 103.162L10.5731 121.194L33.0325 130.995L42.0163 136.875H97.9607L114.703 130.995L128.179 113.746L130.221 83.9528L135.938 69.4482L123.687 32.2067L76.318 10.6458L35.4826 25.1504L10.5731 60.8239L12.6148 103.162Z" fill="#241E88"/>
<path d="M35.4838 25.1511L76.3192 10.6465L123.688 32.2074L135.939 69.4489L130.222 83.9535L128.18 113.747L114.704 130.995L97.9619 136.876H42.0175L33.0337 130.995L10.5742 121.195L12.616 103.162L10.5742 60.8245L35.4838 25.1511Z" fill="#6862CC"/>
<mask id="mask0_1768_3525" style="mask-type:alpha" maskUnits="userSpaceOnUse" x="10" y="10" width="126" height="127">
<path d="M35.4838 25.1511L76.3192 10.6465L123.688 32.2074L135.939 69.4489L130.222 83.9535L128.18 113.747L114.704 130.995L97.9619 136.876H42.0175L33.0337 130.995L10.5742 121.195L12.616 103.162L10.5742 60.8245L35.4838 25.1511Z" fill="#6862CC"/>
</mask>
<g mask="url(#mask0_1768_3525)">
<path d="M18.4092 64.6878L10.9657 60.7431L0.779785 78.4941L-2.74609 124.252L16.4504 148.709L86.9679 173.166L138.681 136.086L152.001 64.6878L123.402 30.7637V80.4664L115.567 101.768L102.639 108.079L88.9268 104.529L48.9668 117.546L22.7186 104.529L18.4092 64.6878Z" fill="#3D37A6"/>
<path d="M75.9974 21.2977L127.319 45.3602V21.2977L77.9562 -9.07617L23.1092 10.6471L7.04688 59.1665L18.7998 65.0835L41.1304 31.1594L75.9974 21.2977Z" fill="#A09AFF"/>
</g>
<path d="M75.9847 118.085L79.1613 112.865C79.5723 112.19 80.579 112.302 80.8323 113.052L82.9373 119.285C83.0221 119.536 83.209 119.74 83.4513 119.844L88.3176 121.939C89.0366 122.249 89.0769 123.26 88.3849 123.626L82.0979 126.957C81.9637 127.028 81.8489 127.132 81.7634 127.258L78.0879 132.679C77.6449 133.333 76.6463 133.171 76.4286 132.411L74.6263 126.118C74.5818 125.962 74.498 125.821 74.383 125.708L69.1235 120.534C68.5509 119.971 68.9072 118.991 69.7057 118.933L75.2596 118.529C75.5583 118.508 75.8282 118.342 75.9847 118.085Z" fill="#B19E77"/>
<path fill-rule="evenodd" clip-rule="evenodd" d="M103.549 45.9156C108.397 53.1651 110.057 61.7677 108.991 70.5709C108.137 77.6262 105.292 85.5803 98.1202 91.1005C91.2607 96.3804 83.7265 96.8519 79.1881 96.6251C77.1922 96.5253 75.2417 96.2561 73.5039 95.9419C72.2726 99.5579 69.9537 102.837 66.6356 105.238C58.1323 111.388 46.2869 109.434 40.1782 100.872C32.6399 90.3059 28.9465 78.0179 30.5225 65.8264C32.1152 53.5056 38.9429 42.8396 49.37 36.1299C59.8737 29.3709 74.3033 28.3008 85.9243 32.4544C92.2001 34.6975 98.8451 38.8819 103.549 45.9156Z" fill="#FAEFD9"/>
<mask id="mask1_1768_3525" style="mask-type:alpha" maskUnits="userSpaceOnUse" x="30" y="30" width="80" height="79">
<path fill-rule="evenodd" clip-rule="evenodd" d="M103.549 45.9156C108.397 53.1651 110.057 61.7677 108.991 70.5709C108.137 77.6262 105.292 85.5803 98.1202 91.1005C91.2607 96.3804 83.7265 96.8519 79.1881 96.6251C77.1922 96.5253 75.2417 96.2561 73.5039 95.9419C72.2726 99.5579 69.9537 102.837 66.6356 105.238C58.1323 111.388 46.2869 109.434 40.1782 100.872C32.6399 90.3059 28.9465 78.0179 30.5225 65.8264C32.1152 53.5056 38.9429 42.8396 49.37 36.1299C59.8737 29.3709 74.3033 28.3008 85.9243 32.4544C92.2001 34.6975 98.8451 38.8819 103.549 45.9156Z" fill="#FAEFD9"/>
</mask>
<g mask="url(#mask1_1768_3525)">
<path fill-rule="evenodd" clip-rule="evenodd" d="M74.9423 52.7676C71.7394 52.7296 68.8503 53.7915 67.1892 55.1106L67.1892 55.1106C60.7291 60.2409 59.4661 66.155 60.3886 71.5667C61.336 77.1246 64.6236 82.2374 67.4024 85.2984C68.0699 86.0337 68.0144 87.1703 67.2784 87.8372C66.5424 88.5041 65.4047 88.4487 64.7372 87.7134C61.6692 84.3338 57.9405 78.6173 56.8416 72.1702C55.7177 65.5768 57.3781 58.3101 64.9504 52.2966C67.3371 50.4011 71.0594 49.1265 74.9851 49.1731C78.963 49.2204 83.2766 50.6271 86.7173 54.2669C88.9417 56.62 89.8566 59.2929 89.6776 61.8404C89.5011 64.354 88.2695 66.5977 86.4742 68.15C84.6755 69.7051 82.2598 70.6095 79.678 70.3709C77.0719 70.1302 74.486 68.7446 72.3174 66.0682C71.6922 65.2966 71.8115 64.1648 72.5837 63.5403C73.356 62.9157 74.4888 63.0348 75.114 63.8064C76.7682 65.848 78.5112 66.6531 80.0092 66.7914C81.5314 66.9321 82.9949 66.4041 84.1197 65.4317C85.2478 64.4564 85.9839 63.0772 86.0884 61.5888C86.1906 60.1344 85.6999 58.4261 84.1014 56.7351C81.4254 53.9043 78.0931 52.8051 74.9423 52.7676Z" fill="#B29E77"/>
<path d="M74.533 96.4159C66.4972 91.8944 60.7887 84.4856 58.419 77.3274C57.9191 76.2779 60.048 72.1389 60.7887 73.0325C65.5281 81.1451 72.9198 88.3033 83.064 88.3033C95.1295 88.3033 103.896 78.9105 108.205 71.4975C108.713 70.6222 110.072 70.9416 109.973 71.951C108.193 90.1683 89.5185 104.848 74.533 96.4159Z" fill="#B29E77"/>
<path d="M52.2572 102.142C43.5366 100.615 34.4053 88.4618 30.9297 82.5762C30.9297 101.187 38.9867 112.163 56.9966 113.118C71.4045 113.881 74.3745 100.71 74.0586 94.0293C70.425 97.3697 60.9777 103.669 52.2572 102.142Z" fill="#B29E77"/>
<path d="M38.0388 70.1692C30.4557 73.6052 28.8759 65.5562 29.0338 61.1022C39.4606 26.7429 75.0064 21.4936 87.3289 27.6974C99.6515 33.9011 93.9641 42.0137 89.2247 44.877C84.4853 47.7403 77.8501 37.2416 62.6839 42.0137C45.1479 47.5314 47.5176 65.8743 38.0388 70.1692Z" fill="#FFFBF3"/>
<path d="M96.8078 49.1719C97.187 45.3542 101.389 43.7635 103.443 43.4454C108.182 47.5812 116.05 56.9028 109.604 61.1022C101.547 66.3515 96.3339 53.9441 96.8078 49.1719Z" fill="#FFFBF3"/>
<path fill-rule="evenodd" clip-rule="evenodd" d="M68.7453 73.5982C70.3325 71.5024 73.3064 71.0989 75.3879 72.697C75.4013 72.7073 75.4149 72.7178 75.4286 72.7283C77.1386 74.0415 80.5532 76.664 86.1965 74.4573C88.6365 73.5032 91.3826 74.7213 92.3302 77.1781C93.2778 79.6349 92.068 82.4 89.628 83.3542C79.0316 87.4978 71.8745 82.0021 69.6682 80.308C69.6589 80.3008 69.6496 80.2937 69.6404 80.2866C67.559 78.6885 67.1582 75.6941 68.7453 73.5982Z" fill="#FFFBF3"/>
</g>
<path d="M97.2385 107.076L89.5685 111.581C88.9981 111.916 89.0699 112.768 89.6882 113.001L97.1043 115.802C97.376 115.904 97.5691 116.15 97.6063 116.439L98.8961 126.505C98.9816 127.172 99.8036 127.432 100.253 126.934L106.675 119.822C106.846 119.632 107.099 119.538 107.352 119.569L115.186 120.555C115.74 120.625 116.187 120.105 116.038 119.563L113.285 109.512C113.24 109.35 113.248 109.178 113.308 109.021L115.877 102.23C116.09 101.668 115.625 101.083 115.034 101.168L108.41 102.121C108.225 102.147 108.037 102.107 107.879 102.005L100.477 97.2627C100.011 96.9637 99.3915 97.2324 99.2871 97.7793L97.6131 106.544C97.5704 106.767 97.4338 106.962 97.2385 107.076Z" fill="#FAEFD9"/>
<path d="M97.2385 107.076L89.5685 111.581C88.9981 111.916 89.0699 112.768 89.6882 113.001L97.1043 115.802C97.376 115.904 97.5691 116.15 97.6063 116.439L98.8961 126.504C98.9816 127.171 99.8036 127.432 100.253 126.934L106.675 119.821C106.846 119.632 107.099 119.537 107.352 119.569L115.186 120.555C115.74 120.625 116.187 120.105 116.038 119.563L113.285 109.512C113.24 109.35 113.248 109.178 113.308 109.021L115.877 102.23C115.999 101.909 115.899 101.58 115.681 101.373L115.567 101.768L102.639 108.079L97.5459 106.745C97.4785 106.882 97.3723 106.998 97.2385 107.076Z" fill="#B19E77"/>
<path fill-rule="evenodd" clip-rule="evenodd" d="M103.113 108.274C102.708 107.357 103.12 106.187 104.033 105.66L107.889 103.438C108.802 102.912 109.871 103.229 110.277 104.147C110.682 105.064 110.27 106.234 109.357 106.76L105.501 108.982C104.588 109.508 103.519 109.191 103.113 108.274Z" fill="#FFFBF3"/>
</svg>
