<svg width="145" height="146" viewBox="0 0 145 146" fill="none" xmlns="http://www.w3.org/2000/svg">
<path fill-rule="evenodd" clip-rule="evenodd" d="M16.0678 40.8823C21.4543 41.2034 27.0627 39.7921 32.2422 38.0758C32.2425 37.5847 32.2138 37.1156 32.1461 36.6733C31.9229 35.2141 31.5403 33.6063 31.1476 31.9558C29.3384 24.3522 27.314 15.844 39.6576 16.8043C50.0796 17.6151 56.284 20.1134 60.7788 23.5188C61.8166 24.3051 62.7632 25.1397 63.6496 26.013C63.8701 25.6701 64.1573 25.3748 64.4927 25.1455C64.9759 24.8153 65.5591 24.6223 66.1871 24.6223H79.6152C80.2432 24.6223 80.8264 24.8153 81.3096 25.1455C81.645 25.3747 81.9323 25.6701 82.1528 26.0131C83.0392 25.1397 83.9858 24.3051 85.0236 23.5188C89.5183 20.1134 95.7227 17.6151 106.145 16.8043C118.488 15.844 116.464 24.3522 114.655 31.9558C114.262 33.6063 113.879 35.2141 113.656 36.6733C113.592 37.0897 113.563 37.5299 113.56 37.9898C118.811 39.7446 124.517 41.2087 129.993 40.8823C131.712 40.7799 133.409 40.5009 135.062 39.9991L127.601 51.588L139.457 59.4635C137.87 59.8527 136.114 60.2205 134.227 60.5445C130.168 61.2418 125.508 61.7366 120.658 61.8068V61.9796C120.658 62.8195 119.982 63.5004 119.147 63.5004H117.755V126.23C117.755 127.91 116.402 129.271 114.734 129.271H32.2298C30.5614 129.271 29.2089 127.91 29.2089 126.23V63.5004H27.8162C26.982 63.5004 26.3058 62.8195 26.3058 61.9796V61.8149C21.1318 61.7971 16.1446 61.2849 11.834 60.5445C9.94747 60.2205 8.19053 59.8527 6.60431 59.4635L18.4604 51.588L10.9991 39.9991C12.652 40.5009 14.3486 40.7799 16.0678 40.8823ZM13.2542 50.4913L7.8306 42.0673C6.96884 40.7288 7.02849 38.991 7.97997 37.7156C8.93146 36.4402 10.5724 35.8984 12.0892 36.3589C16.8771 37.8126 22.365 37.0415 28.0645 35.3968C27.8954 34.6095 27.6944 33.7616 27.4755 32.8416L27.4543 32.7526C27.0163 30.9121 26.5139 28.8006 26.2369 26.7603C25.9596 24.7171 25.8489 22.3695 26.4554 20.157C27.1086 17.774 28.5796 15.6339 31.147 14.3121C33.5378 13.0812 36.5204 12.7468 39.9485 13.0135C51.6576 13.9245 58.7224 16.9165 63.9586 21.1971C64.6564 20.9532 65.4062 20.8203 66.1871 20.8203H79.6152C80.3961 20.8203 81.1459 20.9532 81.8437 21.1971C87.08 16.9165 94.1447 13.9245 105.854 13.0135C109.282 12.7468 112.265 13.0812 114.655 14.3121C117.223 15.6339 118.694 17.774 119.347 20.157C119.954 22.3695 119.843 24.7171 119.565 26.7603C119.289 28.8006 118.786 30.9121 118.348 32.7526L118.327 32.8416C118.115 33.7341 117.919 34.5587 117.753 35.3259C123.535 37.0174 129.112 37.8345 133.972 36.3589C135.489 35.8984 137.13 36.4402 138.081 37.7156C139.033 38.991 139.092 40.7288 138.23 42.0673L132.807 50.4913L141.536 56.2899C142.79 57.1227 143.434 58.6245 143.177 60.1146C142.92 61.6046 141.81 62.7995 140.351 63.1575C135.656 64.3093 129.591 65.2729 123.075 65.5423C122.64 66.0286 122.117 66.4337 121.531 66.7321V126.23C121.531 130.01 118.488 133.074 114.734 133.074H32.2298C28.476 133.074 25.4329 130.01 25.4329 126.23V66.7321C24.8607 66.4406 24.3482 66.0474 23.9189 65.576C17.0474 65.3641 10.6256 64.3635 5.71036 63.1575C4.25104 62.7995 3.14123 61.6046 2.88403 60.1146C2.62684 58.6245 3.27117 57.1227 4.52493 56.2899L13.2542 50.4913Z" fill="#483C3C"/>
<path d="M34.6494 55.3724C39.6571 59.1125 57.6011 49.139 65.9472 43.6848V28.4909C60.9395 22.647 54.68 17.972 39.6571 16.8032C24.6341 15.6344 30.8937 28.4909 32.1456 36.6722C32.9374 41.8466 28.3899 50.6974 34.6494 55.3724Z" fill="#D10E0E"/>
<path d="M111.151 55.3724C106.144 59.1125 88.1997 49.139 79.8536 43.6848V28.4909C84.8613 22.647 91.1208 17.972 106.144 16.8032C121.167 15.6344 114.907 28.4909 113.655 36.6722C112.863 41.8466 117.411 50.6974 111.151 55.3724Z" fill="#D10E0E"/>
<path d="M49.2583 32.9661C55.3189 33.0849 62.3884 37.6698 65.1656 39.9474C57.7077 65.2235 23.0169 63.4886 6.60375 59.4616L18.4598 51.5861L10.9985 39.9972C24.8121 44.1911 41.6825 32.8176 49.2583 32.9661Z" fill="#9E0101"/>
<path d="M96.8003 32.9661C90.7397 33.0849 83.6702 37.6698 80.893 39.9474C88.3509 65.2235 123.042 63.4886 139.455 59.4616L127.599 51.5861L135.06 39.9972C121.246 44.1911 104.376 32.8176 96.8003 32.9661Z" fill="#9E0101"/>
<rect width="19.4698" height="21.0468" rx="2" transform="matrix(1 0 0 -1 63.1641 45.668)" fill="#AB0000"/>
<path fill-rule="evenodd" clip-rule="evenodd" d="M27.3047 43.0371C26.7524 43.0371 26.3047 43.4848 26.3047 44.0371V62.4992C26.3047 63.0515 26.7524 63.4992 27.3047 63.4992H29.2078V127.27C29.2078 128.375 30.1033 129.27 31.2078 129.27H115.754C116.858 129.27 117.754 128.375 117.754 127.27V63.4992H119.657C120.209 63.4992 120.657 63.0515 120.657 62.4992V44.0371C120.657 43.4848 120.209 43.0371 119.657 43.0371H27.3047Z" fill="#F8F5EA"/>
<rect x="29.207" y="63.5" width="88.5457" height="7.30789" fill="#E0DBCB"/>
<rect x="52.4336" y="43.0371" width="42.0955" height="20.4621" fill="#D10E0E"/>
<rect x="52.4336" y="63.5" width="42.0955" height="7.30791" fill="#AF0000"/>
<rect x="52.4336" y="70.8066" width="42.0955" height="58.4632" fill="#D10E0E"/>
</svg>
