<svg width="146" height="146" viewBox="0 0 146 146" fill="none" xmlns="http://www.w3.org/2000/svg">
<path fill-rule="evenodd" clip-rule="evenodd" d="M89.3272 23.6163C87.5242 20.203 84.5686 16.061 80.485 12.5816C75.4155 8.26208 68.4368 4.83552 59.7392 5.37912C49.2546 6.03441 41.9771 10.917 38.7353 18.2342C35.5789 25.3585 36.6309 33.9474 40.8754 41.457C41.3808 42.3512 41.951 43.1663 42.575 43.9079C40.1846 44.9662 37.9273 46.332 35.9635 48.0891C31.4349 52.141 28.818 58.0802 27.3005 63.8291C21.6784 69.3263 15.5068 76.5999 11.1443 84.6674C6.59904 93.0729 3.77124 102.812 6.22801 112.416C8.05668 119.565 11.2682 124.345 15.7106 126.79C19.0926 128.652 22.6967 128.888 26.0035 128.331C29.2313 132.936 34.4323 136.424 42.1204 138.007C62.1809 142.137 68.8879 142.179 74.43 142.179C79.2886 142.278 86.7319 141.976 93.7063 141.283C97.2091 140.935 100.654 140.483 103.633 139.92C106.514 139.374 109.297 138.666 111.261 137.684C114.808 135.91 118.241 133.237 120.439 128.521C123.506 128.8 126.758 128.327 129.792 126.489C133.974 123.956 136.999 119.275 138.754 112.416C141.224 102.761 138.352 92.9677 133.762 84.529C129.356 76.4274 123.133 69.1325 117.49 63.6433C115.967 57.9563 113.359 52.099 108.877 48.0891C107.219 46.6061 105.357 45.4055 103.392 44.4349C104.377 40.6056 104.373 36.3187 102.728 32.5222C100.601 27.6148 96.0645 24.263 89.3272 23.6163ZM102.114 48.0491C101.004 47.4746 99.8319 46.978 98.6181 46.5508C99.0904 45.5342 99.4726 44.4514 99.749 43.3375C101.57 35.9968 98.7942 27.3042 86.8797 27.3042C84.1503 20.8709 74.9486 8.23803 59.9764 9.1738C41.2611 10.3435 36.5823 26.1346 44.1854 39.5862C44.8132 40.6969 45.5751 41.6552 46.4463 42.4772C47.7229 43.6818 49.2341 44.5939 50.9012 45.2644C49.1092 45.6368 47.3524 46.1233 45.6824 46.7464C42.9897 47.7512 40.5228 49.1115 38.4987 50.9226C34.5248 54.4782 32.1169 60.0361 30.7213 65.8096C19.4248 76.6239 5.66756 94.884 9.91148 111.474C13.2653 124.584 20.9402 126.154 27.8226 123.985C30.2192 128.719 34.7815 132.614 42.8871 134.283C62.7721 138.377 69.2055 138.377 74.4692 138.377C83.8268 138.572 103.712 137.207 109.56 134.283C113.137 132.495 116.381 129.774 117.994 124.229C124.652 126.009 131.851 124.056 135.07 111.474C139.337 94.7939 125.407 76.4254 114.076 65.634C112.674 59.9235 110.275 54.4421 106.342 50.9226C105.086 49.7988 103.659 48.8486 102.114 48.0491Z" fill="#C18F00"/>
<path d="M59.9777 9.17424C74.9499 8.23848 84.1516 20.8713 86.8809 27.3047C106.181 27.3047 101.502 50.114 92.1446 53.0383C84.6585 55.3777 79.2779 47.7746 77.5233 43.6806C68.9454 46.7998 50.2691 50.3479 44.1867 39.5866C36.5836 26.135 41.2624 10.344 59.9777 9.17424Z" fill="url(#paint0_linear_1768_3591)"/>
<mask id="mask0_1768_3591" style="mask-type:alpha" maskUnits="userSpaceOnUse" x="40" y="9" width="61" height="45">
<path d="M59.9777 9.17424C74.9499 8.23848 84.1516 20.8713 86.8809 27.3047C106.181 27.3047 101.502 50.114 92.1446 53.0383C84.6585 55.3777 79.2779 47.7746 77.5233 43.6806C68.9454 46.7998 50.2691 50.3479 44.1867 39.5866C36.5836 26.135 41.2624 10.344 59.9777 9.17424Z" fill="#F8BE1A"/>
</mask>
<g mask="url(#mask0_1768_3591)">
<path d="M48.5889 38.128C47.0125 40.2524 42.6775 39.0132 40.707 38.128C44.2101 42.7752 55.5511 52.7334 72.8911 55.389C94.5661 58.7084 105.075 46.7585 103.762 42.1113C102.448 37.4641 97.8502 41.4474 93.2525 42.1113C88.6548 42.7752 91.282 36.8002 86.0275 31.4891C80.7729 26.1781 78.8025 32.8169 72.8911 34.8086C66.9798 36.8002 65.6661 28.1697 56.4707 26.8419C47.2752 25.5142 50.5593 35.4724 48.5889 38.128Z" fill="#F6E75A"/>
</g>
<ellipse cx="72.8748" cy="45.9703" rx="16.9607" ry="7.60309" fill="#FE425B"/>
<path d="M37.4009 118.493C30.3827 124.537 15.0595 131.594 9.91282 111.475C4.77211 91.3794 26.0441 68.8332 37.3614 60.0385L37.4009 118.493Z" fill="#F8BE1A"/>
<mask id="mask1_1768_3591" style="mask-type:alpha" maskUnits="userSpaceOnUse" x="9" y="60" width="29" height="65">
<path d="M37.4009 118.493C30.3827 124.537 15.0595 131.594 9.91282 111.475C4.77211 91.3794 26.0441 68.8332 37.3614 60.0385L37.4009 118.493Z" fill="#F8BE1A"/>
</mask>
<g mask="url(#mask1_1768_3591)">
<g style="mix-blend-mode:multiply">
<path d="M26.8724 86.9108C25.0009 84.5714 27.6522 72.2895 29.2118 66.441L35.6452 64.1016L37.3998 120.832C35.2553 124.926 28.8609 131.711 20.439 126.096C9.91165 119.078 29.2118 89.8351 26.8724 86.9108Z" fill="#F9E8B9"/>
</g>
</g>
<path d="M107.583 118.493C114.602 124.537 129.925 131.594 135.072 111.475C140.212 91.3794 118.94 68.8332 107.623 60.0385L107.583 118.493Z" fill="#F8BE1A"/>
<mask id="mask2_1768_3591" style="mask-type:alpha" maskUnits="userSpaceOnUse" x="107" y="60" width="29" height="65">
<path d="M107.583 118.493C114.602 124.537 129.925 131.594 135.072 111.475C140.212 91.3794 118.94 68.8332 107.623 60.0385L107.583 118.493Z" fill="#F8BE1A"/>
</mask>
<g mask="url(#mask2_1768_3591)">
<g style="mix-blend-mode:multiply">
<path d="M118.112 86.9108C119.983 84.5714 117.332 72.2895 115.773 66.441L109.339 64.1016L107.585 120.832C109.729 124.926 116.123 131.711 124.545 126.096C135.073 119.078 115.773 89.8351 118.112 86.9108Z" fill="#F9E8B9"/>
</g>
</g>
<path d="M35.8693 63.5167L74.4696 48.3105L111.315 63.5167C111.315 71.0028 114.398 85.3512 115.567 92.7594C123.17 122.587 117.105 130.512 109.561 134.284C103.712 137.208 83.8273 138.573 74.4696 138.378C69.206 138.378 62.7725 138.378 42.8876 134.284C16.481 128.847 27.6814 99.7776 28.8511 95.0988C29.7868 91.3557 33.9198 72.4845 35.8693 63.5167Z" fill="url(#paint1_linear_1768_3591)"/>
<ellipse cx="41.878" cy="102.701" rx="4.67883" ry="2.33942" fill="#E6AE11"/>
<ellipse cx="102.702" cy="102.701" rx="4.67882" ry="2.33941" fill="#E6AE11"/>
<path fill-rule="evenodd" clip-rule="evenodd" d="M72.8739 96.8535C82.7617 96.8535 91.012 101.066 92.9254 106.666C99.8066 107.709 105.041 112.974 105.041 119.312C105.041 126.4 98.4947 132.145 90.4195 132.145C88.2678 132.145 86.2246 131.737 84.3849 131.005C81.7083 133.001 77.5471 134.284 72.8739 134.284C68.2008 134.284 64.0396 133.001 61.363 131.005C59.5233 131.737 57.4801 132.145 55.3284 132.145C47.2532 132.145 40.707 126.4 40.707 119.312C40.707 112.974 45.9412 107.709 52.8224 106.666C54.7358 101.066 62.9861 96.8535 72.8739 96.8535Z" fill="#FDF6B3"/>
<path d="M72.5873 115.876C64.388 115.876 58.3987 112.683 55.2897 110.169C54.8151 109.786 54.0185 110.241 54.203 110.823C56.4168 117.805 62.2691 128.435 72.5873 128.435C82.9502 128.435 89.1191 117.713 91.5131 110.733C91.7095 110.16 90.9498 109.694 90.471 110.064C87.2016 112.593 80.9016 115.876 72.5873 115.876Z" fill="#DF6653"/>
<mask id="mask3_1768_3591" style="mask-type:alpha" maskUnits="userSpaceOnUse" x="54" y="109" width="38" height="20">
<path d="M72.5863 115.877C64.1469 115.877 58.0489 112.494 55.0231 109.951C54.6236 109.615 53.948 109.999 54.1007 110.498C56.2337 117.47 62.1066 128.436 72.5863 128.436C83.106 128.436 89.3038 117.386 91.6181 110.419C91.7813 109.928 91.1332 109.537 90.7292 109.861C87.5406 112.413 81.1259 115.877 72.5863 115.877Z" fill="#DF6653"/>
</mask>
<g mask="url(#mask3_1768_3591)">
<ellipse cx="72.8739" cy="128.436" rx="11.1122" ry="7.01824" fill="#E39A93"/>
<path d="M72.2882 117.908C66.8741 117.908 67.6476 115.568 67.6476 114.398H76.9288C76.9288 115.568 77.7023 117.908 72.2882 117.908Z" fill="white"/>
</g>
<ellipse cx="72.2878" cy="103.87" rx="7.01824" ry="3.50912" fill="#3F260F"/>
<path fill-rule="evenodd" clip-rule="evenodd" d="M54.4655 84.8073C55.4277 84.9035 56.2691 85.0804 56.8016 85.2325C57.3635 85.2325 57.3635 79.0509 50.62 81.2988C43.8765 83.5466 43.8765 89.7282 44.4384 89.7282C44.6424 89.7282 45.0684 89.2841 45.6627 88.6645C46.0348 88.2766 46.4729 87.8199 46.9638 87.3603C46.6427 88.2463 46.4628 89.2403 46.4628 90.2902C46.4628 94.0146 48.7272 97.0338 51.5204 97.0338C54.3137 97.0338 56.5781 94.0146 56.5781 90.2902C56.5781 88.0309 55.7447 86.031 54.4655 84.8073Z" fill="#3F260F"/>
<ellipse cx="52.0589" cy="88.6041" rx="1.40484" ry="2.80967" transform="rotate(2.56514 52.0589 88.6041)" fill="white"/>
<path fill-rule="evenodd" clip-rule="evenodd" d="M91.2807 84.8073C90.3185 84.9035 89.4771 85.0804 88.9445 85.2325C88.3826 85.2325 88.3826 79.0509 95.1261 81.2988C101.87 83.5466 101.87 89.7282 101.308 89.7282C101.104 89.7282 100.678 89.2841 100.083 88.6645C99.7114 88.2767 99.2733 87.82 98.7825 87.3605C99.1035 88.2465 99.2835 89.2403 99.2835 90.2902C99.2835 94.0146 97.0191 97.0338 94.2258 97.0338C91.4326 97.0338 89.1682 94.0146 89.1682 90.2902C89.1682 88.0309 90.0015 86.031 91.2807 84.8073Z" fill="#3F260F"/>
<ellipse cx="1.40484" cy="2.80967" rx="1.40484" ry="2.80967" transform="matrix(-0.998998 0.0447552 0.0447551 0.998998 94.9648 85.7344)" fill="white"/>
<g style="mix-blend-mode:multiply">
<mask id="mask4_1768_3591" style="mask-type:alpha" maskUnits="userSpaceOnUse" x="25" y="48" width="95" height="91">
<path d="M35.8693 63.5167L74.4696 48.3105L111.315 63.5167C111.315 71.0028 114.398 85.3512 115.567 92.7594C123.17 122.587 117.105 130.512 109.561 134.284C103.712 137.208 83.8273 138.573 74.4696 138.378C69.206 138.378 62.7725 138.378 42.8876 134.284C16.481 128.847 27.6814 99.7776 28.8511 95.0988C29.7868 91.3557 33.9198 72.4845 35.8693 63.5167Z" fill="url(#paint2_linear_1768_3591)"/>
</mask>
<g mask="url(#mask4_1768_3591)">
<g style="mix-blend-mode:multiply" opacity="0.3">
<path fill-rule="evenodd" clip-rule="evenodd" d="M29.0078 87.4953C29.7876 87.6902 31.9321 87.8462 34.2715 86.9104C34.6614 87.3003 36.143 87.9631 38.9503 87.4953C39.2916 87.4384 39.8874 87.376 40.6849 87.2924C47.6146 86.5665 69.7762 84.2448 72.5794 70.0914C75.3825 84.2448 97.5441 86.5665 104.474 87.2924C105.271 87.376 105.867 87.4384 106.208 87.4953C109.016 87.9631 110.497 87.3003 110.887 86.9104C113.227 87.8462 115.371 87.6902 116.151 87.4953C116.151 73.6435 87.6729 68.1453 72.8717 67.0662C72.8718 67.0526 72.8718 67.039 72.8718 67.0254C72.775 67.0318 72.6775 67.0385 72.5794 67.0453C72.4813 67.0385 72.3838 67.0318 72.2869 67.0254C72.2869 67.039 72.287 67.0526 72.287 67.0662C57.4858 68.1453 29.0078 73.6435 29.0078 87.4953Z" fill="#CB8807"/>
</g>
</g>
</g>
<path fill-rule="evenodd" clip-rule="evenodd" d="M72.4232 45.082C64.8201 43.7065 47.3915 42.9598 38.5017 50.9769C29.6119 58.994 28.5592 77.111 29.1441 85.1673C30.9604 84.7449 34.7393 83.2324 38.6293 80.1525C36.9531 82.0173 35.5775 83.939 35.5775 85.1673C45.9099 84.1849 67.7444 79.3903 72.4232 68.0721V45.082ZM72.4233 45.082C80.0263 43.7065 97.455 42.9598 106.345 50.9769C115.235 58.994 116.287 77.111 115.702 85.1673C113.886 84.7449 110.107 83.2324 106.217 80.1525C107.893 82.0173 109.269 83.939 109.269 85.1673C98.9366 84.1849 77.1021 79.3903 72.4233 68.0721V45.082Z" fill="url(#paint3_linear_1768_3591)"/>
<defs>
<linearGradient id="paint0_linear_1768_3591" x1="70.4838" y1="9.125" x2="70.4838" y2="53.4761" gradientUnits="userSpaceOnUse">
<stop stop-color="#FFD04B"/>
<stop offset="1" stop-color="#F8BE1A"/>
</linearGradient>
<linearGradient id="paint1_linear_1768_3591" x1="72.2838" y1="48.3105" x2="72.2838" y2="138.396" gradientUnits="userSpaceOnUse">
<stop stop-color="#FBEE74"/>
<stop offset="1" stop-color="#EDDD44"/>
</linearGradient>
<linearGradient id="paint2_linear_1768_3591" x1="72.2838" y1="48.3105" x2="72.2838" y2="138.396" gradientUnits="userSpaceOnUse">
<stop stop-color="#FBEE74"/>
<stop offset="1" stop-color="#EDDD44"/>
</linearGradient>
<linearGradient id="paint3_linear_1768_3591" x1="72.4232" y1="44.2168" x2="72.4232" y2="85.1673" gradientUnits="userSpaceOnUse">
<stop stop-color="#FFF272"/>
<stop offset="1" stop-color="#EEDE46"/>
</linearGradient>
</defs>
</svg>
