<svg width="145" height="146" viewBox="0 0 145 146" fill="none" xmlns="http://www.w3.org/2000/svg">
<path fill-rule="evenodd" clip-rule="evenodd" d="M123.853 62.3542C123.853 73.6385 119.065 86.7103 111.533 97.9011L110.909 107.891C110.158 119.91 100.258 129.271 88.2974 129.271H56.7C44.7399 129.271 34.8397 119.91 34.0885 107.891L33.5505 99.2841C25.1358 87.7982 19.6341 74.1067 19.6341 62.3542C19.6341 61.9197 19.6416 61.4875 19.6565 61.0576C15.0232 62.3716 11.0081 62.2778 9.12361 59.6689C3.08194 51.3043 15.9205 22.4085 22.7174 20.1272C27.8752 18.3961 37.5177 23.3701 42.3634 26.4824C51.3469 21.2182 62.0169 18.25 72.4987 18.25C82.8068 18.25 93.0569 21.1207 101.657 26.2226C106.619 23.1026 115.878 18.4435 120.894 20.1272C127.691 22.4085 140.53 51.3043 134.488 59.6689C132.587 62.3012 128.516 62.373 123.831 61.0219C123.845 61.4636 123.853 61.9077 123.853 62.3542Z" fill="url(#paint0_linear_1768_3730)"/>
<path fill-rule="evenodd" clip-rule="evenodd" d="M115.241 99.1619L114.68 108.129C113.804 122.151 102.254 133.072 88.3003 133.072H56.7029C42.7494 133.072 31.1993 122.151 30.3228 108.129L29.8538 100.626C22.2165 89.9124 16.8541 77.2521 15.9851 65.6207C14.9655 65.7095 13.9579 65.7159 12.982 65.6164C10.461 65.3596 7.83543 64.3449 6.0727 61.9045C3.67786 58.5889 3.51295 53.9508 3.99596 49.8356C4.50487 45.4998 5.86274 40.7094 7.58966 36.2381C9.3206 31.7564 11.4893 27.4226 13.7246 24.0014C14.8404 22.2937 16.0222 20.7372 17.2298 19.4868C18.3739 18.3023 19.8262 17.0901 21.5262 16.5196C23.6178 15.8176 25.8653 15.8763 27.8743 16.1962C29.9256 16.5228 32.033 17.1722 34.0145 17.9387C37.0717 19.1212 40.0638 20.6748 42.452 22.0813C51.5648 17.1836 62.103 14.4473 72.5016 14.4473C82.7092 14.4473 92.8533 17.0841 101.603 21.8262C103.997 20.4415 106.941 18.9419 109.933 17.8126C111.867 17.0828 113.917 16.4706 115.914 16.1697C117.873 15.8746 120.055 15.836 122.091 16.5196C123.791 17.0901 125.244 18.3023 126.388 19.4868C127.595 20.7372 128.777 22.2937 129.893 24.0014C132.128 27.4226 134.297 31.7564 136.028 36.2381C137.755 40.7094 139.113 45.4998 139.622 49.8356C140.105 53.9508 139.94 58.5889 137.545 61.9045C135.766 64.3677 133.109 65.3773 130.568 65.6232C129.576 65.7191 128.551 65.7067 127.515 65.6101C126.73 76.7017 122.061 88.7556 115.241 99.1619ZM123.775 64.9426C123.116 75.6041 118.498 87.556 111.536 97.9004L110.912 107.891C110.161 119.909 100.26 129.27 88.3003 129.27H56.7029C44.7428 129.27 34.8426 119.909 34.0914 107.891L33.5534 99.2835C25.7566 88.641 20.4608 76.105 19.725 64.9724C19.6667 64.0901 19.637 63.2166 19.637 62.3535C19.637 61.9191 19.6445 61.4869 19.6594 61.0569C18.3319 61.4334 17.055 61.6943 15.8645 61.8136C12.9001 62.1107 10.471 61.5296 9.12652 59.6682C3.08485 51.3036 15.9234 22.4078 22.7203 20.1266C27.8781 18.3954 37.5206 23.3694 42.3663 26.4818C51.3498 21.2176 62.0198 18.2493 72.5016 18.2493C82.8097 18.2493 93.0598 21.12 101.66 26.2219C106.622 23.1019 115.881 18.4429 120.897 20.1266C127.694 22.4078 140.533 51.3036 134.491 59.6682C133.128 61.5557 130.649 62.1267 127.628 61.8006C126.436 61.672 125.159 61.4036 123.833 61.0212C123.848 61.4629 123.856 61.9071 123.856 62.3535C123.856 63.2069 123.828 64.0704 123.775 64.9426Z" fill="#8C8C87"/>
<path d="M22.7174 20.1279C28.1549 18.3029 38.5767 23.9299 43.108 26.9716V43.7008C43.108 50.5445 15.1653 68.0341 9.12361 59.6695C3.08194 51.3049 15.9205 22.4091 22.7174 20.1279Z" fill="#EEEBE8"/>
<mask id="mask0_1768_3730" style="mask-type:alpha" maskUnits="userSpaceOnUse" x="7" y="19" width="37" height="43">
<path d="M22.7174 20.1279C28.1549 18.3029 38.5767 23.9299 43.108 26.9716V43.7008C43.108 50.5445 15.1653 68.0341 9.12361 59.6695C3.08194 51.3049 15.9205 22.4091 22.7174 20.1279Z" fill="#EEEBE8"/>
</mask>
<g mask="url(#mask0_1768_3730)">
<g style="mix-blend-mode:multiply">
<path d="M27.5184 26.1128C31.676 24.7948 39.6447 28.8587 43.1094 31.0554V43.1371C43.1094 48.0796 21.744 60.7105 17.1245 54.6696C12.5049 48.6288 22.3215 27.7604 27.5184 26.1128Z" fill="url(#paint1_linear_1768_3730)"/>
</g>
<path style="mix-blend-mode:multiply" opacity="0.5" d="M15.1641 64.6354C15.1641 38.4771 33.7925 27.375 43.1068 25.0938L38.5755 63.1146L15.1641 64.6354Z" fill="#C4C4C4" fill-opacity="0.3"/>
</g>
<path d="M120.896 20.1279C115.458 18.3029 105.037 23.9299 100.505 26.9716V43.7008C100.505 50.5445 128.448 68.0341 134.49 59.6695C140.531 51.3049 127.693 22.4091 120.896 20.1279Z" fill="#EEEBE8"/>
<mask id="mask1_1768_3730" style="mask-type:alpha" maskUnits="userSpaceOnUse" x="100" y="19" width="37" height="43">
<path d="M120.896 20.1279C115.458 18.3029 105.037 23.9299 100.505 26.9716V43.7008C100.505 50.5445 128.448 68.0341 134.49 59.6695C140.531 51.3049 127.693 22.4091 120.896 20.1279Z" fill="#EEEBE8"/>
</mask>
<g mask="url(#mask1_1768_3730)">
<g style="mix-blend-mode:multiply">
<path d="M116.095 26.1128C111.937 24.7948 103.969 28.8587 100.504 31.0554V43.1371C100.504 48.0796 121.869 60.7105 126.489 54.6696C131.108 48.6288 121.292 27.7604 116.095 26.1128Z" fill="url(#paint2_linear_1768_3730)"/>
</g>
<path style="mix-blend-mode:multiply" opacity="0.5" d="M128.449 64.6354C128.449 38.4771 109.821 27.375 100.507 25.0938L105.038 63.1146L128.449 64.6354Z" fill="#C4C4C4" fill-opacity="0.3"/>
</g>
<path fill-rule="evenodd" clip-rule="evenodd" d="M111.336 98.1911C118.98 86.9367 123.852 73.7361 123.852 62.3542C123.852 36.3162 98.357 18.25 72.4974 18.25C46.6378 18.25 19.6328 36.3162 19.6328 62.3542C19.6328 74.1429 25.1684 87.8827 33.6271 99.3903C33.6228 100.077 33.642 100.769 33.6855 101.465C34.6624 117.094 47.6237 129.271 63.284 129.271H81.7108C97.3711 129.271 110.332 117.094 111.309 101.465C111.378 100.361 111.386 99.2692 111.336 98.1911Z" fill="url(#paint3_linear_1768_3730)"/>
<path fill-rule="evenodd" clip-rule="evenodd" d="M41.4371 75.3081C37.8851 75.16 34.148 75.4515 30.5792 76.4924C30.3045 76.5725 30.0902 76.2739 30.2982 76.091C35.0233 71.9348 45.5505 67.4966 56.1993 77.8134C56.4052 78.0129 56.1621 78.3337 55.8855 78.2284C54.6012 77.7393 52.9969 77.2212 51.1679 76.7577C52.2883 77.9699 52.9639 79.5387 52.9639 81.2521C52.9639 85.0935 49.5679 88.2076 45.3786 88.2076C41.1893 88.2076 37.7933 85.0935 37.7933 81.2521C37.7933 78.7343 39.2522 76.529 41.4371 75.3081Z" fill="url(#paint4_linear_1768_3730)"/>
<path d="M39.0649 50.2279C47.7629 49.354 55.937 62.8656 59.4741 70.8568C59.6595 71.2756 59.0966 71.6429 58.6536 71.4032C45.7183 64.4046 32.8098 66.2643 27.0596 68.3842C26.6755 68.5257 26.2441 68.277 26.2838 67.9213C26.9537 61.921 30.2687 51.1117 39.0649 50.2279Z" fill="url(#paint5_linear_1768_3730)"/>
<path fill-rule="evenodd" clip-rule="evenodd" d="M102.098 75.3081C105.65 75.16 109.387 75.4515 112.956 76.4924C113.231 76.5725 113.445 76.2739 113.237 76.091C108.512 71.9348 97.9846 67.4966 87.3359 77.8134C87.13 78.0129 87.373 78.3337 87.6497 78.2284C88.934 77.7393 90.5383 77.2212 92.3672 76.7577C91.2469 77.9699 90.5712 79.5387 90.5712 81.2521C90.5712 85.0935 93.9673 88.2076 98.1566 88.2076C102.346 88.2076 105.742 85.0935 105.742 81.2521C105.742 78.7343 104.283 76.529 102.098 75.3081Z" fill="url(#paint6_linear_1768_3730)"/>
<path d="M104.704 50.2279C96.4011 49.354 88.5985 62.8656 85.2222 70.8568C85.0452 71.2756 85.5825 71.6429 86.0054 71.4032C98.3527 64.4046 110.674 66.2643 116.163 68.3842C116.53 68.5257 116.942 68.277 116.904 67.9213C116.264 61.921 113.1 51.1117 104.704 50.2279Z" fill="url(#paint7_linear_1768_3730)"/>
<path opacity="0.6" d="M34.7383 101.895C48.1872 96.0192 82.1198 87.7928 110.259 101.895C99.2241 92.7139 68.6709 79.8602 34.7383 101.895Z" fill="url(#paint8_linear_1768_3730)"/>
<path fill-rule="evenodd" clip-rule="evenodd" d="M52.6132 115.681C57.3456 116.818 66.5181 117.651 69.9909 112.84C70.0119 112.811 70.0245 112.777 70.0274 112.741L70.9098 102.08C70.9184 101.976 71.005 101.896 71.1091 101.896H72.027H72.5291H73.447C73.551 101.896 73.6377 101.976 73.6463 102.08L74.5286 112.741C74.5316 112.777 74.5442 112.811 74.5652 112.84C78.038 117.651 87.2105 116.818 91.9428 115.681C92.1347 115.635 92.2666 115.86 92.1266 115.999C87.2321 120.863 77.7836 119.023 72.7701 118.047C72.6009 118.014 72.4368 117.982 72.278 117.952C72.1193 117.982 71.9552 118.014 71.786 118.047C66.7725 119.023 57.324 120.863 52.4295 115.999C52.2895 115.86 52.4213 115.635 52.6132 115.681Z" fill="#8C8C87"/>
<path d="M60.7206 93.9119C67.8136 89.1899 79.8558 91.7578 83.5109 93.9275C83.6264 93.9961 83.7004 94.1092 83.7239 94.2451C84.4541 98.4495 83.4942 106.458 72.1922 106.458C60.8995 106.458 60.0346 98.4626 60.5126 94.2555C60.5287 94.1135 60.6046 93.9891 60.7206 93.9119Z" fill="url(#paint9_linear_1768_3730)"/>
<path opacity="0.3" d="M68.0424 94.4119C70.8201 93.3865 73.925 93.8433 76.1271 94.5436C77.1675 94.8745 77.5004 96.1127 76.8952 97.0268C76.5588 97.5349 75.9924 97.84 75.3859 97.84H69.0202C68.3613 97.84 67.746 97.5085 67.3804 96.9564C66.7767 96.0446 67.0205 94.7891 68.0424 94.4119Z" fill="white"/>
<defs>
<linearGradient id="paint0_linear_1768_3730" x1="71.7435" y1="18.25" x2="71.7435" y2="129.271" gradientUnits="userSpaceOnUse">
<stop stop-color="#F8F9F7"/>
<stop offset="1" stop-color="#E9E9E1"/>
</linearGradient>
<linearGradient id="paint1_linear_1768_3730" x1="24.9844" y1="27.3763" x2="37.9678" y2="54.6824" gradientUnits="userSpaceOnUse">
<stop stop-color="#DCD8D4"/>
<stop offset="0.589865" stop-color="#EEEBE8" stop-opacity="0"/>
</linearGradient>
<linearGradient id="paint2_linear_1768_3730" x1="118.629" y1="27.3763" x2="105.645" y2="54.6824" gradientUnits="userSpaceOnUse">
<stop stop-color="#DCD8D4"/>
<stop offset="0.589865" stop-color="#EEEBE8" stop-opacity="0"/>
</linearGradient>
<linearGradient id="paint3_linear_1768_3730" x1="71.7422" y1="18.25" x2="71.7422" y2="129.271" gradientUnits="userSpaceOnUse">
<stop stop-color="#F8F9F7"/>
<stop offset="1" stop-color="#E9E9E1"/>
</linearGradient>
<linearGradient id="paint4_linear_1768_3730" x1="43.2455" y1="71.4785" x2="43.2455" y2="88.2076" gradientUnits="userSpaceOnUse">
<stop offset="0.312016" stop-color="#2B2D31"/>
<stop offset="1"/>
</linearGradient>
<linearGradient id="paint5_linear_1768_3730" x1="42.8958" y1="50.1875" x2="42.8958" y2="71.4792" gradientUnits="userSpaceOnUse">
<stop offset="0.312016" stop-color="#2B2D31"/>
<stop offset="1"/>
</linearGradient>
<linearGradient id="paint6_linear_1768_3730" x1="100.29" y1="71.4785" x2="100.29" y2="88.2076" gradientUnits="userSpaceOnUse">
<stop offset="0.312016" stop-color="#2B2D31"/>
<stop offset="1"/>
</linearGradient>
<linearGradient id="paint7_linear_1768_3730" x1="101.047" y1="50.1875" x2="101.047" y2="71.4792" gradientUnits="userSpaceOnUse">
<stop offset="0.312016" stop-color="#2B2D31"/>
<stop offset="1"/>
</linearGradient>
<linearGradient id="paint8_linear_1768_3730" x1="72.4987" y1="89.7285" x2="72.4987" y2="101.895" gradientUnits="userSpaceOnUse">
<stop stop-color="#DCD8D4"/>
<stop offset="0.791211" stop-color="#C4C4C4" stop-opacity="0"/>
</linearGradient>
<linearGradient id="paint9_linear_1768_3730" x1="72.1617" y1="91.25" x2="72.1617" y2="106.458" gradientUnits="userSpaceOnUse">
<stop offset="0.312016" stop-color="#2B2D31"/>
<stop offset="1"/>
</linearGradient>
</defs>
</svg>
