<svg width="146" height="146" viewBox="0 0 146 146" fill="none" xmlns="http://www.w3.org/2000/svg">
<path fill-rule="evenodd" clip-rule="evenodd" d="M99.4672 43.3056C102.949 38.846 109.552 24.4443 108.966 15.6561C108.765 15.1319 108.75 14.6781 108.956 14.3334C109.763 12.9834 113.641 13.8157 117.618 16.1923C121.335 18.4132 123.823 21.1967 123.475 22.6536L123.517 22.677C123.4 22.9007 123.271 23.1356 123.13 23.3808C122.937 23.7182 122.722 24.0752 122.487 24.4495C122.196 24.9139 121.874 25.4051 121.526 25.9186C117.687 31.5844 110.615 39.9764 105.194 45.3979C104.217 46.3751 102.995 48.6228 105.927 49.7955C109.592 51.2613 132.312 60.7894 132.312 82.7774C132.312 96.7679 124.894 106.431 118.908 111.398C117.368 112.676 115.922 113.643 114.722 114.293C114.981 112.914 115.157 111.272 115.182 109.491C115.299 101.182 112.118 89.8394 98.5976 87.9079C78.0755 84.9762 71.4792 106.964 74.4109 114.293C75.9471 118.134 79.454 121.346 82.5834 123.517C84.2316 124.66 85.7751 125.515 86.8707 126.02C85.5616 126.577 83.9086 127.134 81.9373 127.642C69.659 130.809 45.029 132.083 14.1792 119.454C13.0102 118.976 11.8323 118.477 10.6458 117.958C11.1931 117.046 11.8285 115.923 12.5176 114.626C16.4431 107.242 22.1081 94.2496 23.1057 82.7774C24.5715 65.92 28.4533 34.5823 60.4852 30.0063C77.7897 27.5342 89.8831 33.4001 94.1286 39.6945C94.918 40.8648 95.4361 42.05 95.6659 43.1991C95.6603 43.1646 95.6562 43.1683 95.6593 43.2002C95.6593 43.2002 95.6593 43.2003 95.6593 43.2004C95.6789 43.3977 95.9735 44.6649 97.8647 44.6649C98.2282 44.6649 98.7843 44.1781 99.4578 43.3176C99.4609 43.3136 99.464 43.3096 99.4672 43.3056ZM97.9731 38.684C98.9254 37.0634 100.001 34.9534 101.032 32.5815C103.492 26.9242 105.339 20.609 105.193 16.32C104.921 15.2639 104.84 13.8099 105.693 12.3831L108.956 14.3334L105.693 12.3831C106.733 10.6424 108.47 10.1062 109.569 9.95399C110.713 9.79555 111.879 9.92974 112.896 10.1479C114.969 10.5928 117.322 11.586 119.569 12.9285C121.676 14.1876 123.544 15.6666 124.893 17.1619C125.562 17.9033 126.201 18.7553 126.651 19.6847C126.964 20.3308 127.318 21.2879 127.31 22.4014C127.36 23.0851 127.226 23.7903 126.885 24.4412C125.35 27.3727 122.202 31.6589 118.774 35.8837C115.661 39.7189 112.139 43.7187 108.993 46.9593C111.996 48.2802 117.634 51.0862 122.982 55.716C129.633 61.4735 136.115 70.3157 136.115 82.7774C136.115 102.148 123.243 114.002 116.533 117.637C115.244 118.335 113.668 118.23 112.483 117.366C111.298 116.502 110.715 115.034 110.985 113.593C111.625 110.179 111.658 104.948 109.843 100.479C108.133 96.2659 104.786 92.6326 98.0599 91.6718C89.5114 90.4506 84.098 94.2949 80.9167 99.294C79.2815 101.864 78.2611 104.728 77.8138 107.314C77.3492 110.001 77.5717 111.958 77.941 112.881C78.7813 114.982 80.5694 117.061 82.7597 118.882C84.9163 120.675 87.1607 121.967 88.464 122.568C89.8296 123.198 90.6953 124.575 90.6724 126.078C90.6494 127.582 89.7421 128.931 88.3579 129.52C77.4685 134.148 47.442 138.206 9.1219 121.441C8.12056 121.003 7.35618 120.155 7.02382 119.114C6.69145 118.073 6.82325 116.939 7.38559 116.002C10.945 110.07 18.2198 95.0765 19.3179 82.448C20.0513 74.0138 21.4193 61.324 26.9197 50.1118C32.5323 38.6708 42.4792 28.7379 59.9475 26.2424C70.8409 24.6862 80.0132 26.2109 86.795 29.2935C91.7888 31.5635 95.84 34.8716 97.9731 38.684ZM107.203 46.2029C107.203 46.2028 107.205 46.2038 107.208 46.2057C107.205 46.2039 107.203 46.2029 107.203 46.2029ZM107.799 48.1949C107.795 48.2016 107.794 48.2048 107.794 48.2044C107.794 48.2041 107.795 48.2014 107.798 48.1964C107.798 48.1959 107.798 48.1954 107.799 48.1949Z" fill="#00532B"/>
<path d="M108.857 14.8926L123.516 22.9548C120.829 28.0854 111.789 39.0793 105.193 45.6757C104.215 46.653 102.994 48.9006 105.926 50.0733C109.59 51.5392 132.311 61.0673 132.311 83.0553C132.311 100.646 120.584 111.395 114.721 114.571C116.187 106.753 115.014 90.5312 98.5963 88.1858C78.0742 85.254 71.4778 107.242 74.4096 114.571C76.755 120.435 83.6934 124.832 86.8694 126.298C77.097 130.452 48.1706 134.654 10.6445 118.236C14.3092 112.128 21.9317 96.5412 23.1044 83.0553C24.5702 66.1978 28.452 34.8601 60.4839 30.2841C80.9893 27.3548 94.1773 36.1333 95.661 43.459C95.6621 43.4631 95.6633 43.469 95.6646 43.4769C95.6634 43.471 95.6622 43.465 95.661 43.459C95.6289 43.3384 95.7354 44.9428 97.8634 44.9428C100.181 44.9428 110.323 25.1536 108.857 14.8926Z" fill="url(#paint0_radial_1768_3646)"/>
<mask id="mask0_1768_3646" style="mask-type:alpha" maskUnits="userSpaceOnUse" x="10" y="14" width="123" height="117">
<path d="M108.857 14.8926L123.516 22.9548C120.829 28.0854 111.789 39.0793 105.193 45.6757C104.215 46.653 102.994 48.9006 105.926 50.0733C109.59 51.5392 132.311 61.0673 132.311 83.0553C132.311 100.646 120.584 111.395 114.721 114.571C116.187 106.753 115.014 90.5312 98.5963 88.1858C78.0742 85.254 71.4778 107.242 74.4096 114.571C76.755 120.435 83.6934 124.832 86.8694 126.298C77.097 130.452 48.1706 134.654 10.6445 118.236C14.3092 112.128 21.9317 96.5412 23.1044 83.0553C24.5702 66.1978 28.452 34.8601 60.4839 30.2841C80.9893 27.3548 94.1773 36.1333 95.661 43.459C95.6621 43.4631 95.6633 43.469 95.6646 43.4769C95.6634 43.471 95.6622 43.465 95.661 43.459C95.6289 43.3384 95.7354 44.9428 97.8634 44.9428C100.181 44.9428 110.323 25.1536 108.857 14.8926Z" fill="url(#paint1_radial_1768_3646)"/>
</mask>
<g mask="url(#mask0_1768_3646)">
<path d="M105.192 42.0114C111.789 36.1479 114.551 26.3755 117.727 20.0234L126.522 24.421L114.062 44.9431C128.721 47.1419 144.845 79.3909 136.05 97.7142C129.014 112.373 116.505 117.015 111.131 117.503L114.062 113.839C122.857 99.1801 125.789 68.3969 101.602 55.9371C77.4157 43.4773 80.3475 82.3226 78.1487 82.3226C75.9499 82.3226 76.6828 66.1981 74.484 64.7323C72.725 63.5596 58.3595 76.4592 58.3595 82.3226C64.9559 95.5154 60.5583 113.106 60.5583 106.509C60.5583 99.913 55.3529 90.3849 53.887 88.1861C52.4211 85.9873 29.7752 111.64 28.3093 110.907C26.8435 110.174 47.3656 86.7202 47.3656 83.7885C47.3656 80.8568 33.4399 85.9873 31.974 84.5214C30.8013 83.3488 44.6781 78.658 51.7632 76.4592C59.0925 69.3742 72.2852 54.7644 66.4218 53.0054C59.0925 50.8066 45.1668 55.2042 45.8997 52.2724C46.6326 49.3407 64.223 49.3407 69.3535 49.3407C74.484 49.3407 82.5463 49.3407 84.7451 40.5455C86.5041 33.5094 67.8877 28.8186 58.3595 27.3528C77.7089 23.2483 94.9312 33.2162 97.13 44.9431C98.1072 45.4317 103.232 43.7535 105.192 42.0114Z" fill="url(#paint2_linear_1768_3646)" style="mix-blend-mode:multiply"/>
</g>
<ellipse cx="116.155" cy="18.9136" rx="8.38912" ry="2.84749" transform="rotate(30.8609 116.155 18.9136)" fill="#8FE273"/>
<defs>
<radialGradient id="paint0_radial_1768_3646" cx="0" cy="0" r="1" gradientUnits="userSpaceOnUse" gradientTransform="translate(57.5522 49.3404) rotate(80.2107) scale(81.9036 86.5321)">
<stop stop-color="#33CC26"/>
<stop offset="1" stop-color="#15953E"/>
</radialGradient>
<radialGradient id="paint1_radial_1768_3646" cx="0" cy="0" r="1" gradientUnits="userSpaceOnUse" gradientTransform="translate(57.5522 49.3404) rotate(80.2107) scale(81.9036 86.5321)">
<stop stop-color="#33CC26"/>
<stop offset="1" stop-color="#15953E"/>
</radialGradient>
<linearGradient id="paint2_linear_1768_3646" x1="68.5456" y1="32.4833" x2="108.124" y2="117.503" gradientUnits="userSpaceOnUse">
<stop stop-color="#0FE47E"/>
<stop offset="1" stop-color="#009F53"/>
</linearGradient>
</defs>
</svg>
