<svg width="145" height="146" viewBox="0 0 145 146" fill="none" xmlns="http://www.w3.org/2000/svg">
<path fill-rule="evenodd" clip-rule="evenodd" d="M107.583 22.029C106.666 17.4163 102.525 8.08166 93.2915 7.63894C81.7484 7.08548 73.5033 13.1736 71.8543 22.029C70.8819 27.2509 71.0563 31.3181 71.3632 34.571C71.4276 35.2543 71.4979 35.9016 71.5646 36.5162C71.6414 37.2231 71.7135 37.8866 71.7665 38.5115C71.4017 38.3089 70.9507 38.3165 70.6145 38.5815C70.6007 38.5924 70.587 38.6033 70.5733 38.6142C67.6931 40.9076 66.9184 43.9252 66.8805 45.69C66.8794 45.7404 66.8789 45.7898 66.879 45.8382C66.8792 45.9373 66.8959 46.0334 66.9268 46.124C65.6657 46.2605 64.4152 46.443 63.1771 46.6696C39.0318 51.0879 19.6354 72.247 19.6354 94.5326C19.6354 119.597 44.1714 139.917 72.4039 139.917C100.636 139.917 124.623 119.597 124.623 94.5326C124.623 85.9027 121.779 77.4418 116.898 70.0565C117.241 69.5594 117.291 68.898 116.956 68.3576L120.157 66.3419C120.756 67.3053 120.999 68.36 120.954 69.3784C125.639 76.9679 128.399 85.6204 128.399 94.5326C128.399 122.229 102.151 143.719 72.4039 143.719C42.7111 143.719 15.8594 122.276 15.8594 94.5326C15.8594 69.811 37.3844 47.0424 63.5259 42.7517C64.1029 40.5894 65.3474 38.1317 67.7174 36.0604C67.3424 32.5105 66.9589 27.6867 68.1429 21.3283C70.2199 10.1746 80.5174 3.22007 93.4711 3.84116C99.473 4.12894 103.75 7.34823 106.531 10.9278C108.549 13.5259 109.881 16.4243 110.661 18.8824C110.942 19.0101 111.217 19.1511 111.482 19.3009C112.741 20.0118 114.039 21.0613 115.228 22.3996C117.63 25.1033 119.737 29.1543 120.143 34.467C120.644 41.0245 116.938 45.4831 112.566 48.1853C109.93 49.8144 106.895 50.9311 103.949 51.6717C108.774 54.5279 116.114 59.8313 120.157 66.3419L116.956 68.3576C112.883 61.8003 104.713 56.3332 100.312 53.9758C100.035 53.8026 99.7565 53.6319 99.4761 53.4635C99.5717 53.2221 99.638 52.9643 99.6699 52.6939L99.766 51.8805C99.9144 50.6249 99.2807 49.457 98.2516 48.8716C99.6548 48.6977 101.143 48.4386 102.641 48.0794C109.705 46.3854 116.966 42.4654 116.378 34.7586C115.701 25.9051 109.417 21.662 107.583 22.029Z" fill="#963C05"/>
<path fill-rule="evenodd" clip-rule="evenodd" d="M107.584 22.0284C106.668 17.4162 102.527 8.08116 93.2928 7.63839C81.7497 7.08493 73.5046 13.173 71.8556 22.0284C70.6789 28.3472 71.1815 32.9752 71.5659 36.5157C71.7203 37.9369 71.8556 39.1829 71.8556 40.2927C71.8556 42.0838 70.1423 44.2076 68.2009 46.0018C41.7806 48.1948 19.6367 70.7204 19.6367 94.5321C19.6367 119.597 44.1727 139.916 72.4052 139.916C100.638 139.916 124.624 119.597 124.624 94.5321C124.624 76.0092 111.525 58.2645 93.2928 50.2636V49.1481C100.622 49.3326 117.258 46.2701 116.379 34.7581C115.702 25.9027 109.417 21.6594 107.584 22.0284Z" fill="url(#paint0_radial_1768_3654)"/>
<mask id="mask0_1768_3654" style="mask-type:alpha" maskUnits="userSpaceOnUse" x="19" y="7" width="106" height="133">
<path fill-rule="evenodd" clip-rule="evenodd" d="M107.584 22.0284C106.668 17.4162 102.527 8.08116 93.2928 7.63839C81.7497 7.08493 73.5046 13.173 71.8556 22.0284C70.6789 28.3472 71.1815 32.9752 71.5659 36.5157C71.7203 37.9369 71.8556 39.1829 71.8556 40.2927C71.8556 42.0838 70.1423 44.2076 68.2009 46.0018C41.7806 48.1948 19.6367 70.7204 19.6367 94.5321C19.6367 119.597 44.1727 139.916 72.4052 139.916C100.638 139.916 124.624 119.597 124.624 94.5321C124.624 76.0092 111.525 58.2645 93.2928 50.2636V49.1481C100.622 49.3326 117.258 46.2701 116.379 34.7581C115.702 25.9027 109.417 21.6594 107.584 22.0284Z" fill="url(#paint1_radial_1768_3654)"/>
</mask>
<g mask="url(#mask0_1768_3654)">
<path d="M97.1421 24.2426C100.44 15.3872 99.7072 10.9594 97.1421 7.63867L113.632 15.3872L122.977 27.0099V48.0415L91.6453 51.3622L70.7578 40.293V29.2237C76.8042 45.8276 97.1185 38.4492 100.44 33.098C105.937 24.2426 100.44 24.2426 97.1421 24.2426Z" fill="#DEA35F"/>
<path d="M72.8294 63.5812L77.0089 81.8697L96.4194 90.2289C97.5658 90.8921 97.4575 92.6382 96.2389 93.1406L79.2324 104.754L77.0089 125.323C76.866 126.692 75.2437 127.257 74.3313 126.256L59.5491 112.961C59.2009 112.579 58.6955 112.397 58.1944 112.472L42.674 114.8C41.5757 114.965 40.6676 113.918 40.9408 112.802L45.7519 93.6521C45.8334 93.319 45.8104 92.9675 45.6862 92.6487L36.4511 76.9398C36.0063 75.7984 36.9054 74.5823 38.0827 74.7329L56.4401 76.5413L70.4449 62.5709C71.3596 61.9405 72.6 62.466 72.8294 63.5812Z" fill="#9A4F01"/>
<g style="mix-blend-mode:multiply" opacity="0.15">
<path d="M74.6358 111.661C33.0406 110.708 26.9747 69.5891 29.1411 49.1484C17.9151 59.2695 -12.2178 126.545 58.0923 141.429C114.34 153.336 134.311 103.525 137.265 77.1303C133.72 89.0374 116.231 112.614 74.6358 111.661Z" fill="#9D7E5E"/>
</g>
</g>
<ellipse opacity="0.3" cx="22.1497" cy="14.5929" rx="22.1497" ry="14.5929" transform="matrix(0.950736 -0.310003 0.30617 0.951977 30.6289 60.668)" fill="#FFFBD0"/>
<ellipse opacity="0.3" cx="9.91374" cy="6.53148" rx="9.91374" ry="6.53148" transform="matrix(0.950736 -0.310003 0.30617 0.951977 73.7422 14.7207)" fill="#FFFBD0"/>
<path d="M95.6337 48.5606C85.0123 47.6122 75.8407 41.8829 71.9478 38.6352C71.5619 38.3132 71.0091 38.2696 70.6145 38.5807C67.6175 40.9434 66.8757 44.0895 66.8789 45.8374C66.8795 46.1808 67.0791 46.4867 67.3729 46.6613C78.7762 53.4404 91.2625 53.8996 97.1221 53.1852C97.7362 53.1103 98.1435 52.5149 97.948 51.9239C97.4942 50.5525 96.7964 49.4848 96.3116 48.8978C96.1438 48.6946 95.8951 48.5839 95.6337 48.5606Z" fill="#C53434"/>
<path d="M98.2385 53.0221C97.7987 50.8083 96.5895 49.1479 96.0398 48.5944C89.553 48.092 83.5853 45.7842 78.9999 43.3086C76.8013 44.4746 71.3046 46.4872 66.9072 45.2099C66.8873 45.434 66.8786 45.644 66.8789 45.837C66.8795 46.1804 67.0791 46.4867 67.3729 46.6613C79.5636 53.9084 92.9919 53.9329 98.2385 53.0221Z" fill="#A51919"/>
<path d="M116.957 68.3575C112.634 61.3966 103.694 55.6644 99.5459 53.5762H94.0492C92.0015 63.0605 94.5625 73.9209 96.404 79.0936C96.6316 79.7328 97.2397 80.1424 97.914 80.1424H106.426C107.434 80.1424 108.207 79.24 107.985 78.2499C106.071 69.7206 99.865 59.5262 96.7976 55.2366C103.365 59.5156 108.717 67.2407 111.286 71.8062C111.783 72.6883 112.929 72.9786 113.754 72.3972L116.492 70.4676C117.173 69.9872 117.398 69.0677 116.957 68.3575Z" fill="#8A0E0E"/>
<mask id="mask1_1768_3654" style="mask-type:alpha" maskUnits="userSpaceOnUse" x="93" y="53" width="25" height="28">
<path d="M116.957 68.3575C112.634 61.3966 103.694 55.6644 99.5459 53.5762H94.0492C92.0015 63.0605 94.5625 73.9209 96.404 79.0936C96.6316 79.7328 97.2397 80.1424 97.914 80.1424H106.426C107.434 80.1424 108.207 79.24 107.985 78.2499C106.071 69.7206 99.865 59.5262 96.7976 55.2366C103.365 59.5156 108.717 67.2407 111.286 71.8062C111.783 72.6883 112.929 72.9786 113.754 72.3972L116.492 70.4676C117.173 69.9872 117.398 69.0677 116.957 68.3575Z" fill="#8A0E0E"/>
</mask>
<g mask="url(#mask1_1768_3654)">
<path d="M95.4911 54.6833C95.8576 62.4318 97.5799 75.6042 103.736 75.1614C107.55 74.8871 108.959 74.7403 109.218 74.4051C109.038 74.077 108.857 73.7729 108.683 73.501C109.102 73.9222 109.377 74.1992 109.218 74.4051C110.749 77.1948 112.224 81.7214 108.683 82.9099C104.726 84.2382 95.6744 81.9875 91.6434 80.6961V64.6456L91.0938 55.7902L95.4911 54.6833Z" fill="#770000"/>
<path d="M107.034 67.9664C106.595 66.6381 99.7053 58.5575 96.5905 54.6833L97.1401 53.2305C103.187 57.4506 111.981 67.0809 114.18 67.9664C116.379 68.852 117.295 67.5974 117.478 66.306L119.677 69.6268L112.531 75.1614C110.882 73.3166 107.474 69.2947 107.034 67.9664Z" fill="#770000"/>
</g>
<rect width="6.88033" height="6.9018" rx="2" transform="matrix(0.992899 0.118957 -0.117356 0.99309 93.293 48.041)" fill="#8A0E0E"/>
<defs>
<radialGradient id="paint0_radial_1768_3654" cx="0" cy="0" r="1" gradientUnits="userSpaceOnUse" gradientTransform="translate(59.7628 65.1985) rotate(78.2451) scale(118.717 94.2536)">
<stop offset="0.0231558" stop-color="#FFC981"/>
<stop offset="1" stop-color="#D8954F"/>
</radialGradient>
<radialGradient id="paint1_radial_1768_3654" cx="0" cy="0" r="1" gradientUnits="userSpaceOnUse" gradientTransform="translate(59.7628 65.1985) rotate(78.2451) scale(118.717 94.2536)">
<stop offset="0.0231558" stop-color="#FFC981"/>
<stop offset="1" stop-color="#D8954F"/>
</radialGradient>
</defs>
</svg>
