<svg width="146" height="146" viewBox="0 0 146 146" fill="none" xmlns="http://www.w3.org/2000/svg">
<path fill-rule="evenodd" clip-rule="evenodd" d="M63.7439 23.0759C66.8098 15.1074 70.9939 6.08398 73.7333 6.08398C76.4726 6.08398 80.6567 15.1074 83.7226 23.0759C86.2932 16.6683 89.5928 9.927 91.7991 9.927C94.9121 9.927 100.202 23.3481 102.549 30.316C109.768 35.2206 115.343 42.8492 118.469 54.1076L123.511 53.5611L123.518 53.5603C125.857 53.3067 128.774 62.9804 130.033 75.1671C130.865 83.2231 130.765 90.3606 129.925 94.3469C130.305 96.0614 130.7 98.1443 130.97 100.213C131.165 101.714 131.299 103.242 131.305 104.636C131.312 105.993 131.2 107.381 130.809 108.514C130.023 110.797 128.024 112.46 126.237 113.569L126.294 113.72C127.217 116.144 126.046 118.877 123.679 119.822L119.233 121.598C117.627 123.549 115.478 125.075 112.809 126.406C107.655 128.975 92.3192 130.737 81.234 131.337C78.3571 134.603 75.7139 137.333 73.9915 139.059C72.8492 140.203 71.0685 140.203 69.9262 139.059C68.1938 137.323 65.5298 134.571 62.6334 131.28C57.4405 130.867 50.2948 129.99 39.6357 128.204C23.2331 125.455 20.7258 114.669 21.8722 104.91C21.733 102.996 21.613 100.768 21.5467 98.2485C21.526 98.2473 21.5053 98.2456 21.4846 98.2434L16.4022 97.6924C14.0631 97.4388 13.1875 87.3539 14.4466 75.1671C15.7056 62.9804 18.6225 53.3067 20.9616 53.5603L20.9684 53.561L26.011 54.1077C29.4096 42.5046 36.386 34.5961 45.1504 29.632C47.599 22.5077 52.6535 9.927 55.6674 9.927C57.8737 9.927 61.1733 16.6683 63.7439 23.0759ZM124.863 109.958L124.623 109.329C124.417 108.788 124.124 108.307 123.767 107.898C123.905 105.352 123.972 102.057 123.898 98.1455L126.837 97.8269C127.007 98.7649 127.164 99.7437 127.291 100.715C127.474 102.122 127.588 103.478 127.594 104.654C127.599 105.867 127.486 106.734 127.309 107.249C127.005 108.133 126.145 109.075 124.863 109.958Z" fill="#313A52"/>
<path fill-rule="evenodd" clip-rule="evenodd" d="M123.519 53.5596L123.512 53.5604L118.471 54.107C115.345 42.8485 109.769 35.22 102.55 30.3154C100.203 23.3475 94.9134 9.92635 91.8004 9.92635C90.168 9.92635 87.9371 13.6166 85.8458 18.1317C85.1106 19.7191 84.3926 21.4085 83.7239 23.0752C83.0891 21.4252 82.4062 19.7299 81.6982 18.0789C78.9871 11.7567 75.9066 6.08333 73.7346 6.08333C71.5625 6.08333 68.482 11.7567 65.7709 18.0789C65.0629 19.7299 64.3801 21.4252 63.7452 23.0753C63.0765 21.4085 62.3585 19.7191 61.6233 18.1317C59.532 13.6166 57.3011 9.92635 55.6687 9.92635C52.6548 9.92635 47.6003 22.5071 45.1517 29.6314C36.3873 34.5954 29.4109 42.504 26.0123 54.1071L20.9697 53.5604L20.9629 53.5596C18.6237 53.306 15.7069 62.9797 14.4479 75.1665C13.1888 87.3532 14.0644 97.4381 16.4035 97.6917L21.4859 98.2427C21.5065 98.245 21.5273 98.2467 21.548 98.2478C21.6143 100.767 21.7343 102.995 21.8734 104.909C20.7271 114.669 23.2344 125.454 39.637 128.203C50.2961 129.989 57.4418 130.866 62.6347 131.279C65.5311 134.57 68.1951 137.322 69.9275 139.058C71.0698 140.203 72.8505 140.203 73.9928 139.058C75.7152 137.332 78.3584 134.602 81.2353 131.336C92.3205 130.737 107.656 128.975 112.811 126.405C115.48 125.075 117.628 123.548 119.234 121.597L123.681 119.821C126.048 118.876 127.218 116.144 126.295 113.719L126.238 113.568C126.491 113.411 126.748 113.244 127.005 113.064C128.566 111.977 130.135 110.474 130.81 108.514C130.817 108.496 130.823 108.478 130.829 108.46C131.204 107.337 131.313 105.972 131.307 104.636C131.307 104.636 131.307 104.637 131.307 104.636C131.3 103.25 131.168 101.729 130.974 100.235C130.973 100.227 130.972 100.22 130.971 100.212C130.837 99.1838 130.672 98.1519 130.493 97.1636C130.313 96.1638 130.118 95.2084 129.927 94.3462C129.953 94.2225 129.978 94.0958 130.003 93.9661C130.771 89.916 130.841 82.9724 130.034 75.1665C128.775 62.9797 125.858 53.306 123.519 53.5596ZM123.9 98.1448C123.901 98.2162 123.902 98.2874 123.903 98.3583C123.92 99.3289 123.929 100.261 123.93 101.152C123.931 102.407 123.917 103.582 123.891 104.67C123.88 105.149 123.866 105.612 123.85 106.057C123.827 106.708 123.799 107.322 123.768 107.898C124.125 108.307 124.418 108.787 124.624 109.328L124.864 109.958C125.484 109.53 126.006 109.089 126.414 108.647C126.592 108.454 126.749 108.26 126.883 108.067C127.062 107.809 127.199 107.553 127.292 107.302C127.298 107.284 127.304 107.266 127.31 107.248C127.375 107.061 127.431 106.827 127.476 106.546C127.554 106.056 127.599 105.424 127.595 104.653C127.595 104.653 127.595 104.654 127.595 104.653C127.59 103.477 127.475 102.121 127.292 100.715C127.291 100.707 127.29 100.699 127.289 100.691C127.175 99.8178 127.036 98.9387 126.886 98.0889C126.87 98.001 126.854 97.9134 126.839 97.8262L123.9 98.1448ZM130.41 115.249C131.98 113.947 133.581 112.144 134.405 109.752C135.005 108.012 135.115 106.116 135.109 104.618C135.101 103.012 134.949 101.315 134.741 99.7211C134.494 97.8241 134.151 95.9336 133.806 94.2993C134.611 89.6763 134.613 82.4869 133.816 74.7758C133.17 68.5182 132.09 62.8037 130.822 58.6003C130.198 56.5294 129.472 54.6334 128.628 53.1928C128.212 52.4838 127.653 51.6839 126.903 51.0365C126.152 50.3892 124.838 49.5923 123.11 49.7796L123.102 49.7805L123.092 49.7816L123.085 49.7824L121.187 49.9882C117.883 40.1196 112.582 32.8948 105.747 27.9166C104.536 24.4349 102.768 19.8206 100.898 15.8783C99.8613 13.6936 98.724 11.5663 97.5637 9.93159C96.9892 9.12219 96.3088 8.28924 95.5241 7.62134C94.8106 7.01404 93.5237 6.12427 91.8004 6.12427C90.5535 6.12427 89.5476 6.59452 88.8702 7.02974C88.1828 7.47139 87.6082 8.02017 87.1447 8.53451C86.2205 9.56013 85.3643 10.8711 84.5984 12.2103C84.3487 12.6468 84.0993 13.1031 83.8509 13.5751C83.2249 12.2322 82.5856 10.9471 81.9455 9.77213C81.0105 8.0559 79.9893 6.41632 78.9161 5.15448C78.3798 4.52385 77.7332 3.87098 76.9746 3.35083C76.2337 2.84286 75.121 2.28125 73.7346 2.28125C72.3481 2.28125 71.2354 2.84285 70.4946 3.35083C69.7359 3.87098 69.0893 4.52385 68.553 5.15448C67.4798 6.41632 66.4586 8.0559 65.5236 9.77213C64.8835 10.9471 64.2442 12.2322 63.6182 13.5751C63.3698 13.1031 63.1204 12.6468 62.8708 12.2103C62.1048 10.8711 61.2486 9.56013 60.3244 8.53451C59.8609 8.02018 59.2863 7.47139 58.5989 7.02974C57.9215 6.59452 56.9156 6.12427 55.6687 6.12427C53.9953 6.12427 52.7364 6.96394 52.0243 7.55464C51.2496 8.19732 50.5814 8.9976 50.0202 9.77147C48.8878 11.3332 47.7822 13.3643 46.7736 15.4556C44.9762 19.1823 43.2608 23.5778 42.0234 27.0592C33.8062 32.0519 27.1385 39.5545 23.3581 49.995L21.3948 49.7821L21.3879 49.7813L21.3795 49.7804L21.3727 49.7797C19.6445 49.5923 18.3298 50.3892 17.5794 51.0365C16.829 51.6839 16.2701 52.4839 15.8547 53.1928C15.0106 54.6334 14.2846 56.5294 13.6601 58.6003C12.3927 62.8037 11.3124 68.5182 10.6659 74.7758C10.0194 81.0335 9.90824 86.8524 10.2886 91.2329C10.476 93.3916 10.7983 95.3983 11.3279 96.9835C11.5886 97.764 11.9695 98.6599 12.5657 99.4468C13.1593 100.23 14.2711 101.285 15.9936 101.472L17.8704 101.675C17.9243 102.8 17.9876 103.853 18.0561 104.831C17.493 110.016 17.8363 115.967 20.9067 121.129C24.1453 126.574 29.9908 130.442 39.0086 131.953C48.7414 133.584 55.6214 134.471 60.8002 134.939C63.3614 137.795 65.6699 140.174 67.2362 141.744C69.8639 144.377 74.0564 144.377 76.6841 141.744C78.2317 140.193 80.504 137.852 83.0286 135.041C88.3084 134.715 94.3446 134.149 99.7839 133.373C102.779 132.946 105.638 132.449 108.111 131.881C110.522 131.328 112.804 130.657 114.507 129.808C117.157 128.487 119.549 126.893 121.493 124.789L125.091 123.352C128.489 121.995 130.481 118.685 130.41 115.249Z" fill="#0E5F9A"/>
<path d="M24.7685 59.3673C29.6681 32.6664 51.5633 22.8125 73.7646 22.8125C95.966 22.8125 114.34 31.5539 119.698 59.3673C124.418 83.8627 124.292 103.869 123.526 111.021H22.4718C21.7063 104.928 19.8689 86.0682 24.7685 59.3673Z" fill="#3E98D9"/>
<path d="M26.3543 88.2877C27.2911 84.4134 28.3065 64.8965 30.2302 55.6223C31.9399 47.7467 42.6963 31.8153 72.044 31.0943C101.392 30.3733 111.597 45.7897 113.032 53.588C114.466 61.3864 116.179 75.7266 117.641 83.3129C125.99 111.997 123.887 120.884 112.81 126.406C106.461 129.571 84.6707 131.51 74.396 131.562C68.6192 131.704 61.5585 131.877 39.6363 128.204C10.5244 123.325 25.1832 93.1305 26.3543 88.2877Z" fill="url(#paint0_linear_1768_3550)"/>
<path d="M83.6671 77.4882C84.5803 85.7042 88.1159 92.0127 96.5021 90.9567C104.888 89.9008 106.943 82.8884 106.03 74.6724C105.117 66.4564 99.1501 58.4428 92.9747 59.2204C86.7993 59.998 82.7539 69.2722 83.6671 77.4882Z" fill="white"/>
<path d="M86.969 76.8082C87.559 82.1166 89.8434 86.1924 95.2617 85.5102C100.68 84.828 102.008 80.2973 101.418 74.9889C100.828 69.6805 96.9726 64.503 92.9826 65.0053C88.9927 65.5077 86.379 71.4998 86.969 76.8082Z" fill="#0F1626"/>
<path d="M60.7157 77.4882C59.8025 85.7042 56.2669 92.0127 47.8807 90.9567C39.4946 89.9008 37.4395 82.8884 38.3526 74.6724C39.2658 66.4564 45.2327 58.4428 51.4081 59.2204C57.5835 59.998 61.6289 69.2722 60.7157 77.4882Z" fill="white"/>
<path d="M57.4138 76.8082C56.8238 82.1166 54.5394 86.1924 49.1211 85.5102C43.7028 84.828 42.375 80.2973 42.965 74.9889C43.555 69.6805 47.4103 64.503 51.4002 65.0053C55.3901 65.5077 58.0038 71.4998 57.4138 76.8082Z" fill="#0F1626"/>
<path fill-rule="evenodd" clip-rule="evenodd" d="M47.1784 48.337C44.9421 49.2 42.9242 50.4141 41.7712 51.2535C41.2536 51.6304 40.5357 51.506 40.1678 50.9757C39.8 50.4455 39.9214 49.7101 40.439 49.3332C41.7312 48.3925 43.9227 47.0759 46.3677 46.1324C48.7801 45.2014 51.6277 44.5596 54.1371 45.2064C54.7529 45.3652 55.1265 46.0053 54.9716 46.6362C54.8166 47.267 54.1918 47.6498 53.5759 47.491C51.7527 47.0211 49.4472 47.4614 47.1784 48.337ZM46.5898 53.9294C43.3849 55.1884 40.6447 57.2927 39.1263 58.8262C38.6741 59.2829 37.9461 59.2776 37.5003 58.8143C37.0544 58.3511 37.0596 57.6053 37.5118 57.1486C39.2143 55.4292 42.2153 53.1248 45.7663 51.7298C49.3227 50.3326 53.5694 49.7996 57.5993 51.8841C58.1661 52.1773 58.3936 52.8858 58.1074 53.4665C57.8212 54.0472 57.1296 54.2802 56.5627 53.987C53.3131 52.3061 49.7892 52.6725 46.5898 53.9294Z" fill="#DAAB07"/>
<path fill-rule="evenodd" clip-rule="evenodd" d="M97.4662 48.337C99.7025 49.2 101.72 50.4141 102.873 51.2535C103.391 51.6304 104.109 51.506 104.477 50.9757C104.845 50.4455 104.723 49.7101 104.206 49.3332C102.913 48.3925 100.722 47.0759 98.2768 46.1324C95.8644 45.2014 93.0168 44.5596 90.5075 45.2064C89.8916 45.3652 89.518 46.0053 89.6729 46.6362C89.8279 47.267 90.4528 47.6498 91.0686 47.491C92.8918 47.0211 95.1973 47.4614 97.4662 48.337ZM98.0548 53.9294C101.26 55.1884 104 57.2927 105.518 58.8262C105.97 59.2829 106.698 59.2776 107.144 58.8143C107.59 58.3511 107.585 57.6053 107.133 57.1486C105.43 55.4292 102.429 53.1248 98.8782 51.7298C95.3218 50.3326 91.0751 49.7996 87.0453 51.8841C86.4784 52.1773 86.2509 52.8858 86.5371 53.4665C86.8234 54.0472 87.515 54.2802 88.0818 53.987C91.3314 52.3061 94.8553 52.6725 98.0548 53.9294Z" fill="#DAAB07"/>
<path d="M87.2422 120.636C88.3393 118.774 91.9359 115.952 94.4834 115.052C98.4331 113.656 107.391 114.354 109.366 105.279" stroke="#DAAB07" stroke-width="1.5" stroke-linecap="round"/>
<path d="M56.6836 120.636C55.5864 118.774 51.9899 115.952 49.4424 115.052C45.4926 113.656 36.5351 114.354 34.5602 105.279" stroke="#DAAB07" stroke-width="1.5" stroke-linecap="round"/>
<path d="M96.4898 104.882C96.4898 115.569 79.8734 133.166 73.9924 139.059C72.8501 140.204 71.0694 140.204 69.9271 139.059C64.0461 133.166 47.4297 115.569 47.4297 104.882C47.4297 91.8972 58.4122 81.3711 71.9597 81.3711C85.5073 81.3711 96.4898 91.8972 96.4898 104.882Z" fill="url(#paint1_linear_1768_3550)"/>
<mask id="mask0_1768_3550" style="mask-type:alpha" maskUnits="userSpaceOnUse" x="47" y="81" width="50" height="59">
<path d="M96.4898 104.882C96.4898 115.569 79.8734 133.166 73.9924 139.059C72.8501 140.204 71.0694 140.204 69.9271 139.059C64.0461 133.166 47.4297 115.569 47.4297 104.882C47.4297 91.8972 58.4122 81.3711 71.9597 81.3711C85.5073 81.3711 96.4898 91.8972 96.4898 104.882Z" fill="url(#paint2_linear_1768_3550)"/>
</mask>
<g mask="url(#mask0_1768_3550)">
<g style="mix-blend-mode:multiply">
<path d="M42.832 108.07C53.7143 123.33 66.4077 136.868 70.5659 141.189C71.3353 141.988 72.5876 141.988 73.357 141.189C77.5152 136.868 90.2086 123.33 101.091 108.07C94.8194 115.881 80.2134 131.502 71.9614 131.502C63.7095 131.502 49.1035 115.881 42.832 108.07Z" fill="#C4C4C4"/>
</g>
</g>
<ellipse opacity="0.4" cx="71.9583" cy="90.7939" rx="13.7981" ry="6.28221" fill="#FFF69D"/>
<path d="M73.732 6.08398C70.0531 6.08398 63.7684 22.3587 61.0859 30.4961C69.3634 31.524 81.3963 30.9244 86.3781 30.4961C83.6956 22.3587 77.4109 6.08398 73.732 6.08398Z" fill="url(#paint3_linear_1768_3550)"/>
<path d="M91.8004 9.92773C88.6471 9.92773 83.2602 23.6987 80.9609 30.5842C88.0559 31.4539 98.3698 30.9465 102.64 30.5842C100.341 23.6987 94.9537 9.92773 91.8004 9.92773Z" fill="url(#paint4_linear_1768_3550)"/>
<path d="M55.6676 9.92773C52.5143 9.92773 47.1274 23.6987 44.8281 30.5842C51.9231 31.4539 62.237 30.9465 66.5071 30.5842C64.2078 23.6987 58.8209 9.92773 55.6676 9.92773Z" fill="url(#paint5_linear_1768_3550)"/>
<path d="M21.484 98.2437C24.2909 98.548 27.587 88.9154 28.8461 76.7286C30.1051 64.5419 28.8503 54.4159 26.0433 54.1116L20.9609 53.5605L16.4016 97.6926L21.484 98.2437Z" fill="#0F1626"/>
<ellipse cx="4.26015" cy="22.1835" rx="4.26015" ry="22.1835" transform="matrix(0.994174 0.107785 -0.102764 0.994706 16.7266 53.1016)" fill="#313A52"/>
<path d="M122.996 98.2437C120.19 98.548 116.893 88.9154 115.634 76.7286C114.375 64.5419 115.63 54.4159 118.437 54.1116L123.52 53.5605L128.079 97.6927L122.996 98.2437Z" fill="#0F1626"/>
<ellipse cx="4.26015" cy="22.1835" rx="4.26015" ry="22.1835" transform="matrix(-0.994174 0.107785 0.102764 0.994706 127.754 53.1016)" fill="#313A52"/>
<path fill-rule="evenodd" clip-rule="evenodd" d="M127.294 100.715C126.927 97.9024 126.306 95.0288 125.849 93.2579L129.436 92.2852C129.925 94.1774 130.582 97.2105 130.972 100.213C131.168 101.714 131.302 103.243 131.308 104.636C131.314 105.993 131.202 107.381 130.812 108.514C130.023 110.804 128.016 112.469 126.225 113.578C124.368 114.728 122.365 115.511 121.051 115.892L120.039 112.234C121.091 111.929 122.778 111.27 124.305 110.324C125.897 109.339 126.965 108.257 127.312 107.249C127.489 106.734 127.602 105.867 127.597 104.654C127.591 103.478 127.477 102.122 127.294 100.715Z" fill="#313A52"/>
<path d="M110.339 115.035C109.416 112.61 110.587 109.878 112.954 108.933L118.669 106.65C121.036 105.705 123.703 106.904 124.626 109.329L126.297 113.72C127.22 116.144 126.049 118.877 123.682 119.822L117.967 122.104C115.6 123.05 112.933 121.851 112.01 119.426L110.339 115.035Z" fill="#313A52"/>
<mask id="mask1_1768_3550" style="mask-type:alpha" maskUnits="userSpaceOnUse" x="110" y="106" width="17" height="17">
<path d="M110.339 115.037C109.416 112.612 110.587 109.88 112.954 108.935L118.669 106.652C121.036 105.707 123.703 106.906 124.626 109.331L126.297 113.722C127.22 116.146 126.049 118.879 123.682 119.824L117.967 122.106C115.6 123.052 112.933 121.853 112.01 119.428L110.339 115.037Z" fill="#313A52"/>
</mask>
<g mask="url(#mask1_1768_3550)">
<path d="M120.17 115.936C117.103 118.449 112.248 118.554 110.203 118.292C110.203 119.863 116.337 126.146 122.47 123.004C127.377 120.491 127.071 113.056 126.304 109.652C125.537 110.7 123.237 113.422 120.17 115.936Z" fill="#0F1626"/>
</g>
<defs>
<linearGradient id="paint0_linear_1768_3550" x1="69.8288" y1="39.0038" x2="72.1046" y2="131.637" gradientUnits="userSpaceOnUse">
<stop stop-color="#FBEE74"/>
<stop offset="1" stop-color="#EDDD44"/>
</linearGradient>
<linearGradient id="paint1_linear_1768_3550" x1="71.9597" y1="81.3711" x2="71.9597" y2="141.052" gradientUnits="userSpaceOnUse">
<stop stop-color="#983232"/>
<stop offset="1" stop-color="#671B1B"/>
</linearGradient>
<linearGradient id="paint2_linear_1768_3550" x1="71.9597" y1="81.3711" x2="71.9597" y2="141.052" gradientUnits="userSpaceOnUse">
<stop stop-color="#983232"/>
<stop offset="1" stop-color="#671B1B"/>
</linearGradient>
<linearGradient id="paint3_linear_1768_3550" x1="73.732" y1="6.08398" x2="73.732" y2="31.0637" gradientUnits="userSpaceOnUse">
<stop stop-color="#046CB8"/>
<stop offset="1" stop-color="#3E98D9"/>
</linearGradient>
<linearGradient id="paint4_linear_1768_3550" x1="91.8004" y1="9.92773" x2="91.8004" y2="31.0644" gradientUnits="userSpaceOnUse">
<stop stop-color="#046CB8"/>
<stop offset="1" stop-color="#3E98D9"/>
</linearGradient>
<linearGradient id="paint5_linear_1768_3550" x1="55.6676" y1="9.92773" x2="55.6676" y2="31.0644" gradientUnits="userSpaceOnUse">
<stop stop-color="#046CB8"/>
<stop offset="1" stop-color="#3E98D9"/>
</linearGradient>
</defs>
</svg>
