<svg width="145" height="146" viewBox="0 0 145 146" fill="none" xmlns="http://www.w3.org/2000/svg">
<g clip-path="url(#clip0_1768_3766)">
<path fill-rule="evenodd" clip-rule="evenodd" d="M43.453 12.2849C43.8631 6.83659 48.582 2.75455 53.993 3.16743L127.888 8.80577C133.299 9.21864 137.353 13.9701 136.943 19.4184L128.714 128.747C128.304 134.195 123.586 138.277 118.175 137.865L111.016 137.318C109.869 137.889 108.593 138.24 107.242 138.316L34.1058 142.434C28.7263 142.736 24.1216 138.591 23.8208 133.174L17.8124 24.9677C17.5116 19.5511 21.6287 14.9146 27.0082 14.6117L43.3471 13.6919L43.453 12.2849ZM46.8623 17.302L47.2183 12.5722C47.4708 9.21771 50.3761 6.70444 53.7076 6.95864L127.602 12.597C130.934 12.8512 133.43 15.7766 133.177 19.1311L124.949 128.46C124.697 131.814 121.791 134.328 118.46 134.073L110.132 133.438C109.25 134.063 108.188 134.455 107.031 134.52L33.8951 138.637C30.5977 138.823 27.7753 136.282 27.591 132.962L21.5825 24.7555C21.3982 21.4354 23.9217 18.5935 27.219 18.4079L46.8623 17.302Z" fill="#B0ADAB"/>
<path d="M21.5838 24.7537C21.3994 21.4336 23.923 18.5917 27.2203 18.4061L100.357 14.2888C103.654 14.1032 106.476 16.6441 106.661 19.9642L112.669 128.171C112.853 131.491 110.33 134.333 107.033 134.518L33.8963 138.636C30.599 138.821 27.7766 136.28 27.5922 132.96L21.5838 24.7537Z" fill="#D6D6D6"/>
<path d="M47.2187 12.5719C47.4711 9.21739 50.3765 6.70412 53.708 6.95832L127.603 12.5967C130.934 12.8509 133.43 15.7763 133.178 19.1308L124.95 128.46C124.697 131.814 121.792 134.327 118.46 134.073L44.5656 128.435C41.2341 128.181 38.738 125.255 38.9905 121.901L47.2187 12.5719Z" fill="#FFFAF8"/>
<path d="M54.2446 19.9787C54.4655 17.0435 56.8714 14.834 59.6185 15.0436L120.549 19.6927C123.296 19.9023 125.344 22.4517 125.123 25.3869L117.923 121.05C117.703 123.985 115.297 126.194 112.55 125.985L51.6189 121.335C48.8718 121.126 46.824 118.576 47.0449 115.641L54.2446 19.9787Z" fill="#E68F71"/>
<path d="M86.8681 99.4346C93.8987 94.074 105.375 100.847 107.594 71.3737C107.697 69.9986 107.677 68.6428 107.542 67.3175C90.4762 60.342 70.8922 62.1571 63.2335 63.9366C62.9021 65.2264 62.6791 66.5636 62.5756 67.9387C60.3575 97.4118 72.7168 92.4577 78.8649 98.8239C80.6827 100.706 82.088 101.846 82.6587 101.89C83.2294 101.933 84.7892 101.02 86.8681 99.4346Z" fill="#443321"/>
<path fill-rule="evenodd" clip-rule="evenodd" d="M101.305 70.7984C102.816 70.9048 103.955 72.2244 103.849 73.7458C103.757 75.0744 103.451 79.1609 101.998 82.7771C101.429 84.1908 99.8305 84.8729 98.4265 84.3007C97.0225 83.7285 96.345 82.1186 96.9133 80.7049C98.0096 77.9779 98.2862 74.6764 98.3777 73.3604C98.4834 71.839 99.7939 70.692 101.305 70.7984Z" fill="#E68F71"/>
<ellipse cx="2.79171" cy="2.81074" rx="2.79171" ry="2.81074" transform="matrix(0.997016 0.0771891 -0.0761411 0.997097 93.0469 84.8008)" fill="#E68F71"/>
<path fill-rule="evenodd" clip-rule="evenodd" d="M87.1115 47.2953C81.833 44.548 70.2545 40.8544 64.2305 47.1782C58.1128 53.6004 60.9486 59.5913 63.1313 61.784C66.0321 60.8324 74.6693 59.1543 86.1432 59.9945C97.6247 60.9025 105.922 63.8753 108.649 65.2573C111.135 63.4208 114.835 57.9285 109.749 50.6514C104.74 43.4859 92.741 45.3803 87.1115 47.2953Z" fill="#FDD849"/>
<path d="M88.0997 48.1088C87.6732 48.7953 86.6502 48.7172 86.3313 47.9738L84.0318 42.6129C83.7357 41.9226 84.2771 41.1651 85.0257 41.2222L90.4009 41.6323C91.1495 41.6895 91.5713 42.5205 91.1753 43.1579L88.0997 48.1088Z" fill="#FDD849"/>
<path fill-rule="evenodd" clip-rule="evenodd" d="M84.9046 57.364C76.7527 55.5498 68.2706 57.2613 65.0815 58.3357C64.7137 58.4596 64.3158 58.2599 64.1927 57.8895C64.0696 57.5192 64.268 57.1185 64.6358 56.9945C67.9848 55.8663 76.7349 54.0974 85.2078 55.9831C85.5865 56.0674 85.8256 56.4448 85.7419 56.8262C85.6582 57.2075 85.2833 57.4483 84.9046 57.364Z" fill="#E68F71"/>
<path fill-rule="evenodd" clip-rule="evenodd" d="M81.6249 54.172C75.515 52.9824 69.2098 54.2776 66.8538 55.0654C66.4857 55.1885 66.0882 54.9878 65.966 54.6171C65.8438 54.2465 66.0431 53.8463 66.4112 53.7232C68.921 52.884 75.4782 51.5348 81.8916 52.7835C82.2724 52.8576 82.5214 53.2286 82.4477 53.612C82.3741 53.9954 82.0057 54.2462 81.6249 54.172Z" fill="#E68F71"/>
<path fill-rule="evenodd" clip-rule="evenodd" d="M78.4169 50.959C74.1633 50.1309 69.7648 51.0341 68.13 51.5807C67.7619 51.7038 67.3644 51.5031 67.2422 51.1325C67.1199 50.7618 67.3192 50.3616 67.6873 50.2385C69.4759 49.6405 74.1266 48.6833 78.6836 49.5705C79.0644 49.6446 79.3134 50.0156 79.2398 50.399C79.1661 50.7825 78.7977 51.0332 78.4169 50.959Z" fill="#E68F71"/>
</g>
<defs>
<clipPath id="clip0_1768_3766">
<rect width="145" height="146" fill="white"/>
</clipPath>
</defs>
</svg>
