<svg width="146" height="146" viewBox="0 0 146 146" fill="none" xmlns="http://www.w3.org/2000/svg">
<g clip-path="url(#clip0_1769_3917)">
<path fill-rule="evenodd" clip-rule="evenodd" d="M86.4474 27.1176L83.7826 29.8295L66.8991 13.2388C61.8868 8.31331 53.4473 10.342 51.2212 17.0074L43.7227 39.4591C43.322 40.6586 42.3512 41.5804 41.1325 41.9184L18.3228 48.2445C11.551 50.1226 9.08817 58.4458 13.7475 63.7064L29.442 81.4261C30.2805 82.3728 30.5934 83.6745 30.2768 84.8989L26.5958 83.947L10.9013 66.2273C4.37824 58.8624 7.82621 47.2101 17.3066 44.5808L40.1164 38.2546L40.1164 38.2546L47.6149 15.803C50.7315 6.47141 62.5467 3.63126 69.564 10.5269L86.4474 27.1176ZM104.721 103.702L105.737 107.365L128.547 101.039C138.027 98.4099 141.475 86.7576 134.952 79.3927L119.258 61.673L125.184 38.7561C127.647 29.2312 119.28 20.419 109.64 22.3857L86.4475 27.1176L83.7826 29.8295C84.6846 30.7159 85.9684 31.0958 87.2075 30.843L110.4 26.111C117.286 24.7062 123.263 31.0007 121.503 37.8042L115.577 60.7211C115.26 61.9455 115.573 63.2472 116.412 64.1939L132.106 81.9136C136.766 87.1743 134.303 95.4974 127.531 97.3755L104.721 103.702ZM104.721 103.702C103.503 104.04 102.532 104.961 102.131 106.161L94.6325 128.613C92.4064 135.278 83.9669 137.307 78.9546 132.381L62.0711 115.791C61.1691 114.904 59.8853 114.524 58.6461 114.777L35.4532 119.509C28.5677 120.914 22.5911 114.619 24.3505 107.816L30.2768 84.8989L26.5958 83.947L20.6695 106.864C18.2063 116.389 26.5736 125.201 36.2133 123.234L59.4062 118.502L76.2897 135.093C83.307 141.989 95.1222 139.149 98.2388 129.817L105.737 107.365L104.721 103.702Z" fill="#EEB000"/>
<path d="M51.221 17.007C53.4472 10.3416 61.8866 8.3129 66.899 13.2383L83.7824 29.8291C84.6845 30.7155 85.9682 31.0954 87.2074 30.8426L110.4 26.1106C117.286 24.7058 123.262 31.0003 121.503 37.8038L115.577 60.7207C115.26 61.9451 115.573 63.2468 116.412 64.1935L132.106 81.9132C136.765 87.1738 134.303 95.497 127.531 97.3751L104.721 103.701C103.502 104.039 102.531 104.961 102.131 106.161L94.6324 128.612C92.4062 135.278 83.9668 137.306 78.9544 132.381L62.071 115.79C61.1689 114.904 59.8852 114.524 58.646 114.777L35.4531 119.509C28.5676 120.913 22.591 114.619 24.3503 107.815L30.2766 84.8985C30.5933 83.6741 30.2804 82.3724 29.4418 81.4257L13.7474 63.706C9.08804 58.4454 11.5509 50.1222 18.3226 48.2441L41.1324 41.918C42.351 41.58 43.3219 40.6582 43.7225 39.4586L51.221 17.007Z" fill="url(#paint0_radial_1769_3917)"/>
<path d="M79.0227 34.0034L62.4755 48.7155C59.1418 51.6796 58.7431 56.8217 62.0074 59.862C76.1764 73.0587 89.1851 72.5456 96.9962 69.2027C100.115 67.8679 101.112 64.2103 100.042 60.9907L92.2549 37.547C90.3975 31.9556 83.4258 30.0886 79.0227 34.0034Z" fill="url(#paint1_linear_1769_3917)"/>
<path d="M67.6263 110.582L84.381 96.1063C87.7565 93.19 88.2283 88.054 85.0076 84.9676C71.0277 71.5708 58.013 71.8989 50.1551 75.1304C47.0175 76.4207 45.969 80.0637 46.9926 83.2982L54.4459 106.85C56.2235 112.468 63.168 114.434 67.6263 110.582Z" fill="url(#paint2_linear_1769_3917)"/>
</g>
<defs>
<radialGradient id="paint0_radial_1769_3917" cx="0" cy="0" r="1" gradientUnits="userSpaceOnUse" gradientTransform="translate(72.9267 72.8096) rotate(76.4838) scale(63.8006 56.5381)">
<stop offset="0.478692" stop-color="#FFF24F"/>
<stop offset="1" stop-color="#F6C103"/>
</radialGradient>
<linearGradient id="paint1_linear_1769_3917" x1="83.8707" y1="77.878" x2="86.7196" y2="34.297" gradientUnits="userSpaceOnUse">
<stop offset="0.421397" stop-color="#FFEE19" stop-opacity="0.5"/>
<stop offset="0.931844" stop-color="#F4BF00"/>
</linearGradient>
<linearGradient id="paint2_linear_1769_3917" x1="63.4027" y1="66.6426" x2="59.9344" y2="110.179" gradientUnits="userSpaceOnUse">
<stop offset="0.421397" stop-color="#FFEE19" stop-opacity="0.5"/>
<stop offset="0.931844" stop-color="#F4BF00"/>
</linearGradient>
<clipPath id="clip0_1769_3917">
<rect width="146" height="146" fill="white"/>
</clipPath>
</defs>
</svg>
