<svg width="145" height="146" viewBox="0 0 145 146" fill="none" xmlns="http://www.w3.org/2000/svg">
<path fill-rule="evenodd" clip-rule="evenodd" d="M135.057 108.093L135.049 108.11C129.967 118.331 110.851 132.955 73.7111 132.955C28.4701 132.955 11.9051 119.136 7.22644 107.876C6.05636 105.059 5.44151 101.218 5.31146 96.9518C5.17924 92.615 5.54066 87.5716 6.50633 82.209C8.24875 72.5329 11.9976 61.6079 18.5925 51.797C16.4291 49.8302 14.4305 47.2965 13.0799 44.4182C11.0216 40.0317 10.361 34.5332 13.4015 29.2017C16.812 23.2212 20.9017 18.8918 25.9299 16.2025C30.953 13.5159 36.5694 12.65 42.721 13.0025C48.6609 13.3429 52.4203 16.9929 54.5687 20.9584C55.8036 23.2379 56.5804 25.7259 57.0414 28.0377C63.6318 26.7543 69.614 26.4127 73.7859 26.5744C78.4138 26.5775 82.6732 26.8652 86.5845 27.3796C87.102 25.0572 87.9473 22.5791 89.2693 20.3376C91.4693 16.6071 95.1573 13.3239 100.766 13.0025C106.918 12.65 112.534 13.5159 117.557 16.2025C122.585 18.8918 126.675 23.2212 130.086 29.2017C132.962 34.2465 132.529 39.4601 130.714 43.7316C129.486 46.6226 127.598 49.1786 125.527 51.2011C141.841 77.3626 139.317 99.3058 135.065 108.076L135.057 108.093ZM120.535 50.4477C125.735 46.7809 131.129 38.6676 126.811 31.095C120.511 20.0476 112.321 16.1486 100.981 16.7984C94.5459 17.1672 91.5342 22.7884 90.3269 27.9579C90.0205 29.2697 89.8304 30.5523 89.7299 31.7127C88.5248 31.4968 87.2786 31.3037 85.9905 31.136C82.2572 30.6498 78.1714 30.3765 73.7111 30.3765C69.7846 30.2176 63.9784 30.5421 57.5527 31.8109C56.3282 32.0527 55.0811 32.3288 53.8202 32.6424C53.7646 31.5033 53.6183 30.2013 53.3508 28.8441C52.2879 23.4522 49.3111 17.1884 42.5065 16.7984C31.1663 16.1486 22.9762 20.0476 16.6761 31.095C12.8992 37.7178 16.5517 44.7542 21.0059 48.868C21.9228 49.7148 22.8737 50.4378 23.8007 51.0078C23.0326 52.0248 22.2993 53.059 21.5998 54.1071C8.55765 73.6461 7.22717 98.0259 10.7099 106.408C14.49 115.506 28.9802 129.153 73.7111 129.153C110.056 129.153 127.472 114.856 131.672 106.408C135.395 98.7282 138.262 76.9296 120.535 50.4477Z" fill="#6F3700"/>
<path d="M100.983 16.7972C91.9109 17.3171 89.6429 28.2778 89.6429 33.6932C102.747 33.6932 114.003 45.8236 117.993 51.8888C123.664 49.506 131.854 39.9316 126.814 31.0938C120.513 20.0464 112.323 16.1474 100.983 16.7972Z" fill="url(#paint0_linear_1768_3486)"/>
<path d="M99.2119 25.8949C96.1878 29.534 95.8518 35.2093 96.0618 37.5921L110.552 45.3902C121.892 42.1409 121.262 34.9927 118.742 31.0936C116.222 27.1946 102.992 21.346 99.2119 25.8949Z" fill="#FC888E"/>
<g style="mix-blend-mode:multiply" opacity="0.2">
<mask id="mask0_1768_3486" style="mask-type:alpha" maskUnits="userSpaceOnUse" x="89" y="16" width="40" height="36">
<path d="M100.983 16.7972C91.9109 17.3171 89.6429 28.2778 89.6429 33.6932C102.747 33.6932 114.003 45.8236 117.993 51.8888C123.664 49.506 131.854 39.9316 126.814 31.0938C120.513 20.0464 112.323 16.1474 100.983 16.7972Z" fill="#9A4F01"/>
</mask>
<g mask="url(#mask0_1768_3486)">
<path d="M125.367 46.385C117.485 36.2533 107.089 30.7048 93.648 30.4162C90.5969 30.3507 85.0449 30.6077 83.0751 31.9371C92.085 35.6071 114.819 47.7014 120.299 62.1551C124.219 58.3032 129.28 51.4148 125.367 46.385Z" fill="#7D4000"/>
</g>
</g>
<path d="M42.5091 16.7972C51.5812 17.3171 53.8493 28.2778 53.8493 33.6932C40.745 33.6932 29.4888 45.8236 25.4988 51.8888C19.8287 49.506 11.6386 39.9316 16.6787 31.0938C22.9788 20.0464 31.1689 16.1474 42.5091 16.7972Z" fill="url(#paint1_linear_1768_3486)"/>
<path d="M44.2803 25.8949C47.3043 29.534 47.6403 35.2093 47.4303 37.5921L32.9401 45.3902C21.5999 42.1409 22.2299 34.9927 24.7499 31.0936C27.27 27.1946 40.5002 21.346 44.2803 25.8949Z" fill="#FC888E"/>
<g style="mix-blend-mode:multiply" opacity="0.2">
<mask id="mask1_1768_3486" style="mask-type:alpha" maskUnits="userSpaceOnUse" x="15" y="16" width="39" height="36">
<path d="M42.5091 16.7972C51.5812 17.3171 53.8493 28.2778 53.8493 33.6932C40.745 33.6932 29.4888 45.8236 25.4988 51.8888C19.8287 49.506 11.6386 39.9316 16.6787 31.0938C22.9788 20.0464 31.1689 16.1474 42.5091 16.7972Z" fill="#9A4F01"/>
</mask>
<g mask="url(#mask1_1768_3486)">
<path d="M17.3707 49.4269C24.0526 37.8856 40.18 30.7051 53.6207 30.4165C56.6719 30.351 56.1822 31.3683 58.1519 32.6977C49.142 36.3677 28.674 47.7016 23.194 62.1553C19.2741 58.3035 14.1749 54.9467 17.3707 49.4269Z" fill="#7D4000"/>
</g>
</g>
<path d="M25.2015 49.2207C38.3057 33.1045 63.0022 29.942 73.7123 30.3752C103.953 30.3752 116.973 42.9388 119.703 49.2207C138.351 76.2542 135.453 98.6088 131.673 106.407C127.473 114.855 110.057 129.151 73.7123 129.151C28.9815 129.151 14.4913 115.505 10.7112 106.407C6.93116 97.3091 8.82119 69.3658 25.2015 49.2207Z" fill="url(#paint2_linear_1768_3486)"/>
<ellipse cx="71.0124" cy="107.057" rx="22.6804" ry="16.2461" fill="url(#paint3_radial_1768_3486)"/>
<ellipse cx="70.987" cy="101.895" rx="6.04167" ry="3.04167" fill="#41170E"/>
<path d="M29.2356 56.3694C39.9458 45.322 50.0259 42.7227 72.7064 42.7227C97.9068 42.7227 110.927 51.8205 114.287 56.3694C132.557 81.0634 124.367 103.158 107.357 103.158C90.3467 103.158 87.8266 88.8615 72.7064 88.8615C57.5861 88.8615 58.2161 100.559 36.1657 103.158C14.1153 105.757 12.8553 73.2653 29.2356 56.3694Z" fill="#4E2219"/>
<g style="mix-blend-mode:multiply" opacity="0.1">
<mask id="mask2_1768_3486" style="mask-type:alpha" maskUnits="userSpaceOnUse" x="9" y="30" width="126" height="100">
<path d="M25.2015 49.2207C38.3057 33.1045 63.0022 29.942 73.7123 30.3752C103.953 30.3752 116.973 42.9388 119.703 49.2207C138.351 76.2542 135.453 98.6088 131.673 106.407C127.473 114.855 110.057 129.151 73.7123 129.151C28.9815 129.151 14.4913 115.505 10.7112 106.407C6.93116 97.3091 8.82119 69.3658 25.2015 49.2207Z" fill="#B66919"/>
</mask>
<g mask="url(#mask2_1768_3486)">
<path d="M84.8035 112.308C27.2577 116.951 -13.2044 91.868 -26.2422 78.7461C-11.5193 115.355 14.4837 149.479 87.5577 143.583C146.017 138.867 172.302 87.401 178.137 62.2574C171.003 77.0067 142.349 107.666 84.8035 112.308Z" fill="#9E560A"/>
</g>
</g>
<path d="M53.8645 82.6989C53.4534 90.6675 46.6117 97.5278 39.4613 97.1538C32.3108 96.7798 27.5593 89.3131 27.9704 81.3445C28.3816 73.3759 34.5114 67.2192 41.6619 67.5932C48.8123 67.9672 54.2757 74.7303 53.8645 82.6989Z" fill="#34140E"/>
<path d="M88.5378 82.6989C88.9489 90.6675 95.7906 97.5278 102.941 97.1538C110.092 96.7798 114.843 89.3131 114.432 81.3445C114.021 73.3759 107.891 67.2192 100.74 67.5932C93.59 67.9672 88.1267 74.7303 88.5378 82.6989Z" fill="#34140E"/>
<ellipse cx="41.2994" cy="77.1641" rx="12.6002" ry="16.2461" fill="white"/>
<ellipse cx="41.2984" cy="77.8135" rx="7.56013" ry="10.3975" fill="#214DBE"/>
<path d="M41.2994 60.918C34.3405 60.918 28.6992 68.1916 28.6992 77.1641C28.6992 78.7431 28.8739 80.2695 29.1998 81.713L51.7402 68.0662C49.4748 63.7529 45.6439 60.918 41.2994 60.918Z" fill="url(#paint4_linear_1768_3486)"/>
<ellipse cx="12.6002" cy="16.2461" rx="12.6002" ry="16.2461" transform="matrix(-1 0 0 1 113.949 60.918)" fill="white"/>
<ellipse cx="7.56013" cy="10.3975" rx="7.56013" ry="10.3975" transform="matrix(-1 0 0 1 108.91 67.416)" fill="#214DBE"/>
<path d="M101.349 60.918C108.308 60.918 113.949 68.1916 113.949 77.1641C113.949 78.7431 113.774 80.2695 113.449 81.713L90.9083 68.0662C93.1736 63.7529 97.0045 60.918 101.349 60.918Z" fill="url(#paint5_linear_1768_3486)"/>
<defs>
<linearGradient id="paint0_linear_1768_3486" x1="109.015" y1="16.7285" x2="109.015" y2="51.8888" gradientUnits="userSpaceOnUse">
<stop stop-color="#C87927"/>
<stop offset="1" stop-color="#9A4F01"/>
</linearGradient>
<linearGradient id="paint1_linear_1768_3486" x1="34.4774" y1="16.7285" x2="34.4774" y2="51.8888" gradientUnits="userSpaceOnUse">
<stop stop-color="#C87927"/>
<stop offset="1" stop-color="#9A4F01"/>
</linearGradient>
<linearGradient id="paint2_linear_1768_3486" x1="72.5" y1="30.416" x2="71.7551" y2="129.151" gradientUnits="userSpaceOnUse">
<stop stop-color="#DB8935"/>
<stop offset="0.885417" stop-color="#B66919"/>
</linearGradient>
<radialGradient id="paint3_radial_1768_3486" cx="0" cy="0" r="1" gradientUnits="userSpaceOnUse" gradientTransform="translate(71.0124 107.057) rotate(90) scale(13.6467 18.5853)">
<stop offset="0.598958" stop-color="#4E2219"/>
<stop offset="0.838542" stop-color="#4E2219" stop-opacity="0"/>
</radialGradient>
<linearGradient id="paint4_linear_1768_3486" x1="40.2197" y1="60.918" x2="40.2197" y2="81.713" gradientUnits="userSpaceOnUse">
<stop stop-color="#DB8935"/>
<stop offset="1" stop-color="#AF6217"/>
</linearGradient>
<linearGradient id="paint5_linear_1768_3486" x1="102.429" y1="60.918" x2="102.429" y2="81.713" gradientUnits="userSpaceOnUse">
<stop stop-color="#DB8935"/>
<stop offset="1" stop-color="#AF6217"/>
</linearGradient>
</defs>
</svg>
