<svg width="464" height="726" viewBox="0 0 464 726" fill="none" xmlns="http://www.w3.org/2000/svg">
<path d="M152.736 677.096L148.711 676.199L147.937 680.25C147.095 684.657 146.395 690.77 146.963 696.831C147.524 702.813 149.383 709.383 154.277 713.93C155.509 715.075 157.373 716.132 159.342 716.994C161.398 717.895 163.89 718.722 166.59 719.274C171.88 720.355 178.589 720.494 184.351 717.281C191.005 713.569 195.276 704.525 195.995 690.142L196.163 686.772L192.87 686.038L152.736 677.096Z" fill="#673005" stroke="#390B01" stroke-width="8"/>
<path d="M266.297 686.511L263.115 686.274L262.177 689.324C259.907 696.701 259.871 706.465 265.536 715.348C266.707 717.186 268.801 718.445 270.613 719.273C272.606 720.184 275.025 720.916 277.607 721.351C282.683 722.204 289.081 722.015 294.462 718.986C297.812 717.1 300.594 713.178 302.503 708.881C304.481 704.429 305.816 698.928 305.816 693.165L305.816 689.452L302.113 689.176L266.297 686.511Z" fill="#673005" stroke="#390B01" stroke-width="8"/>
<path d="M162.614 611.541L164.816 614.88L162.614 611.541C161.041 612.577 160.266 614.045 159.87 615.248C156.416 625.739 152.283 640.255 149.097 653.14C147.504 659.584 146.137 665.665 145.21 670.66C144.318 675.458 143.724 679.776 143.954 682.375C144.033 683.261 144.291 684.129 144.768 684.949C145.777 686.683 147.335 688.049 148.961 689.121C150.623 690.216 152.591 691.159 154.714 691.96C158.959 693.561 164.164 694.723 169.579 695.313C180.173 696.468 192.813 695.558 200.99 690.203C202.817 689.007 203.845 687.161 204.215 685.357L215.517 630.26C221.596 627.549 233.844 623.448 245.049 621.923C250.727 621.15 255.777 621.092 259.517 621.983C263.09 622.834 264.793 624.339 265.444 626.321C264.595 634.277 262.992 647.774 261.48 660.39C261.187 662.83 260.898 665.238 260.619 667.566C259.451 677.296 258.449 685.633 258.073 689.103C258.006 689.722 257.99 690.488 258.184 691.353C259.011 695.054 261.795 698.011 265.009 700.127C268.31 702.299 272.552 703.924 277.254 704.793C286.672 706.535 298.479 705.345 309.355 698.695C311.04 697.664 312.232 696.041 312.754 694.197C317.143 678.686 323.37 643.473 328.316 609.529C329.005 604.8 325.417 600.498 320.595 600.401C293.639 599.86 258.111 600.177 227.54 601.786C212.262 602.59 198.153 603.72 186.945 605.24C181.345 605.999 176.399 606.865 172.362 607.855C168.439 608.817 164.967 609.989 162.614 611.541Z" fill="#4A514D" stroke="#1B2822" stroke-width="8"/>
<path d="M148.007 682.415C148.055 682.596 148.127 682.768 148.226 682.937C152.885 690.947 184.808 696.019 198.799 686.857C199.596 686.334 200.105 685.487 200.297 684.553L211.613 629.389C211.857 628.195 212.611 627.181 213.722 626.681C221.679 623.101 239.818 617.235 253.325 617.33C248.628 601.559 210.35 613 197.722 618.681C196.611 619.181 195.857 620.195 195.613 621.389L184.297 676.553C184.105 677.487 183.596 678.334 182.799 678.857C174.403 684.355 159.551 684.727 148.007 682.415Z" fill="#383F3B"/>
<path d="M263.252 693.073C268.591 700.925 289.299 706.27 307.268 695.282C308.069 694.792 308.65 694.011 308.905 693.108C313.212 677.885 319.408 642.921 324.358 608.952C324.703 606.583 322.91 604.448 320.515 604.4C316.481 604.319 312.253 604.257 307.879 604.217C303.013 637.139 297.075 670.372 292.905 685.108C292.65 686.011 292.069 686.792 291.268 687.282C281.808 693.067 271.588 694.325 263.252 693.073Z" fill="#383F3B"/>
<path d="M123.008 571.668C123.248 585.588 129.157 604.688 146.169 620.904C163.205 637.144 191.06 650.201 234.707 652.654C254.544 654.033 284.177 651.594 309.44 639.74C334.921 627.784 356.172 606.081 357.89 569.299C358.104 564.707 354.358 560.995 349.876 561.053L130.739 563.871C126.672 563.923 122.929 567.135 123.008 571.668Z" fill="#4A514D" stroke="#1B2822" stroke-width="8"/>
<path d="M152.033 620.82C168.059 629.603 189.805 636.026 218.958 637.662C256.377 640.271 329.314 628.868 337.289 565.215L349.927 565.052C352.164 565.024 353.998 566.877 353.894 569.112C350.629 639.026 273.728 651.366 234.958 648.662C194.634 646.4 168.481 634.977 152.033 620.82Z" fill="#383F3B"/>
<circle cx="3.5" cy="3.5" r="3.5" transform="matrix(-1 0 0 1 309.215 619)" fill="#2A312D"/>
<circle cx="2.5" cy="2.5" r="2.5" transform="matrix(-1 0 0 1 322.215 617)" fill="#2A312D"/>
<circle cx="2.5" cy="2.5" r="2.5" transform="matrix(-1 0 0 1 330.215 607)" fill="#2A312D"/>
<circle cx="2.5" cy="2.5" r="2.5" transform="matrix(-1 0 0 1 302.215 629)" fill="#2A312D"/>
<circle cx="2.5" cy="2.5" r="2.5" transform="matrix(-1 0 0 1 297.215 620)" fill="#2A312D"/>
<circle cx="2.5" cy="2.5" r="2.5" transform="matrix(-1 0 0 1 291.215 633)" fill="#2A312D"/>
<circle cx="2.5" cy="2.5" r="2.5" transform="matrix(-1 0 0 1 315.215 611)" fill="#2A312D"/>
<circle cx="2.5" cy="2.5" r="2.5" transform="matrix(-1 0 0 1 277.215 637)" fill="#2A312D"/>
<path d="M401.37 596.879C437.58 591.276 463.744 560.521 458.613 527.366C456.044 510.764 444.915 495.622 430.204 485.379C415.465 475.116 396.673 469.442 378.237 472.295C360.637 475.018 335.817 482.166 316.375 494.162C297.055 506.082 281.727 523.733 286.653 547.425C291.582 571.13 312.279 584.751 334.907 591.765C357.65 598.814 383.573 599.633 401.37 596.879Z" fill="#673005" stroke="#390B01" stroke-width="8"/>
<path d="M384.758 584.926C419.252 579.588 443.385 550.51 438.66 519.978C436.207 504.128 425.166 489.355 410.289 479.559C432.84 487.614 451.388 506.838 454.66 527.978C459.385 558.51 435.252 587.588 400.758 592.926C377.051 596.595 338.119 593.716 313.176 577.556C336.747 586.591 365.681 587.878 384.758 584.926Z" fill="#592802"/>
<circle cx="438.254" cy="530.254" r="6.65459" transform="rotate(16.288 438.254 530.254)" fill="#4B2202"/>
<circle cx="438.254" cy="553.254" r="6.65459" transform="rotate(16.288 438.254 553.254)" fill="#4B2202"/>
<circle cx="429.543" cy="570.544" r="4.4694" transform="rotate(16.288 429.543 570.544)" fill="#4B2202"/>
<circle cx="418.543" cy="544.544" r="4.4694" transform="rotate(16.288 418.543 544.544)" fill="#4B2202"/>
<circle cx="423.543" cy="521.544" r="4.4694" transform="rotate(16.288 423.543 521.544)" fill="#4B2202"/>
<circle cx="437.543" cy="512.544" r="4.4694" transform="rotate(16.288 437.543 512.544)" fill="#4B2202"/>
<circle cx="424.543" cy="498.544" r="4.4694" transform="rotate(16.288 424.543 498.544)" fill="#4B2202"/>
<circle cx="419.543" cy="561.544" r="4.4694" transform="rotate(16.288 419.543 561.544)" fill="#4B2202"/>
<path d="M178.254 352.105L176.99 346.6L172.216 349.62C158.726 358.154 136.328 374.001 114.357 393.363C92.4497 412.669 70.636 435.755 58.6778 458.795C56.1502 463.665 53.3904 472.198 53.0378 481.641C52.6836 491.124 54.753 501.949 62.4324 510.817L65.4563 508.199L62.4324 510.817C64.5165 513.224 68.143 515.853 72.3679 518.011C76.6569 520.202 81.9067 522.083 87.4127 522.746C92.9276 523.41 98.8869 522.867 104.341 519.968C109.85 517.039 114.441 511.917 117.52 504.169C119.143 500.084 120.987 495.3 123.025 490.014C128.946 474.656 136.502 455.058 145.007 436.059C150.714 423.31 156.803 410.937 163.045 400.414C169.326 389.828 175.598 381.396 181.594 376.288L183.441 374.714L182.899 372.348L178.254 352.105Z" fill="#DFEFF8" stroke="#A7B9C8" stroke-width="8"/>
<path d="M75.0001 460.5C98.8669 415.81 162.824 369.848 190.227 353L195 373.217C168.269 395.35 140.906 470.933 128 502.5C116.553 530.5 85 515.5 78.3175 508C64.317 492.287 70.3463 469.214 75.0001 460.5Z" fill="#BBD7E6"/>
<path d="M332.029 453.465C335.503 453.002 338.918 451.797 342.204 450.112C342.719 453.571 344.29 457.25 347.675 460.148C353.138 464.828 362.174 466.471 375.702 463.519L375.714 463.516C385.537 461.34 410.419 451.797 434.714 430.661C439.869 426.269 446.467 418.447 449.434 409.034C452.487 399.348 451.629 388.033 441.801 377.726C435.384 370.351 417.271 360.584 392.717 372.775C385.258 376.478 376.092 384.307 367.647 394.279C334.847 367.791 289.312 350.158 268.614 344.158L266.828 343.641L265.281 344.672L247.281 356.672L243.398 359.261L246.551 362.702L328.551 452.202L329.96 453.741L332.029 453.465Z" fill="#DFEFF8" stroke="#A7B9C8" stroke-width="8"/>
<path d="M376.5 415.5C344.5 383.9 290.5 362.667 267.5 356L249.5 368L331.5 457.5C349.5 455.1 369 428.5 376.5 415.5Z" fill="#AAC8D8"/>
<path d="M346.387 444C346.33 444.296 346.274 444.593 346.221 444.889C344.911 452.165 348.803 465.296 374.849 459.611C384.017 457.58 408.304 448.341 432.105 427.629C441.647 419.507 456.354 398.694 438.841 380.419C436.851 378.105 433.28 375.323 428.361 373.385C434.257 388.736 422.94 403.96 415.105 410.629C391.304 431.341 367.017 440.58 357.849 442.611C353.414 443.579 349.621 444.001 346.387 444Z" fill="#BBD7E7"/>
<path d="M443.353 413.225C454.893 404.99 456.439 388.484 447.94 376.575C439.442 364.665 423.33 360.76 411.79 368.995C400.25 377.23 398.704 393.736 407.202 405.646C415.701 417.555 431.813 421.46 443.353 413.225Z" fill="#673005" stroke="#390B01" stroke-width="8"/>
<path d="M449.075 389.622C447.771 391.657 446.085 393.464 444.029 394.931C434.578 401.675 420.89 398.699 413.458 388.283C411.079 384.95 409.629 381.259 409.067 377.56C404.379 384.882 404.642 395.172 410.458 403.322C417.89 413.738 431.578 416.714 441.029 409.969C447.456 405.383 450.269 397.483 449.075 389.622Z" fill="#592802"/>
<path d="M99.9931 513.539C112.426 506.56 114.077 489.114 106.457 475.54C98.837 461.966 83.083 454.29 70.6505 461.269C58.218 468.248 56.5667 485.694 64.1867 499.268C71.8066 512.843 87.5606 520.518 99.9931 513.539Z" fill="#673005" stroke="#390B01" stroke-width="8"/>
<path d="M82.0349 506.051C91.7811 500.58 93.9901 486.006 86.9688 473.498C84.4862 469.075 81.182 465.503 77.5169 462.975C86.5186 461.276 97.0659 466.982 102.969 477.498C109.99 490.006 107.781 504.58 98.0349 510.051C91.7347 513.588 83.8272 512.455 77.1265 507.833C78.8322 507.511 80.4823 506.923 82.0349 506.051Z" fill="#592802"/>
<path d="M260.771 342.292L199.96 357.126C177.793 360.836 132.99 390.717 115.727 477.704C113.109 489.734 110.234 509.296 110.013 529.318C109.795 549.191 112.173 570.288 120.684 584.78C121.181 585.626 121.826 586.366 122.634 586.981C137.024 597.923 179.873 617.743 244.965 616.978C260.391 617.138 284.677 614.999 307.972 608.069C331.153 601.172 354.199 589.276 365.928 569.303C366.634 568.102 366.996 566.76 366.999 565.377C367.036 548.494 365.988 521.676 362.702 494.937C359.446 468.45 353.93 441.43 344.748 424.362C339.454 411.848 329.242 392.999 315.532 376.482C301.845 359.994 284.123 345.167 263.78 342.148C262.748 341.995 261.725 342.059 260.771 342.292Z" fill="#089E71" stroke="#056242" stroke-width="8"/>
<path d="M130.927 587.725C148.681 598.403 188.065 613.655 244.962 612.978C275.16 613.299 340.576 604.575 362.479 567.278C362.823 566.692 362.998 566.048 362.999 565.368C363.072 531.878 358.832 458.769 341.137 426.093C331.65 403.575 305.493 359.379 271.915 348.205C297.684 365.397 317.218 399.297 325.137 418.093C342.832 450.769 347.072 523.878 346.999 557.368C346.998 558.048 346.823 558.692 346.479 559.278C324.576 596.575 259.16 605.299 228.962 604.978C185.404 605.496 152.11 596.679 130.927 587.725Z" fill="#088F67"/>
<circle cx="4" cy="4" r="4" transform="matrix(-1 0 0 1 347.215 515)" fill="#08835E"/>
<circle cx="4" cy="4" r="4" transform="matrix(-1 0 0 1 354.215 497)" fill="#08835E"/>
<circle cx="4" cy="4" r="4" transform="matrix(-1 0 0 1 340.215 503)" fill="#08835E"/>
<circle cx="5" cy="5" r="5" transform="matrix(-1 0 0 1 358.215 529)" fill="#08835E"/>
<circle cx="5" cy="5" r="5" transform="matrix(-1 0 0 1 342.215 531)" fill="#08835E"/>
<circle cx="4.5" cy="4.5" r="4.5" transform="matrix(-1 0 0 1 354.215 548)" fill="#08835E"/>
<circle cx="4.5" cy="4.5" r="4.5" transform="matrix(-1 0 0 1 343.215 566)" fill="#08835E"/>
<circle cx="4.5" cy="4.5" r="4.5" transform="matrix(-1 0 0 1 338.215 549)" fill="#08835E"/>
<circle cx="4.5" cy="4.5" r="4.5" transform="matrix(-1 0 0 1 346.215 483)" fill="#08835E"/>
<circle cx="3.5" cy="3.5" r="3.5" transform="matrix(-1 0 0 1 349.215 468)" fill="#08835E"/>
<circle cx="3.5" cy="3.5" r="3.5" transform="matrix(-1 0 0 1 324.215 564)" fill="#08835E"/>
<circle cx="3.5" cy="3.5" r="3.5" transform="matrix(-1 0 0 1 316.215 581)" fill="#08835E"/>
<path d="M305 429.5C287.4 436.7 266.333 434.833 258 433C262.5 426.333 272.8 407.6 278 386C284.333 391.667 298.6 408.3 305 429.5Z" fill="#088F67"/>
<path d="M286 432V408" stroke="#9ED0BE" stroke-width="8" stroke-linecap="round" stroke-linejoin="round"/>
<path d="M258 433C266.333 434.833 287.4 436.7 305 429.5" stroke="#53C5A5" stroke-width="8" stroke-linecap="round" stroke-linejoin="round"/>
<path d="M282 448L282 406" stroke="#572A04" stroke-width="8" stroke-linecap="round" stroke-linejoin="round"/>
<path d="M177.273 368.58L174.507 369.14L174.107 371.934C172.814 380.987 172.232 395.034 174.755 407.883C177.23 420.491 183.03 433.457 195.781 437.788C203.05 440.256 210.117 437.092 216.101 432.112C222.153 427.075 227.974 419.502 233.277 411.082C243.918 394.185 253.108 372.845 258.33 358.356L260.741 351.668L253.773 353.08L177.273 368.58Z" fill="#B9AD47" stroke="#056242" stroke-width="8"/>
<path d="M188.177 368.6L185.497 369.212L185.108 371.934C184.378 377.034 184.009 387.672 185.288 397.601C185.927 402.565 187.008 407.595 188.8 411.743C190.544 415.782 193.31 419.77 197.782 421.288C200.584 422.239 203.303 421.59 205.546 420.408C207.749 419.247 209.813 417.42 211.703 415.348C215.497 411.191 219.294 405.26 222.775 398.961C229.77 386.303 235.983 371.249 238.83 363.358L241.314 356.471L234.177 358.1L188.177 368.6Z" fill="#B3C8D4" stroke="#056242" stroke-width="8"/>
<path d="M224.715 366L223.804 366.128C198.29 370.075 211.778 399.052 217.215 403.5C217.215 403.5 210.209 418.629 200.215 418.5C192.659 418.402 188.965 403.5 188.965 403.5C188.965 403.5 196.715 396.5 197.715 387C198.552 379.043 192.428 372.627 192.715 370.5L223.804 366.128C224.102 366.082 224.406 366.039 224.715 366Z" fill="#622102"/>
<path d="M137.404 441.7L166.81 535.216L237.65 457.416L300.094 548.996" stroke="#53C5A5" stroke-width="8" stroke-linecap="round" stroke-linejoin="round"/>
<path d="M124.632 515.993L177.262 450.383L227.682 543.258L301.513 466.009" stroke="#53C5A5" stroke-width="8" stroke-linecap="round" stroke-linejoin="round"/>
<path d="M131.281 478.101L155.316 447.007L166.596 489.206L142.561 520.3L131.281 478.101Z" fill="#B9AD47" stroke="#178A63" stroke-width="8" stroke-linecap="round" stroke-linejoin="round"/>
<path d="M241.889 501.995L270.043 463.97L296.347 504.926L265.65 545.407L241.889 501.995Z" fill="#B9AD47" stroke="#178A63" stroke-width="8" stroke-linecap="round" stroke-linejoin="round"/>
<path d="M178.052 491.902L206.723 452.887L225.451 498.213L196.754 538.729L178.052 491.902Z" fill="#53C5A5" stroke="#178A63" stroke-width="8" stroke-linecap="round" stroke-linejoin="round"/>
<path d="M228 576V614" stroke="#056242" stroke-width="8" stroke-linecap="round" stroke-linejoin="round"/>
<path d="M195 575V613" stroke="#056242" stroke-width="8" stroke-linecap="round" stroke-linejoin="round"/>
<path d="M166 567V605" stroke="#056242" stroke-width="8" stroke-linecap="round" stroke-linejoin="round"/>
<path d="M144 562V600" stroke="#056242" stroke-width="8" stroke-linecap="round" stroke-linejoin="round"/>
<path d="M125 550V588" stroke="#056242" stroke-width="8" stroke-linecap="round" stroke-linejoin="round"/>
<path d="M269 575V613" stroke="#056242" stroke-width="8" stroke-linecap="round" stroke-linejoin="round"/>
<path d="M303 567V605" stroke="#056242" stroke-width="8" stroke-linecap="round" stroke-linejoin="round"/>
<path d="M332 557V595" stroke="#056242" stroke-width="8" stroke-linecap="round" stroke-linejoin="round"/>
<path d="M352 543V581" stroke="#056242" stroke-width="8" stroke-linecap="round" stroke-linejoin="round"/>
<path d="M29.4959 161.21C39.4671 172.174 54.1015 176.633 69.3343 175.369C84.5619 174.105 100.615 167.135 114.032 154.932C127.45 142.729 135.906 127.407 138.604 112.367C141.303 97.3217 138.247 82.3313 128.276 71.368C118.305 60.4048 103.67 55.9456 88.4376 57.2096C73.2101 58.4731 57.1565 65.4431 43.7395 77.6461C30.3224 89.8491 21.8657 105.172 19.1679 120.212C16.4692 135.257 19.5246 150.247 29.4959 161.21Z" fill="#CF7E3D" stroke="#95511A" stroke-width="8"/>
<path fill-rule="evenodd" clip-rule="evenodd" d="M135.54 102.323C134.088 95.507 131.043 89.2557 126.317 84.0594C108.393 64.3517 73.0744 67.2824 47.4312 90.6052C31.7476 104.87 23.3157 123.459 23.2326 140.255C19.1783 121.22 27.5494 97.7786 46.4312 80.6052C72.0744 57.2824 107.393 54.3517 125.317 74.0594C132.279 81.7137 135.593 91.6571 135.54 102.323Z" fill="#B56729"/>
<path d="M48.9528 138.794C51.5676 141.669 54.5723 143.448 58.0126 143.794C61.3572 144.13 64.4829 143.043 67.2601 141.494C70.0341 139.946 72.8013 137.743 75.53 135.36C77.2822 133.83 79.1411 132.114 81.035 130.365C82.0691 129.411 83.1137 128.446 84.1571 127.497C85.1989 126.55 86.2582 125.601 87.3091 124.659C89.2394 122.929 91.1411 121.225 92.8521 119.605C95.5141 117.085 98.0048 114.506 99.8459 111.862C101.685 109.221 103.107 106.188 103.136 102.809C103.166 99.3151 101.706 96.1137 99.068 93.2132C93.7935 87.414 86.1347 85.1528 78.3831 85.796C70.6368 86.4388 62.5701 89.9691 55.8723 96.0609C49.1745 102.153 44.8972 109.849 43.5248 117.5C42.1515 125.156 43.6784 132.995 48.9528 138.794Z" fill="#D25A68" stroke="#8D202D" stroke-width="8"/>
<path fill-rule="evenodd" clip-rule="evenodd" d="M67.5218 136.617C65.8034 136.121 64.1194 135.021 62.4465 133.181C53.9155 123.802 56.8936 107.199 69.0982 96.0989C72.0258 93.4363 75.2183 91.332 78.4979 89.801C71.766 90.4124 64.6012 93.5285 58.5634 99.02C46.3587 110.12 43.3807 126.723 51.9117 136.102C56.8228 141.502 61.8291 140.531 67.5218 136.617Z" fill="#B43D4A"/>
<path d="M235.562 41.3422C229.304 54.6065 230.86 69.7022 237.898 83.184C244.934 96.6628 257.535 108.763 273.926 116.496C290.317 124.229 307.668 126.26 322.545 123.12C337.425 119.979 350.065 111.58 356.323 98.3161C362.581 85.0519 361.025 69.9562 353.987 56.4744C346.951 42.9956 334.351 30.8958 317.96 23.1626C301.569 15.4294 284.218 13.3985 269.341 16.5388C254.46 19.6797 241.82 28.078 235.562 41.3422Z" fill="#CF7E3D" stroke="#95511A" stroke-width="8"/>
<path fill-rule="evenodd" clip-rule="evenodd" d="M242.849 36.907C258.707 25.0532 284.395 23.524 308.253 34.7802C339.602 49.5705 355.923 80.8341 344.706 104.609C343.673 106.798 342.443 108.847 341.037 110.751C346.016 107.03 350.025 102.29 352.706 96.6094C363.923 72.8341 347.602 41.5705 316.253 26.7802C287.79 13.3514 256.723 18.1198 242.849 36.907Z" fill="#B56729"/>
<path d="M259.904 53.7413C258.203 57.348 257.695 60.9169 259.083 64.2554C260.397 67.4153 263.085 69.5349 265.787 71.1083C268.525 72.7018 271.909 74.0843 275.342 75.4536C275.722 75.6051 276.104 75.7571 276.488 75.9099C279.67 77.1752 282.993 78.4972 286.377 80.0937C289.745 81.6826 292.889 83.4097 295.915 85.0719C296.298 85.2822 296.679 85.4913 297.058 85.6991C300.349 87.5023 303.625 89.261 306.652 90.3885C309.634 91.4993 313.019 92.2545 316.323 91.3093C319.844 90.3022 322.337 87.6581 324.059 84.0089C327.52 76.672 326.601 68.4372 322.852 61.2563C319.105 54.0783 312.447 47.7194 303.872 43.6736C295.296 39.6278 286.155 38.5325 278.232 40.2048C270.306 41.8779 263.366 46.4044 259.904 53.7413Z" fill="#D25A68" stroke="#8D202D" stroke-width="8"/>
<path fill-rule="evenodd" clip-rule="evenodd" d="M309.899 87.2448C310.25 86.7101 310.584 86.1093 310.901 85.438C316.525 73.5175 308.342 57.8426 292.624 50.427C285.539 47.0843 278.132 45.9904 271.618 46.8891C279.618 42.3284 291.271 42.1519 302.164 47.2912C317.882 54.7067 326.065 70.3817 320.441 82.3021C317.958 87.5648 314.424 88.4905 309.899 87.2448Z" fill="#B43D4A"/>
<path d="M416.943 243.291L416.937 243.147L416.921 243.004C414.68 223.265 401.769 188.825 380.069 155.932C358.343 122.999 327.354 90.9232 288.468 76.6838C248.823 62.1663 210.29 58.9986 174.422 67.3793C138.547 75.7618 105.595 95.6378 77.0309 126.79C47.717 158.759 33.5307 204.694 29.961 246.678C28.1723 267.716 29.0331 287.924 32.068 305.115C35.0849 322.203 40.3213 336.714 47.5954 346.009C54.8515 355.28 65.9237 362.61 79.2494 368.206C92.6075 373.815 108.474 377.784 125.623 380.19C159.913 384.999 199.765 383.614 235.871 376.2C277.999 367.549 323.793 354.561 358.743 333.825C393.734 313.065 418.614 284.025 416.943 243.291Z" fill="#CF7E3D" stroke="#95511A" stroke-width="8"/>
<path fill-rule="evenodd" clip-rule="evenodd" d="M87.9482 367.275C126.982 381.084 184.718 382.621 235.067 372.282C319.085 355.029 416.118 320.751 412.946 243.455C408.652 205.633 362.615 108.095 287.093 80.4399C273.536 75.4757 260.135 71.8675 246.951 69.6151C249.658 70.5021 252.372 71.4437 255.093 72.4399C330.615 100.095 376.652 197.633 380.946 235.455C384.118 312.751 287.085 347.029 203.067 364.282C165.171 372.063 123.09 373.117 87.9482 367.275Z" fill="#C07131"/>
<path d="M161.539 252.466L161.594 252.397L161.646 252.326C172.532 237.484 205.217 212.671 248.758 232.663C259.004 238.628 275.815 246.296 293.391 250.118C310.888 253.924 330.22 254.144 344.276 243.647L344.303 243.627L344.329 243.607C355.221 235.191 370.273 209.371 353.338 170.334C347.31 152.648 326.422 128.869 296.112 112.46C265.499 95.8871 224.763 86.5307 178.753 98.5583C129.962 111.312 90.3126 130.759 64.3446 176.602C58.4321 187.04 53.4822 203.561 51.565 221.349C49.6461 239.152 50.7077 258.746 57.2989 275.24C61.4566 285.644 67.1308 292.667 73.6178 297.094C80.0986 301.517 87.1132 303.16 93.6468 303.268C100.149 303.376 106.231 301.967 111.039 300.228C115.75 298.524 119.61 296.364 121.547 294.67C127.349 289.594 145.922 271.904 161.539 252.466Z" fill="#3E0D04" stroke="#1F0602" stroke-width="8"/>
<path fill-rule="evenodd" clip-rule="evenodd" d="M72.5762 291.211C90.1342 306.85 114.385 295.62 118.913 291.659C124.581 286.701 142.981 269.178 158.421 249.96C168.054 236.826 193.654 216.435 228.447 222.164C227.811 221.808 227.197 221.456 226.606 221.111C180.65 199.899 146.001 226.172 134.421 241.96C118.981 261.178 100.581 278.701 94.9128 283.659C92.3103 285.936 83.1932 290.613 72.5762 291.211ZM267.855 237.666C290.555 247.283 322.42 254.976 341.883 240.442C351.268 233.19 365.951 209.304 349.603 171.775C342.011 149.199 307.062 113.833 256.815 101.518C294.045 117.368 319.288 144.996 325.603 163.775C341.951 201.304 327.268 225.19 317.883 232.442C304.673 242.307 285.749 241.932 267.855 237.666Z" fill="#300902"/>
<circle cx="397.638" cy="258.598" r="6.65459" transform="rotate(16.288 397.638 258.598)" fill="#B3692D"/>
<circle cx="375.109" cy="276.996" r="6.65459" transform="rotate(16.288 375.109 276.996)" fill="#B3692D"/>
<circle cx="379.578" cy="255.77" r="4.99094" transform="rotate(16.288 379.578 255.77)" fill="#B3692D"/>
<circle cx="394.028" cy="279.167" r="4.99094" transform="rotate(16.288 394.028 279.167)" fill="#B3692D"/>
<circle cx="400.956" cy="236.707" r="4.99094" transform="rotate(16.288 400.956 236.707)" fill="#B3692D"/>
<circle cx="316.222" cy="323.251" r="4.99094" transform="rotate(16.288 316.222 323.251)" fill="#B3692D"/>
<circle cx="302.402" cy="339.717" r="3.95372" transform="rotate(16.288 302.402 339.717)" fill="#B3692D"/>
<circle cx="372.361" cy="302.148" r="6.65459" transform="rotate(16.288 372.361 302.148)" fill="#B3692D"/>
<circle cx="354.136" cy="287.559" r="6.65459" transform="rotate(16.288 354.136 287.559)" fill="#B3692D"/>
<circle cx="353.987" cy="316.587" r="6.65459" transform="rotate(16.288 353.987 316.587)" fill="#B3692D"/>
<circle cx="336.137" cy="305.688" r="6.65459" transform="rotate(16.288 336.137 305.688)" fill="#B3692D"/>
<circle cx="333.892" cy="329.082" r="4.99094" transform="rotate(16.288 333.892 329.082)" fill="#B3692D"/>
<circle cx="91.2787" cy="356.692" r="5.42291" transform="rotate(119.07 91.2787 356.692)" fill="#C07131"/>
<circle cx="75.8402" cy="335.375" r="5.42291" transform="rotate(119.07 75.8402 335.375)" fill="#C07131"/>
<circle cx="96.782" cy="342.85" r="4.06718" transform="rotate(119.07 96.782 342.85)" fill="#C07131"/>
<circle cx="75.5828" cy="350.115" r="4.06718" transform="rotate(119.07 75.5828 350.115)" fill="#C07131"/>
<circle cx="108.078" cy="363.276" r="4.06718" transform="rotate(119.07 108.078 363.276)" fill="#C07131"/>
<circle cx="48.6248" cy="280.59" r="4.84598" transform="rotate(119.07 48.6248 280.59)" fill="#C07131"/>
<circle cx="39.8333" cy="268.382" r="3.22193" transform="rotate(119.07 39.8333 268.382)" fill="#C07131"/>
<circle cx="59.8402" cy="336.375" r="5.42291" transform="rotate(119.07 59.8402 336.375)" fill="#C07131"/>
<circle cx="71.8402" cy="318.375" r="5.42291" transform="rotate(119.07 71.8402 318.375)" fill="#C07131"/>
<circle cx="52.1019" cy="317.113" r="7.43652" transform="rotate(119.07 52.1019 317.113)" fill="#C07131"/>
<circle cx="58.8402" cy="303.375" r="5.42291" transform="rotate(119.07 58.8402 303.375)" fill="#C07131"/>
<circle cx="44.6839" cy="299.531" r="4.06718" transform="rotate(119.07 44.6839 299.531)" fill="#C07131"/>
<path d="M108.979 263.864C119.339 264.571 128.787 259.534 135.701 251.45C142.615 243.366 147.202 232.048 148.063 219.432C148.924 206.816 145.917 194.979 140.166 186.031C134.415 177.083 125.739 170.808 115.379 170.101C105.02 169.394 95.5714 174.431 88.6578 182.515C81.7442 190.599 77.1567 201.917 76.2956 214.533C75.4345 227.149 78.4415 238.986 84.1925 247.934C89.9436 256.882 98.6199 263.157 108.979 263.864Z" fill="#F6F9FA" stroke="#350800" stroke-width="8"/>
<path d="M110.387 240.493C115.853 240.866 120.689 238.193 124.101 234.204C127.514 230.214 129.711 224.718 130.123 218.683C130.535 212.648 129.105 206.904 126.266 202.488C123.428 198.071 119 194.767 113.534 194.394C108.068 194.021 103.232 196.693 99.8193 200.683C96.407 204.673 94.2097 210.168 93.7978 216.203C93.3858 222.238 94.816 227.982 97.6545 232.398C100.493 236.815 104.921 240.12 110.387 240.493Z" fill="#3336F9" stroke="#1E20AA" stroke-width="8"/>
<path d="M309.447 217.485C318.484 211.336 322.692 200.698 322.765 189.143C322.838 177.568 318.811 164.65 310.876 152.987C302.941 141.324 292.404 132.835 281.61 128.652C270.836 124.478 259.396 124.485 250.358 130.634C241.321 136.783 237.113 147.421 237.04 158.976C236.967 170.551 240.994 183.469 248.929 195.132C256.865 206.795 267.401 215.284 278.195 219.467C288.969 223.641 300.409 223.634 309.447 217.485Z" fill="#F6F9FA" stroke="#350800" stroke-width="8"/>
<path d="M298.942 195.981C303.34 192.289 304.816 186.637 304.29 181.097C303.761 175.537 301.221 169.661 296.989 164.62C292.756 159.58 287.408 156.061 282.023 154.579C276.658 153.102 270.835 153.579 266.438 157.271C262.041 160.964 260.564 166.615 261.091 172.155C261.619 177.716 264.16 183.592 268.392 188.632C272.624 193.673 277.972 197.191 283.358 198.674C288.723 200.151 294.545 199.674 298.942 195.981Z" fill="#3336F9" stroke="#1E20AA" stroke-width="8"/>
<path d="M74.6903 220.157C74.8567 221.529 75.7197 222.718 76.9726 223.302C78.2255 223.885 79.6909 223.78 80.8482 223.025L137.607 185.962C138.828 185.164 139.519 183.764 139.408 182.309C139.009 177.063 136.345 169.888 130.869 164.846C125.146 159.576 116.692 156.965 105.772 160.608C95.0965 163.233 86.8272 173.772 81.6148 184.92C76.284 196.321 73.4386 209.837 74.6903 220.157Z" fill="#CF7E3D" stroke="#95511A" stroke-width="8" stroke-linecap="round" stroke-linejoin="round"/>
<path fill-rule="evenodd" clip-rule="evenodd" d="M127.044 188.082L135.419 182.613C134.752 173.852 126.238 157.893 106.881 164.455C101.152 165.81 95.9538 170.066 91.6133 175.84C93.9129 174.223 96.345 173.055 98.881 172.455C116.488 166.487 125.124 179.15 127.044 188.082Z" fill="#C67534"/>
<path d="M315.985 163.953C316.541 165.215 316.408 166.673 315.633 167.814C314.859 168.954 313.552 169.615 312.174 169.563L240.963 166.887C239.498 166.832 238.181 165.98 237.53 164.666C235.098 159.759 233.68 151.911 235.92 144.472C238.256 136.717 244.441 129.86 256.199 127.257C267.168 123.874 280.231 128.841 290.914 136.055C301.824 143.421 311.609 154.024 315.985 163.953Z" fill="#CF7E3D" stroke="#95511A" stroke-width="8" stroke-linecap="round" stroke-linejoin="round"/>
<path fill-rule="evenodd" clip-rule="evenodd" d="M248.76 134.302C264.155 137.037 281.847 151.264 289.946 164.725L312.325 165.566C304.347 147.464 275.604 125.29 257.226 131.127C253.874 131.853 251.077 132.945 248.76 134.302Z" fill="#C67534"/>
<path d="M220.154 334.218C244 331.142 260.354 308.368 257.177 283.744C254.001 259.12 232.404 241.241 208.558 244.317C184.711 247.393 168.358 270.167 171.534 294.791C174.71 319.414 196.307 337.294 220.154 334.218Z" fill="#3E0D04" stroke="#2B0802" stroke-width="8"/>
<path fill-rule="evenodd" clip-rule="evenodd" d="M215.819 314.218C236.362 311.568 250.75 291.854 247.955 270.185C247.851 269.376 247.724 268.577 247.576 267.786C250.459 272.657 252.433 278.224 253.211 284.256C256.13 306.89 241.101 327.483 219.642 330.251C198.183 333.019 178.421 316.914 175.501 294.279C175.187 291.846 175.081 289.436 175.168 287.07C180.779 304.792 197.665 316.56 215.819 314.218Z" fill="#300902"/>
<path d="M208.677 289.155C220.39 289.155 229.465 279.124 229.465 267.284C229.465 255.444 220.39 245.413 208.677 245.413C196.964 245.413 187.889 255.444 187.889 267.284C187.889 279.124 196.964 289.155 208.677 289.155Z" fill="#2C0701" stroke="#170401" stroke-width="8"/>
<ellipse cx="102" cy="300" rx="42" ry="14" fill="#D25A68" fill-opacity="0.7"/>
<ellipse cx="325" cy="245" rx="42" ry="14" fill="#D25A68" fill-opacity="0.7"/>
<path d="M79.7376 282.256C79.7376 294.708 75.3184 305.063 75.3184 317.61" stroke="#D25A68" stroke-width="3" stroke-linecap="round"/>
<path d="M97.4149 283.361C97.4149 295.136 92.9956 305.793 92.9956 317.61" stroke="#D25A68" stroke-width="3" stroke-linecap="round"/>
<path d="M111.777 285.57C111.777 296.361 109.568 307.043 109.568 317.61" stroke="#D25A68" stroke-width="3" stroke-linecap="round"/>
<path d="M308.434 227.015C308.434 240.514 306.224 253.443 306.224 266.788" stroke="#D25A68" stroke-width="3" stroke-linecap="round"/>
<path d="M323.901 228.12V267.893" stroke="#D25A68" stroke-width="3" stroke-linecap="round"/>
<path d="M338.264 227.015C336.821 238.552 337.159 251.332 337.159 263.474" stroke="#D25A68" stroke-width="3" stroke-linecap="round"/>
<circle cx="80.1927" cy="640.193" r="64.1927" fill="#F8BE1A"/>
<path d="M128.072 640.193C128.072 666.612 106.291 688.072 79.3699 688.072C52.4491 688.072 30.668 666.612 30.668 640.193C30.668 613.773 52.4491 592.314 79.3699 592.314C106.291 592.314 128.072 613.773 128.072 640.193Z" fill="#FFDF85" stroke="#DAAB07" stroke-width="3"/>
<path d="M78.3952 601.24C78.8302 600.506 79.9091 600.506 80.3441 601.24L92.6084 621.936C92.7677 622.205 93.0348 622.395 93.3442 622.461L117.16 627.53C118.005 627.71 118.338 628.719 117.762 629.352L101.526 647.212C101.315 647.444 101.213 647.752 101.245 648.062L103.7 671.89C103.787 672.736 102.914 673.359 102.123 673.016L79.8244 663.358C79.5347 663.233 79.2046 663.233 78.9149 663.358L56.6162 673.016C55.8254 673.359 54.9525 672.736 55.0395 671.89L57.4942 648.062C57.5261 647.752 57.4241 647.444 57.2132 647.212L40.9772 629.352C40.4013 628.719 40.7347 627.71 41.5794 627.53L65.3952 622.461C65.7046 622.395 65.9716 622.205 66.1309 621.936L78.3952 601.24Z" fill="#E79800"/>
<mask id="mask0_1085_346" style="mask-type:alpha" maskUnits="userSpaceOnUse" x="16" y="576" width="129" height="129">
<path d="M144.385 640.193C144.385 675.645 115.645 704.385 80.1927 704.385C44.74 704.385 16 675.645 16 640.193C16 604.74 44.74 576 80.1927 576C115.645 576 144.385 604.74 144.385 640.193Z" fill="#CE8700"/>
</mask>
<g mask="url(#mask0_1085_346)">
<g opacity="0.2">
<g style="mix-blend-mode:screen">
<rect width="159.626" height="36.0872" transform="matrix(0.912469 -0.409145 0.300017 0.953934 -0.432129 636.738)" fill="#FFF272"/>
</g>
<g style="mix-blend-mode:screen">
<rect width="159.626" height="17.1728" transform="matrix(0.912469 -0.409145 0.300017 0.953934 9.35742 685.508)" fill="#FFF272"/>
</g>
</g>
</g>
</svg>
