<svg width="146" height="146" viewBox="0 0 146 146" fill="none" xmlns="http://www.w3.org/2000/svg">
<path fill-rule="evenodd" clip-rule="evenodd" d="M80.0302 20.182C85.5971 20.8582 89.9598 22.3141 91.8089 24.1317C113.786 33.9716 130.793 58.8853 130.793 82.4563C130.793 84.2231 130.697 85.9433 130.511 87.6163C134.217 90.5111 139.701 95.8115 139.157 99.6152C138.63 103.304 130.076 104.977 124.173 105.523C114.102 121.013 93.8136 129.271 72.2406 129.271C50.2544 129.271 29.6026 120.694 19.7414 104.625C13.9624 103.962 6.57299 102.275 6.08437 98.8548C5.57781 95.3089 10.3087 90.4624 13.9548 87.4765C13.7789 85.8475 13.6885 84.1739 13.6885 82.4563C13.6885 57.4918 32.7652 31.0211 56.6198 22.548C58.974 21.4384 62.4053 20.5807 66.4344 20.128L73.3104 15.209L80.0302 20.182Z" fill="url(#paint0_linear_1769_3895)"/>
<path fill-rule="evenodd" clip-rule="evenodd" d="M71.0958 12.1161C72.4371 11.1565 74.2441 11.1711 75.5697 12.1521L81.4983 16.5396C84.0819 16.9033 86.4677 17.436 88.5187 18.1229C90.4851 18.7814 92.4258 19.6734 93.9074 20.9093C116.891 31.4821 134.592 57.4811 134.592 82.4556C134.592 83.6367 134.553 84.801 134.475 85.9482C136.103 87.3402 137.881 89.0462 139.37 90.8691C140.373 92.0969 141.332 93.4834 142.008 94.9529C142.672 96.3948 143.196 98.2084 142.919 100.152C142.577 102.542 141 104.144 139.615 105.122C138.201 106.121 136.49 106.836 134.844 107.366C132.145 108.235 129.045 108.787 126.324 109.116C115.03 125.034 93.923 133.073 72.2382 133.073C50.1351 133.073 28.614 124.716 17.4974 108.168C14.9163 107.796 12.0934 107.22 9.6568 106.357C8.15607 105.825 6.59588 105.114 5.30393 104.129C4.0207 103.15 2.63481 101.609 2.3181 99.3919C2.05861 97.5754 2.50081 95.8761 3.09169 94.5001C3.69053 93.1055 4.5494 91.7916 5.45717 90.6228C6.80843 88.883 8.44524 87.24 9.99583 85.857C9.92162 84.7393 9.88407 83.6054 9.88407 82.4556C9.88407 69.0357 14.9932 55.4176 23.1176 44.1C31.2076 32.8305 42.4711 23.5842 55.1742 19.0255C57.7982 17.8219 61.2328 16.9646 65.0092 16.4703L71.0958 12.1161ZM66.432 20.1273C62.4029 20.5801 58.9716 21.4377 56.6174 22.5473C32.7628 31.0205 13.6862 57.4911 13.6862 82.4556C13.6862 84.1733 13.7765 85.8469 13.9524 87.4758C10.3064 90.4617 5.57542 95.3083 6.08197 98.8542C6.57059 102.274 13.96 103.961 19.739 104.624C29.6002 120.693 50.252 129.271 72.2382 129.271C93.8113 129.271 114.1 121.013 124.17 105.522C130.074 104.976 138.628 103.304 139.155 99.6146C139.698 95.8108 134.215 90.5105 130.509 87.6156C130.695 85.9427 130.79 84.2224 130.79 82.4556C130.79 58.8846 113.784 33.9709 91.8066 24.1311C89.9574 22.3134 85.5947 20.8575 80.0278 20.1814L73.308 15.2083L66.432 20.1273Z" fill="#CEC6D5"/>
<path fill-rule="evenodd" clip-rule="evenodd" d="M124.173 105.523C114.102 121.013 93.8137 129.271 72.2406 129.271C50.2544 129.271 29.6026 120.694 19.7414 104.625C13.9624 103.962 6.57299 102.275 6.08437 98.8548C5.57781 95.3089 10.3087 90.4624 13.9548 87.4765C13.7789 85.8475 13.6885 84.1739 13.6885 82.4563C13.6885 52.2187 41.6751 19.7715 72.2406 19.7715C102.806 19.7715 130.793 52.2187 130.793 82.4563C130.793 84.2231 130.697 85.9433 130.511 87.6163C134.217 90.5111 139.701 95.8115 139.157 99.6152C138.63 103.304 130.076 104.977 124.173 105.523Z" fill="url(#paint1_radial_1769_3895)"/>
<path fill-rule="evenodd" clip-rule="evenodd" d="M39.732 78.1243C44.8066 74.5026 51.8224 75.7303 55.3981 80.8519C56.1382 81.9119 61.7743 87.5137 72.2409 87.5137C82.7075 87.5137 88.3436 81.9119 89.0837 80.8519C92.6593 75.7303 99.6752 74.5026 104.75 78.1243C109.816 81.7402 111.018 88.8135 107.448 93.927C102.851 100.512 90.6038 110.205 72.2409 110.205C53.8779 110.205 41.6311 100.512 37.034 93.927C33.4639 88.8135 34.6655 81.7402 39.732 78.1243ZM53.3889 82.2547C50.5887 78.2437 45.1134 77.2941 41.1554 80.1188C37.1893 82.9494 36.2373 88.5054 39.0431 92.5243C43.225 98.5141 54.751 107.754 72.2409 107.754C89.7307 107.754 101.257 98.5141 105.439 92.5243C108.244 88.5054 107.292 82.9494 103.326 80.1188C99.3684 77.2941 93.8931 78.2437 91.0928 82.2547C89.935 83.9131 83.5765 89.964 72.2409 89.964C60.9053 89.964 54.5468 83.9131 53.3889 82.2547Z" fill="#ECC7A1"/>
<path fill-rule="evenodd" clip-rule="evenodd" d="M40.4451 79.1207C44.9614 75.8975 51.2069 76.9862 54.3949 81.5525C55.3438 82.9117 61.3411 88.738 72.2423 88.738C83.1434 88.738 89.1407 82.9117 90.0896 81.5525C93.2776 76.9862 99.5231 75.8975 104.039 79.1207C108.556 82.344 109.633 88.6586 106.445 93.2249C102.055 99.5121 90.1687 108.979 72.2423 108.979C54.3159 108.979 42.4294 99.5121 38.0399 93.2249C34.852 88.6586 35.9288 82.344 40.4451 79.1207Z" fill="#EED1B4"/>
<path fill-rule="evenodd" clip-rule="evenodd" d="M46.6934 87.6018C47.1555 87.2237 47.8366 87.2919 48.2147 87.7539C50.216 90.2 58.0006 97.4473 72.6026 97.4473C87.2047 97.4473 94.9892 90.2 96.9906 87.7539C97.3687 87.2919 98.0498 87.2237 98.5118 87.6018C98.9739 87.9799 99.042 88.661 98.664 89.1231C96.3411 91.9622 87.9819 99.6094 72.6026 99.6094C57.2234 99.6094 48.8642 91.9622 46.5413 89.1231C46.1632 88.661 46.2313 87.9799 46.6934 87.6018Z" fill="#A55C4C"/>
<path fill-rule="evenodd" clip-rule="evenodd" d="M57.7333 37.2802C57.9325 37.8779 57.6095 38.5238 57.0119 38.723C51.7915 40.4632 48.5964 43.795 47.7148 45.1174C47.3654 45.6415 46.6572 45.7832 46.133 45.4337C45.6089 45.0843 45.4673 44.3761 45.8167 43.852C46.9629 42.1327 50.5608 38.4687 56.2905 36.5588C56.8881 36.3596 57.534 36.6826 57.7333 37.2802Z" fill="#988CA2"/>
<path fill-rule="evenodd" clip-rule="evenodd" d="M89.0285 37.2802C88.8293 37.8779 89.1522 38.5238 89.7499 38.723C94.9702 40.4632 98.1653 43.795 99.0469 45.1174C99.3963 45.6415 100.105 45.7832 100.629 45.4337C101.153 45.0843 101.294 44.3761 100.945 43.852C99.7988 42.1327 96.2009 38.4687 90.4713 36.5588C89.8736 36.3596 89.2277 36.6826 89.0285 37.2802Z" fill="#988CA2"/>
<ellipse cx="6.68493" cy="8.93155" rx="6.68493" ry="8.93155" transform="matrix(0.952957 0.303104 -0.261979 0.965074 45.7422 50.1875)" fill="#1D1E21"/>
<ellipse cx="6.68493" cy="8.93154" rx="6.68493" ry="8.93154" transform="matrix(-0.952957 0.303105 0.261979 0.965074 100.949 50.1875)" fill="#1D1E21"/>
<path fill-rule="evenodd" clip-rule="evenodd" d="M90.3364 27.2295C91.1576 26.6448 91.2513 26.2421 91.2513 26.0829C91.2513 25.9061 91.1378 25.4707 90.3023 24.8401C89.492 24.2286 88.2232 23.6129 86.5189 23.0689C83.1277 21.9863 78.3483 21.2923 73.0013 21.2923C67.6543 21.2923 62.8749 21.9863 59.4837 23.0689C57.7794 23.6129 56.5106 24.2286 55.7003 24.8401C54.8648 25.4707 54.7513 25.9061 54.7513 26.0829C54.7513 26.2421 54.845 26.6448 55.6662 27.2295C56.4685 27.8006 57.7319 28.3648 59.4412 28.856C62.8401 29.8327 67.6317 30.4173 73.0013 30.4173C78.3709 30.4173 83.1625 29.8327 86.5614 28.856C88.2707 28.3648 89.5341 27.8006 90.3364 27.2295ZM73.0013 31.9382C83.9204 31.9382 92.7721 29.5687 92.7721 26.0829C92.7721 22.5972 83.9204 19.7715 73.0013 19.7715C62.0822 19.7715 53.2305 22.5972 53.2305 26.0829C53.2305 29.5687 62.0822 31.9382 73.0013 31.9382Z" fill="#BFCDDB"/>
<path d="M54.75 28.4861L73.3093 15.209L91.25 28.4861C90.2189 29.9023 85.1873 31.9382 73.3093 31.9382C61.4314 31.9382 55.9873 29.9023 54.75 28.4861Z" fill="url(#paint2_linear_1769_3895)"/>
<defs>
<linearGradient id="paint0_linear_1769_3895" x1="73.001" y1="15.209" x2="73.001" y2="31.9381" gradientUnits="userSpaceOnUse">
<stop stop-color="#E9F4FF"/>
<stop offset="1" stop-color="#C5D7EA"/>
</linearGradient>
<radialGradient id="paint1_radial_1769_3895" cx="0" cy="0" r="1" gradientUnits="userSpaceOnUse" gradientTransform="translate(73.001 41.8236) rotate(90) scale(95.0521 115.58)">
<stop stop-color="#F9F8FF"/>
<stop offset="1" stop-color="#E1D7EA"/>
</radialGradient>
<linearGradient id="paint2_linear_1769_3895" x1="73" y1="15.209" x2="73" y2="31.9382" gradientUnits="userSpaceOnUse">
<stop stop-color="#E9F4FF"/>
<stop offset="1" stop-color="#C5D7EA"/>
</linearGradient>
</defs>
</svg>
