<svg width="140" height="20" viewBox="0 0 140 20" fill="none" xmlns="http://www.w3.org/2000/svg">
<g clip-path="url(#clip0_1790_2827)">
<path d="M20 10C20 4.47715 15.5229 0 10 0C4.47715 0 0 4.47715 0 10C0 14.9912 3.65684 19.1283 8.4375 19.8785V12.8906H5.89844V10H8.4375V7.79688C8.4375 5.29063 9.93047 3.90625 12.2146 3.90625C13.3084 3.90625 14.4531 4.10156 14.4531 4.10156V6.5625H13.1922C11.95 6.5625 11.5625 7.3334 11.5625 8.125V10H14.3359L13.8926 12.8906H11.5625V19.8785C16.3432 19.1283 20 14.9912 20 10Z" fill="black"/>
</g>
<g clip-path="url(#clip1_1790_2827)">
<path d="M40 1.80078C42.6719 1.80078 42.9883 1.8125 44.0391 1.85937C45.0156 1.90234 45.543 2.06641 45.8945 2.20313C46.3594 2.38281 46.6953 2.60156 47.043 2.94922C47.3945 3.30078 47.6094 3.63281 47.7891 4.09766C47.9258 4.44922 48.0898 4.98047 48.1328 5.95313C48.1797 7.00781 48.1914 7.32422 48.1914 9.99219C48.1914 12.6641 48.1797 12.9805 48.1328 14.0313C48.0898 15.0078 47.9258 15.5352 47.7891 15.8867C47.6094 16.3516 47.3906 16.6875 47.043 17.0352C46.6914 17.3867 46.3594 17.6016 45.8945 17.7813C45.543 17.918 45.0117 18.082 44.0391 18.125C42.9844 18.1719 42.668 18.1836 40 18.1836C37.3281 18.1836 37.0117 18.1719 35.9609 18.125C34.9844 18.082 34.457 17.918 34.1055 17.7813C33.6406 17.6016 33.3047 17.3828 32.957 17.0352C32.6055 16.6836 32.3906 16.3516 32.2109 15.8867C32.0742 15.5352 31.9102 15.0039 31.8672 14.0313C31.8203 12.9766 31.8086 12.6602 31.8086 9.99219C31.8086 7.32031 31.8203 7.00391 31.8672 5.95313C31.9102 4.97656 32.0742 4.44922 32.2109 4.09766C32.3906 3.63281 32.6094 3.29688 32.957 2.94922C33.3086 2.59766 33.6406 2.38281 34.1055 2.20313C34.457 2.06641 34.9883 1.90234 35.9609 1.85937C37.0117 1.8125 37.3281 1.80078 40 1.80078ZM40 0C37.2852 0 36.9453 0.0117187 35.8789 0.0585938C34.8164 0.105469 34.0859 0.277344 33.4531 0.523437C32.793 0.78125 32.2344 1.12109 31.6797 1.67969C31.1211 2.23438 30.7813 2.79297 30.5234 3.44922C30.2773 4.08594 30.1055 4.8125 30.0586 5.875C30.0117 6.94531 30 7.28516 30 10C30 12.7148 30.0117 13.0547 30.0586 14.1211C30.1055 15.1836 30.2773 15.9141 30.5234 16.5469C30.7813 17.207 31.1211 17.7656 31.6797 18.3203C32.2344 18.875 32.793 19.2188 33.4492 19.4727C34.0859 19.7188 34.8125 19.8906 35.875 19.9375C36.9414 19.9844 37.2813 19.9961 39.9961 19.9961C42.7109 19.9961 43.0508 19.9844 44.1172 19.9375C45.1797 19.8906 45.9102 19.7188 46.543 19.4727C47.1992 19.2188 47.7578 18.875 48.3125 18.3203C48.8672 17.7656 49.2109 17.207 49.4648 16.5508C49.7109 15.9141 49.8828 15.1875 49.9297 14.125C49.9766 13.0586 49.9883 12.7188 49.9883 10.0039C49.9883 7.28906 49.9766 6.94922 49.9297 5.88281C49.8828 4.82031 49.7109 4.08984 49.4648 3.45703C49.2188 2.79297 48.8789 2.23438 48.3203 1.67969C47.7656 1.125 47.207 0.78125 46.5508 0.527344C45.9141 0.28125 45.1875 0.109375 44.125 0.0625C43.0547 0.0117188 42.7148 0 40 0Z" fill="black"/>
<path d="M40 4.86328C37.1641 4.86328 34.8633 7.16406 34.8633 10C34.8633 12.8359 37.1641 15.1367 40 15.1367C42.8359 15.1367 45.1367 12.8359 45.1367 10C45.1367 7.16406 42.8359 4.86328 40 4.86328ZM40 13.332C38.1602 13.332 36.668 11.8398 36.668 10C36.668 8.16016 38.1602 6.66797 40 6.66797C41.8398 6.66797 43.332 8.16016 43.332 10C43.332 11.8398 41.8398 13.332 40 13.332Z" fill="black"/>
<path d="M46.5391 4.66016C46.5391 5.32422 46 5.85938 45.3398 5.85938C44.6758 5.85938 44.1406 5.32031 44.1406 4.66016C44.1406 3.99609 44.6797 3.46094 45.3398 3.46094C46 3.46094 46.5391 4 46.5391 4.66016Z" fill="black"/>
</g>
<g clip-path="url(#clip2_1790_2827)">
<path d="M79.6014 5.1541C79.4883 4.72861 79.2654 4.34029 78.9551 4.02798C78.6448 3.71568 78.2579 3.49035 77.8332 3.37456C76.2695 2.9541 70.0195 2.9541 70.0195 2.9541C70.0195 2.9541 63.7695 2.9541 62.2059 3.37456C61.7811 3.49035 61.3942 3.71568 61.0839 4.02798C60.7736 4.34029 60.5508 4.72861 60.4377 5.1541C60.0195 6.72456 60.0195 9.99956 60.0195 9.99956C60.0195 9.99956 60.0195 13.2746 60.4377 14.845C60.5508 15.2705 60.7736 15.6588 61.0839 15.9711C61.3942 16.2834 61.7811 16.5088 62.2059 16.6246C63.7695 17.045 70.0195 17.045 70.0195 17.045C70.0195 17.045 76.2695 17.045 77.8332 16.6246C78.2579 16.5088 78.6448 16.2834 78.9551 15.9711C79.2654 15.6588 79.4883 15.2705 79.6014 14.845C80.0195 13.2746 80.0195 9.99956 80.0195 9.99956C80.0195 9.99956 80.0195 6.72456 79.6014 5.1541Z" fill="black"/>
<path d="M67.9746 12.9741V7.02637L73.2019 10.0002L67.9746 12.9741Z" fill="#FEFEFE"/>
</g>
<g clip-path="url(#clip3_1790_2827)">
<path fill-rule="evenodd" clip-rule="evenodd" d="M100 0.416992C97.6264 0.418224 95.3303 1.25904 93.5225 2.78909C91.7148 4.31915 90.5134 6.43867 90.1331 8.76866C89.7528 11.0986 90.2184 13.4872 91.4467 15.5071C92.675 17.5271 94.5858 19.0468 96.8376 19.7945C97.3344 19.8867 97.5215 19.5788 97.5215 19.317C97.5215 19.0552 97.5115 18.2962 97.5082 17.4663C94.7263 18.0673 94.1385 16.2924 94.1385 16.2924C93.6847 15.1399 93.029 14.8369 93.029 14.8369C92.1216 14.2211 93.0969 14.2326 93.0969 14.2326C94.102 14.3034 94.6303 15.2584 94.6303 15.2584C95.5211 16.7781 96.9701 16.3385 97.5397 16.0816C97.6291 15.4379 97.8891 14.9999 98.1756 14.7513C95.9533 14.501 93.6185 13.6481 93.6185 9.83818C93.6047 8.85008 93.9735 7.89454 94.6485 7.16923C94.5458 6.91896 94.203 5.90802 94.7462 4.53485C94.7462 4.53485 95.5857 4.26812 97.4966 5.55403C99.1357 5.10835 100.865 5.10835 102.504 5.55403C104.413 4.26812 105.251 4.53485 105.251 4.53485C105.796 5.90473 105.453 6.91567 105.351 7.16923C106.028 7.89465 106.397 8.85187 106.382 9.84147C106.382 13.6597 104.042 14.501 101.817 14.7463C102.175 15.0559 102.494 15.6601 102.494 16.5888C102.494 17.9191 102.483 18.9893 102.483 19.317C102.483 19.5821 102.663 19.8916 103.17 19.7945C105.422 19.0467 107.333 17.5267 108.561 15.5064C109.789 13.4861 110.255 11.0972 109.874 8.76704C109.493 6.43683 108.291 4.31729 106.483 2.7875C104.675 1.25771 102.378 0.417443 100.004 0.416992H100Z" fill="black"/>
<path d="M93.7863 14.6935C93.7648 14.7429 93.6853 14.7577 93.6207 14.7232C93.5561 14.6886 93.5081 14.6244 93.5313 14.5733C93.5545 14.5223 93.6323 14.5091 93.6969 14.5437C93.7615 14.5783 93.8112 14.6441 93.7863 14.6935Z" fill="black"/>
<path d="M94.1933 15.1433C94.159 15.1604 94.1198 15.1652 94.0824 15.1568C94.0449 15.1484 94.0116 15.1273 93.988 15.0972C93.9234 15.028 93.9102 14.9325 93.9599 14.8897C94.0095 14.8469 94.099 14.8667 94.1635 14.9358C94.2281 15.005 94.243 15.1005 94.1933 15.1433Z" fill="black"/>
<path d="M94.5867 15.7138C94.5255 15.7566 94.4211 15.7138 94.3632 15.6282C94.3471 15.6129 94.3344 15.5944 94.3257 15.5741C94.317 15.5537 94.3125 15.5318 94.3125 15.5097C94.3125 15.4875 94.317 15.4656 94.3257 15.4453C94.3344 15.4249 94.3471 15.4065 94.3632 15.3911C94.4244 15.35 94.5288 15.3911 94.5867 15.4751C94.6447 15.5591 94.6463 15.671 94.5867 15.7138V15.7138Z" fill="black"/>
<path d="M95.1217 16.2674C95.067 16.3283 94.9561 16.3118 94.865 16.2295C94.7739 16.1472 94.7524 16.0352 94.8071 15.9759C94.8617 15.9167 94.9726 15.9331 95.067 16.0138C95.1614 16.0945 95.1796 16.2081 95.1217 16.2674V16.2674Z" fill="black"/>
<path d="M95.8725 16.5903C95.8476 16.6677 95.735 16.7023 95.6224 16.6694C95.5098 16.6364 95.4353 16.5442 95.4568 16.4652C95.4784 16.3862 95.5926 16.3499 95.7069 16.3862C95.8211 16.4224 95.894 16.5096 95.8725 16.5903Z" fill="black"/>
<path d="M96.6906 16.6459C96.6906 16.7266 96.5979 16.7957 96.4786 16.7974C96.3594 16.799 96.2617 16.7332 96.2617 16.6525C96.2617 16.5718 96.3544 16.5027 96.4737 16.501C96.5929 16.4994 96.6906 16.5636 96.6906 16.6459Z" fill="black"/>
<path d="M97.4507 16.5189C97.4656 16.5996 97.3828 16.6836 97.2636 16.7033C97.1443 16.7231 97.04 16.6754 97.0251 16.5963C97.0102 16.5173 97.0963 16.4317 97.2122 16.4103C97.3281 16.3889 97.4358 16.4383 97.4507 16.5189Z" fill="black"/>
</g>
<path d="M128.241 8.38965C127.671 8.38965 127.221 8.88965 127.221 9.49965C127.221 10.1096 127.681 10.6096 128.241 10.6096C128.811 10.6096 129.261 10.1096 129.261 9.49965C129.271 8.88965 128.811 8.38965 128.241 8.38965ZM131.891 8.38965C131.321 8.38965 130.871 8.88965 130.871 9.49965C130.871 10.1096 131.331 10.6096 131.891 10.6096C132.461 10.6096 132.911 10.1096 132.911 9.49965C132.911 8.88965 132.461 8.38965 131.891 8.38965Z" fill="black"/>
<path d="M136.751 0H123.351C122.221 0 121.301 0.92 121.301 2.06V15.58C121.301 16.72 122.221 17.64 123.351 17.64H134.691L134.161 15.79L135.441 16.98L136.651 18.1L138.801 20V2.06C138.801 0.92 137.881 0 136.751 0ZM132.891 13.06C132.891 13.06 132.531 12.63 132.231 12.25C133.541 11.88 134.041 11.06 134.041 11.06C133.631 11.33 133.241 11.52 132.891 11.65C132.391 11.86 131.911 12 131.441 12.08C130.481 12.26 129.601 12.21 128.851 12.07C128.281 11.96 127.791 11.8 127.381 11.64C127.151 11.55 126.901 11.44 126.651 11.3C126.621 11.28 126.591 11.27 126.561 11.25C126.541 11.24 126.531 11.23 126.521 11.22C126.341 11.12 126.241 11.05 126.241 11.05C126.241 11.05 126.721 11.85 127.991 12.23C127.691 12.61 127.321 13.06 127.321 13.06C125.111 12.99 124.271 11.54 124.271 11.54C124.271 8.32 125.711 5.71 125.711 5.71C127.151 4.63 128.521 4.66 128.521 4.66L128.621 4.78C126.821 5.3 125.991 6.09 125.991 6.09C125.991 6.09 126.211 5.97 126.581 5.8C127.651 5.33 128.501 5.2 128.851 5.17C128.911 5.16 128.961 5.15 129.021 5.15C129.631 5.07 130.321 5.05 131.041 5.13C131.991 5.24 133.011 5.52 134.051 6.09C134.051 6.09 133.261 5.34 131.561 4.82L131.701 4.66C131.701 4.66 133.071 4.63 134.511 5.71C134.511 5.71 135.951 8.32 135.951 11.54C135.951 11.54 135.101 12.99 132.891 13.06V13.06Z" fill="black"/>
<defs>
<clipPath id="clip0_1790_2827">
<rect width="20" height="20" fill="white"/>
</clipPath>
<clipPath id="clip1_1790_2827">
<rect width="20" height="20" fill="white" transform="translate(30)"/>
</clipPath>
<clipPath id="clip2_1790_2827">
<rect width="20" height="20" fill="white" transform="translate(60)"/>
</clipPath>
<clipPath id="clip3_1790_2827">
<rect width="20" height="20" fill="white" transform="translate(90)"/>
</clipPath>
</defs>
</svg>
