<svg width="26" height="26" viewBox="0 0 26 26" fill="none" xmlns="http://www.w3.org/2000/svg">
<path fill-rule="evenodd" clip-rule="evenodd" d="M12.7554 2.50826C13.2719 1.04696 14.6655 0 16.3037 0C17.9419 0 19.3355 1.04696 19.852 2.50826H23.8285C24.5211 2.50826 25.0826 3.06975 25.0826 3.76239C25.0826 4.45503 24.5211 5.01652 23.8285 5.01652H19.852C19.3355 6.47782 17.9419 7.52478 16.3037 7.52478C14.6655 7.52478 13.2719 6.47782 12.7554 5.01652L1.25413 5.01652C0.561493 5.01652 7.4752e-08 4.45503 0 3.76239C0 3.06975 0.561493 2.50826 1.25413 2.50826L12.7554 2.50826ZM16.3037 2.50826C15.6111 2.50826 15.0496 3.06975 15.0496 3.76239C15.0496 4.45503 15.6111 5.01652 16.3037 5.01652C16.9963 5.01652 17.5578 4.45503 17.5578 3.76239C17.5578 3.06975 16.9963 2.50826 16.3037 2.50826ZM8.77891 11.2872C8.08628 11.2872 7.52478 11.8487 7.52478 12.5413C7.52478 13.2339 8.08628 13.7954 8.77891 13.7954C9.47155 13.7954 10.033 13.2339 10.033 12.5413C10.033 11.8487 9.47155 11.2872 8.77891 11.2872ZM5.23061 11.2872C5.7471 9.82587 7.14074 8.77891 8.77891 8.77891C10.4171 8.77891 11.8107 9.82587 12.3272 11.2872L23.8285 11.2872C24.5211 11.2872 25.0826 11.8487 25.0826 12.5413C25.0826 13.2339 24.5211 13.7954 23.8285 13.7954L12.3272 13.7954C11.8107 15.2567 10.4171 16.3037 8.77891 16.3037C7.14074 16.3037 5.7471 15.2567 5.23061 13.7954H1.25413C0.561493 13.7954 0 13.2339 0 12.5413C0 11.8487 0.561493 11.2872 1.25413 11.2872H5.23061ZM12.7554 20.0661C13.2719 18.6048 14.6655 17.5578 16.3037 17.5578C17.9419 17.5578 19.3355 18.6048 19.852 20.0661H23.8285C24.5211 20.0661 25.0826 20.6276 25.0826 21.3202C25.0826 22.0128 24.5211 22.5743 23.8285 22.5743H19.852C19.3355 24.0356 17.9419 25.0826 16.3037 25.0826C14.6655 25.0826 13.2719 24.0356 12.7554 22.5743H1.25413C0.561493 22.5743 0 22.0128 0 21.3202C0 20.6276 0.561493 20.0661 1.25413 20.0661H12.7554ZM16.3037 20.0661C15.6111 20.0661 15.0496 20.6276 15.0496 21.3202C15.0496 22.0128 15.6111 22.5743 16.3037 22.5743C16.9963 22.5743 17.5578 22.0128 17.5578 21.3202C17.5578 20.6276 16.9963 20.0661 16.3037 20.0661Z" fill="black"/>
</svg>
