<svg width="26" height="26" viewBox="0 0 26 26" fill="none" xmlns="http://www.w3.org/2000/svg">
<path fill-rule="evenodd" clip-rule="evenodd" d="M4.85687 4.06965C6.26593 1.63859 8.89768 0 11.9142 0C15.3191 0 18.234 2.08661 19.4544 5.04903C22.6158 5.37075 25.0826 8.04088 25.0826 11.2872C25.0826 11.3168 25.0826 11.3473 25.0827 11.3785C25.0834 11.9408 25.0845 12.7493 24.8609 13.4167C24.7305 13.8061 24.4963 14.2437 24.0644 14.5762C23.9521 14.6627 23.8346 14.7358 23.7131 14.7967L23.1139 19.5897C22.7217 22.7277 20.0542 25.0826 16.8917 25.0826H8.19089C5.02845 25.0826 2.36091 22.7277 1.96866 19.5897L1.30711 14.2973C0.544885 13.3013 0 12.2507 0 10.6601C0 7.5601 2.04391 4.94003 4.85687 4.06965ZM3.92892 15.0496L4.45755 19.2786C4.6929 21.1614 6.29343 22.5743 8.19089 22.5743H8.36087V15.0496H3.92892ZM10.8691 15.0496V22.5743H14.2135V15.0496H10.8691ZM3.1278 12.5413C2.69355 11.9266 2.50826 11.4219 2.50826 10.6601C2.50826 8.55545 3.99075 6.79414 5.96941 6.36873L6.56696 6.24026L6.83395 5.69045C7.7499 3.80422 9.68192 2.50826 11.9142 2.50826C14.4976 2.50826 16.6786 4.24515 17.347 6.61729L17.6184 7.58027L18.6175 7.52969C18.6818 7.52643 18.7467 7.52478 18.812 7.52478C20.8899 7.52478 22.5743 9.20926 22.5743 11.2872C22.5743 11.6143 22.5738 11.887 22.5575 12.1326C22.5451 12.3186 22.5256 12.4503 22.5044 12.5413H3.1278ZM16.7217 15.0496V22.5743H16.8917C18.7892 22.5743 20.3897 21.1614 20.6251 19.2786L21.1537 15.0496H16.7217Z" fill="black"/>
</svg>
