<svg width="26" height="26" viewBox="0 0 26 26" fill="none" xmlns="http://www.w3.org/2000/svg">
<path fill-rule="evenodd" clip-rule="evenodd" d="M11.6545 0.367326C12.1443 -0.122442 12.9383 -0.122442 13.4281 0.367326L16.3037 3.24291V2.50826C16.3037 1.81562 16.8652 1.25413 17.5578 1.25413H21.3202C22.0128 1.25413 22.5743 1.81562 22.5743 2.50826V9.51356L24.7153 11.6545C25.205 12.1443 25.205 12.9383 24.7153 13.4281C24.2255 13.9179 23.4314 13.9179 22.9417 13.4281L22.5743 13.0608V21.3202C22.5743 23.3981 20.8899 25.0826 18.812 25.0826H6.27065C4.19274 25.0826 2.50826 23.3981 2.50826 21.3202V13.0608L2.14093 13.4281C1.65117 13.9179 0.857095 13.9179 0.367326 13.4281C-0.122442 12.9383 -0.122442 12.1443 0.367326 11.6545L2.87514 9.14669C2.87544 9.14639 2.87574 9.14609 2.87603 9.14579L11.6545 0.367326ZM5.01652 10.5525V21.3202C5.01652 22.0128 5.57801 22.5743 6.27065 22.5743H18.812C19.5046 22.5743 20.0661 22.0128 20.0661 21.3202V10.5525L16.6712 7.15762C16.6711 7.15751 16.671 7.1574 16.6709 7.15729L12.5413 3.02774L5.01652 10.5525ZM18.812 5.75117L20.0661 7.0053V3.76239H18.812V5.75117Z" fill="black"/>
</svg>
